<svg xmlns="http://www.w3.org/2000/svg" xmlns:xlink="http://www.w3.org/1999/xlink" width="176.909" height="196.095" viewBox="0 0 176.909 196.095">
  <defs>
    <clipPath id="clip-path">
      <rect id="Rectangle_12" data-name="Rectangle 12" width="176.909" height="196.095" fill="none"/>
    </clipPath>
  </defs>
  <g id="Groupe_5" data-name="Groupe 5" transform="translate(0 0)">
    <g id="Groupe_4" data-name="Groupe 4" transform="translate(0 0)" clip-path="url(#clip-path)">
      <path id="Tracé_40" data-name="Tracé 40" d="M22.213,5.982l.011.2c.009.114.02.23.028.346.023.253.045.511.071.778.426-.077.872-.162,1.326-.244.27-.045.545-.088.829-.133.568-.091,1.161-.168,1.775-.247,4.055-.517,7.409-.423,7.437-.727.04-.278-3.382-.855-7.588-.318-.63.082-1.244.173-1.823.287-.29.051-.574.114-.846.17l-.105.023c-.028.006-.014.006-.026.009l-.031.014-.074.026-.023-.034c-.006-.014-.006.006-.017-.045l-.028-.193c-.045-.253-.091-.494-.131-.721-.085-.454-.173-.852-.253-1.176-.162-.65-.31-1.022-.429-1.011-.1.009-.153.4-.162,1.073,0,.332,0,.736.02,1.2.011.23.026.477.037.733" transform="translate(40.762 5.483)" fill="#ca9e67"/>
      <path id="Tracé_41" data-name="Tracé 41" d="M27.836,3.162c2.894-.173,5.268-.133,5.3-.463.037-.253-2.368-.767-5.367-.591s-5.333.923-5.256,1.2c.071.3,2.422.014,5.325-.142" transform="translate(41.413 3.814)" fill="#ca9e67"/>
      <path id="Tracé_42" data-name="Tracé 42" d="M10.65,68.323a25.906,25.906,0,0,1-2.8-3.016,23.518,23.518,0,0,1-2.809-4.654,27.848,27.848,0,0,1-2-6.341,37.048,37.048,0,0,1-.579-5.978.044.044,0,0,1,.02-.045.051.051,0,0,1,.043-.02l2.226.281a149.032,149.032,0,0,0,17.482,1.113h.42a123.58,123.58,0,0,0,13.87-.747c2.209-.25,4.16-.542,5.807-.829.8-.136,1.514-.27,2.161-.4.574-.114,1.1-.224,1.545-.318.187-.048.346-.085.523-.128.568-.136,1.088-.264,1.516-.381.026-.009.06-.014.088-.023l.014,0a.047.047,0,0,1,.037.014.054.054,0,0,1,.026.045c.051.727.077,1.335.085,1.914a37.894,37.894,0,0,1-.443,5.768l-.108.588c-.065.375-.148.713-.222,1.062-.054.275-.1.568-.168.826-.04.148-.074.3-.105.44-.054.233-.105.457-.176.7l-.29.991c-.338,1.11-.667,2.042-.906,2.721-.026.071-.045.133-.068.2a9.564,9.564,0,0,0-.395,1.221,1.9,1.9,0,0,0,.375-.471,19.525,19.525,0,0,0,1.613-3.24c.026-.065.051-.125.08-.19l.381-1.022c.088-.239.159-.483.233-.738l.116-.389c.216-.67.372-1.394.542-2.164l.08-.363a32.269,32.269,0,0,0,.554-5.949c-.011-.682-.048-1.406-.125-2.275a.059.059,0,0,1,.023-.054.062.062,0,0,1-.034-.048,33.051,33.051,0,0,0-.511-3.561l-.091-.375c-.045-.2-.1-.375-.151-.574-.131-.54-.256-1.085-.423-1.573l-.116-.378c-.08-.256-.156-.505-.247-.741l-.233-.6-.162-.415a20.7,20.7,0,0,0-1.59-3.166,3.326,3.326,0,0,0-.514-.71,6.1,6.1,0,0,0,.423,1.326l.006.011c.258.693.611,1.641.983,2.789l.31,1.011c.068.219.125.449.179.682.034.133.068.27.1.406l.009.023c.168.594.29,1.227.42,1.894l.116.582c.156.931.264,1.917.352,2.908.017.19.054.366.068.554a.063.063,0,0,1-.054.068l-.062.006c-.406.054-.923.125-1.5.21-.216.028-.409.057-.647.094-.409.051-.889.119-1.411.187-.639.082-1.357.173-2.15.267-1.7.207-3.706.423-5.958.6-3.646.29-7.486.437-11.41.437q-1.363,0-2.772-.026A168.123,168.123,0,0,1,4.919,47.13l-1.636-.2a.066.066,0,0,1-.054-.062.061.061,0,0,1,.057-.06c2.3-.173,4.671-.318,7.046-.432,4.45-.21,9.1-.335,14.222-.395l9.6-.077a24.776,24.776,0,0,0,3.4-.136,29.311,29.311,0,0,0-3.379-.344c-3.1-.21-6.336-.349-9.61-.42-1.971-.045-3.976-.068-5.964-.068-2.766,0-5.566.045-8.318.133-2.587.085-5.188.219-7.727.4H2.545a.05.05,0,0,1-.04-.02.059.059,0,0,1-.023-.045c.043-1.028.105-2.1.2-3.289.06-.673.114-1.292.165-1.852a17.75,17.75,0,0,0,.182-3.237c-.173.077-.764,1.806-1.315,4.967a36.05,36.05,0,0,0-.082,12.58,25.449,25.449,0,0,0,2.229,6.648,20.357,20.357,0,0,0,3.243,4.723,14.309,14.309,0,0,0,2.945,2.473,3.635,3.635,0,0,0,1.221.571l.014.009a3.418,3.418,0,0,0-.636-.673" transform="translate(2.061 63.158)" fill="#ca9e67"/>
      <path id="Tracé_43" data-name="Tracé 43" d="M26.872,47.513c-.511.182-1.085.389-1.7.562-.471.159-.971.287-1.5.423l-.54.139a35.836,35.836,0,0,1-4.76.767c-.852.065-1.738.1-2.63.1-.716,0-1.454-.023-2.192-.065L13,49.393c-.542-.045-1.059-.091-1.545-.165-.636-.071-1.235-.182-1.761-.275l-.065-.011c-.741-.139-1.386-.278-1.923-.392a10.727,10.727,0,0,0-1.548-.273.305.305,0,0,0-.133.017h0c.026.168,1.2.909,3.371,1.6a17.644,17.644,0,0,0,1.86.483c.6.148,1.241.236,1.923.332l.253.037a27.3,27.3,0,0,0,3,.168c.693,0,1.389-.028,2.062-.082A27.315,27.315,0,0,0,23.47,49.9l.25-.082a19.017,19.017,0,0,0,1.84-.645,18.211,18.211,0,0,0,1.752-.784c2.073-1.059,3.076-1.985,3.013-2.15a7.6,7.6,0,0,0-1.48.511c-.525.21-1.173.469-1.974.761" transform="translate(11.079 85.076)" fill="#ca9e67"/>
      <path id="Tracé_44" data-name="Tracé 44" d="M5.929,48.515a33.56,33.56,0,0,1-2.655-6.6c-.261-.843-.508-1.644-.65-1.644-.108.026-.29.9-.051,2.684a17.984,17.984,0,0,0,.665,2.891A20.013,20.013,0,0,0,6.7,52.229a17.3,17.3,0,0,0,2.053,2.144A5.793,5.793,0,0,0,10.986,55.8l.051-.011c.074-.091-.46-.736-.98-1.36a34.86,34.86,0,0,1-4.129-5.912" transform="translate(4.516 74.086)" fill="#ca9e67"/>
      <path id="Tracé_45" data-name="Tracé 45" d="M14.037,65.286c-2.275-.071-4.317-.3-5.8-.477-.917-.1-1.639-.187-2.042-.187-.278,0-.324.043-.327.043a5.693,5.693,0,0,0,2.249.895A26.4,26.4,0,0,0,14,66.407q.507.017,1.005.017a26.614,26.614,0,0,0,4.921-.437,5.4,5.4,0,0,0,2.306-.738c-.017-.023-.114-.071-.676-.071-.4,0-.954.026-1.622.051-1.045.043-2.346.094-3.82.094-.665,0-1.36-.009-2.079-.037" transform="translate(10.794 118.891)" fill="#ca9e67"/>
      <path id="Tracé_46" data-name="Tracé 46" d="M169.639,163.589a8.345,8.345,0,0,0,.065-1.622,8.885,8.885,0,0,0-.77-3.172,9.127,9.127,0,0,0-3.254-3.879,9.627,9.627,0,0,0-3.459-1.417,10.145,10.145,0,0,0-.352-1.161,9.757,9.757,0,0,0-.486-1.1,10.532,10.532,0,0,0-1.346-2.016c.875-.4,1.815-.88,2.769-1.394s1.92-1.076,2.84-1.653,1.795-1.17,2.564-1.755a15.125,15.125,0,0,0,1.937-1.7,1.4,1.4,0,0,0,.775-.866c.358-1.477-2.252-1.372-4.791-.852-.565.114-1.122.25-1.647.392a18.728,18.728,0,0,0-2,.647,4,4,0,0,0-.721.355l-.009.011c-1.386.511-4.123,2.048-6.841,3.286a14.129,14.129,0,0,0-2.4-.639,15.518,15.518,0,0,0-2.63-.227l0,0v0l.017,0a7.686,7.686,0,0,0,1.014-.258,6.828,6.828,0,0,0,1.826-.912,5.4,5.4,0,0,0,.741-.642l.037-.031.034-.034a6.84,6.84,0,0,0,.73-.8,5.253,5.253,0,0,0,.54-.843.218.218,0,0,0,0-.179,1.6,1.6,0,0,0-.758-.673A4.456,4.456,0,0,0,157,138.378a6.354,6.354,0,0,0,.366-.579,6.637,6.637,0,0,0,.565-1.292,3.526,3.526,0,0,0,.148-.684c.026-.287-.02-.477-.142-.514a3.621,3.621,0,0,0-1.1-.162h0c.048-.04.1-.085.145-.128l0,0,.006,0,.034-.023a5.336,5.336,0,0,0,1.559-1.977l.026-.057.023-.04a4.975,4.975,0,0,0,.3-.713,2.8,2.8,0,0,0,.142-.7l0-.017v0a4.6,4.6,0,0,0,.054-.693.292.292,0,0,0-.247-.258,4.776,4.776,0,0,0-1.048.006,3.523,3.523,0,0,0,.525-.372,4.674,4.674,0,0,0,.86-1,5.814,5.814,0,0,0,.338-.594,7.459,7.459,0,0,0,.415-1,5.125,5.125,0,0,0,.3-2.8c-.054-.133-.131-.213-.227-.221a3.754,3.754,0,0,0-1.7.182l0,0a7,7,0,0,0,.523-.966,7.07,7.07,0,0,0,.406-1.153,7.5,7.5,0,0,0,.233-1.812,6.4,6.4,0,0,0-.043-.8,4.834,4.834,0,0,0-.119-.682c-.006-.034-.017-.065-.023-.1v-.009c-.028-.417-.062-.818-.088-1.2a.386.386,0,0,0-.42-.338,7.134,7.134,0,0,0-.988.048,4.733,4.733,0,0,0-2.638,1.147,5.7,5.7,0,0,0-.074-.721c-.034-.239-.074-.474-.091-.7a.26.26,0,0,0-.281-.23,4.44,4.44,0,0,0-3.53,1.977,2.375,2.375,0,0,0-.094-.352c-.23-.682-.67-1.215-.991-1.218a.264.264,0,0,0-.148.043c-.062.045-.151.094-.253.159a8.889,8.889,0,0,0-1.761,1.318,4.456,4.456,0,0,0-1.119,1.775,9.2,9.2,0,0,0-.846-1.147.384.384,0,0,0-.094-.062.315.315,0,0,0-.312-.054,6.389,6.389,0,0,0-2.28,1.823.148.148,0,0,0-.108-.037.166.166,0,0,0-.114.045,1.691,1.691,0,0,1-.616.389,1.765,1.765,0,0,1-.7.1,1.539,1.539,0,0,1-1.2-.662,2.1,2.1,0,0,1-.307-.718,11.822,11.822,0,0,1-.009-2.351.172.172,0,0,0-.094-.148l0-.006c.02-.182.028-.355.034-.517a4.265,4.265,0,0,0-.054-.852,2.119,2.119,0,0,0-.08-.321.719.719,0,0,0-.253-.383.329.329,0,0,0-.358.017c-.375.21-.755.415-1.125.622a3.647,3.647,0,0,0,.142-1.414,5.812,5.812,0,0,0-.3-1.44,4.1,4.1,0,0,0-.258-.591c-.278-.52-.611-.8-.889-.585-.645.488-1.286.974-1.925,1.468a5.019,5.019,0,0,0,.031-.721,8.624,8.624,0,0,0-.747-3.01c-.1-.239-.21-.466-.324-.684a9.323,9.323,0,0,0-.707-1.164.314.314,0,0,0-.2-.122.3.3,0,0,0-.224.057,9.018,9.018,0,0,0-.832.693,6.358,6.358,0,0,0-.585.628,4.864,4.864,0,0,0-.082-.71,6.8,6.8,0,0,0-1.1-2.573,1.546,1.546,0,0,0-.65-.576.3.3,0,0,0-.264.028,4.173,4.173,0,0,0-1.076,1.028,6.081,6.081,0,0,0-.494-2.669,5.54,5.54,0,0,0-1.57-2.15.258.258,0,0,0-.355.037c-.415.525-.809,1.062-1.2,1.607a.5.5,0,0,0,.074-.287.443.443,0,0,1-.014-.065,3.142,3.142,0,0,0-.318-.991,10.889,10.889,0,0,0-.6-1.079c-.219-.352-.42-.645-.523-.775-.162-.2-.429-.568-.744-.931-.525-.6-1.179-1.2-1.693-1.054a1.085,1.085,0,0,0-.488.389,11.385,11.385,0,0,0-.895,1.159,9.268,9.268,0,0,0-.71,1.261c-.028.062-.108.233-.207.46s-.216.508-.321.789a6.456,6.456,0,0,0-.253.784,1.346,1.346,0,0,0-.04.284.187.187,0,0,0,.048.153c-.63-.469-1.3-.886-1.954-1.318a.4.4,0,0,0-.176-.051c-.028-.006-.048-.023-.077-.023a.282.282,0,0,0-.23.122,9.361,9.361,0,0,0-1.732,4.865,5.108,5.108,0,0,0,.082,1.045,4.4,4.4,0,0,0-.454-.486c-.469-.42-.94-.619-1.1-.3a8.62,8.62,0,0,0-.761,2.38,6.937,6.937,0,0,0,0,2.695,1.866,1.866,0,0,0-.718-.369c-.219-.043-.395-.006-.471.133a6.572,6.572,0,0,0-.5,1.21,8.359,8.359,0,0,0-.315,1.44,6.513,6.513,0,0,0-.023,1.485,3.92,3.92,0,0,0,.369,1.335c-.25-.159-.517-.3-.784-.463a.294.294,0,0,0-.182-.037.373.373,0,0,0-.3.366l-.006.028a5.519,5.519,0,0,1,.037.716c0,.236-.011.471-.023.707a8.778,8.778,0,0,0,.014,1.471c.034.281.051.534.057.758a2.429,2.429,0,0,0-.182.321c-.207.389-.508.778-1,.707a1.44,1.44,0,0,1-.849-.531c-.077-.08-.159-.165-.247-.241a.249.249,0,0,0-.185-.057l0-.006c-.111-.176-.227-.363-.327-.559a.438.438,0,0,0-.361-.244.406.406,0,0,0-.207.048.421.421,0,0,0-.159.176c-.091.185-.179.366-.273.551a5.838,5.838,0,0,0-.321-.568,5.157,5.157,0,0,0-1.164-1.3,1.9,1.9,0,0,0-.718-.369.372.372,0,0,0-.449.173,3.755,3.755,0,0,0-.258.585,5.469,5.469,0,0,0-.9-1.153,7.342,7.342,0,0,0-1.122-.923,3.049,3.049,0,0,0-1.125-.494c-.369-6.506-.895-13.023-1.681-19.521-1.318-10.925-6.648-20-10.436-30.156a121.577,121.577,0,0,1-3.842-14.2c-.5-2.084-1.127-4.143-1.633-6.228-.131-.54-1.326-4.4-.713-4.782l.537-.253c.4-.588-.108-2.536-.258-3.22-1.644-7.577-1.607-25.643-1.213-25.68a2.73,2.73,0,0,0,2.175-2.769c.133-3.953.383-5.078-1.1-6.154V3.685A2.884,2.884,0,0,0,78.251.937,36.076,36.076,0,0,0,64.532.945c-2.755.534-2.593,3.462-2.5,3.828-1.019.75-1.406,1.658-1.244,5.512.057,1.323.815,1.869,1.048,3.07,1.3,6.742.486,21.475-.676,26.882a3.491,3.491,0,0,0,.548,2.411,126.915,126.915,0,0,1-7.094,27.844c-2.252,6.2-5,12.166-6.938,18.368-.026-.043-.048-.091-.071-.139a.71.71,0,0,0-.429-.335.071.071,0,0,1-.043-.068l.054-.4-.009,0c-3.172-.381-6.37-.673-9.57-.866s-6.4-.293-9.582-.293c-1.278,0-2.536.02-3.774.048s-2.451.082-3.629.145c-.758.043-1.5.088-2.221.139-2.161.153-4.121.352-5.665.568-.588.082-1.113.165-1.553.241-.219.037-.417.074-.588.111s-.318.065-.434.1Q8.969,88,7.787,87.88H7.781a.686.686,0,0,0-.108-.006,1.177,1.177,0,0,0-.988.54c-.344.531-.676,1.09-1,1.69s-.645,1.241-.96,1.928c-.275.6-.542,1.224-.8,1.852s-.488,1.267-.71,1.906C2.8,97.013,2.4,98.308,2.047,99.637c-.4,1.559-.684,2.763-.909,3.908-.258,1.275-.486,2.57-.684,3.95s-.329,2.735-.392,4.033c-.037.724-.051,1.44-.045,2.141a33.687,33.687,0,0,0,.256,3.888c.023.173.048.346.074.517.08.542.159,1.085.267,1.61.142.707.312,1.406.508,2.084a23.268,23.268,0,0,0,2.451,5.654c.358.594.75,1.173,1.164,1.735s.863,1.1,1.332,1.622a19.249,19.249,0,0,0,1.4,1.411c.514.463,1.071.926,1.687,1.391a25.652,25.652,0,0,0,3.487,2.215l.341.185.173.085.449.2c.216.1.434.19.65.281l2.067.875q.643.268,1.286.545c.767.327,1.559.662,2.351.971l.966.378c.77.3,1.539.6,2.317.895a.058.058,0,0,1,.04.051q.222,2.322.42,4.728c.128,1.6.25,3.22.363,4.848.261,3.839.429,7.037.523,10.059.023.8.043,1.619.057,2.445s.026,1.661.026,2.5c0,1.684-.04,3.388-.151,5.078-.06.835-.122,1.65-.241,2.456-.034.29-.085.565-.136.841l-.065.363-.139.574-.162.613c-.216.807-.437,1.607-.679,2.408-.04.122-.082.264-.128.417-.1.3-.21.653-.341,1.02-.068.179-.139.364-.213.551L10.07,181.5a8.241,8.241,0,0,0-.832.179,2.414,2.414,0,0,0-.753.338,1.842,1.842,0,0,0-.647,1.122,2.654,2.654,0,0,0-.057.679,1.858,1.858,0,0,0,.122.6,2.037,2.037,0,0,0,.883.951c.128.077.261.148.395.213.179.085.363.165.537.241l.1.048a2.106,2.106,0,0,1,.8.312,3.129,3.129,0,0,0,.3.156l1.17.505a18.869,18.869,0,0,0,2.138.818,33.1,33.1,0,0,0,3.751.875,49.235,49.235,0,0,0,8.571.713c.207,0,.417,0,.628,0a57.414,57.414,0,0,0,10.911-1.136c.551-.114,1.085-.239,1.607-.369s1.019-.27,1.5-.415c.713-.216,1.414-.477,2.1-.741.108-.04.222-.08.327-.122.486-.185.971-.369,1.457-.542a4.067,4.067,0,0,0,.588-.253,1.939,1.939,0,0,0,.559-.437,1.49,1.49,0,0,0,.227-1.005v-.009a4.266,4.266,0,0,0-.136-.835,3.108,3.108,0,0,0-.423-.991,2.188,2.188,0,0,0-.824-.608,4.634,4.634,0,0,0-1.085-.349l-7.094-1.366-4.782-.943c-.037-.071-.068-.148-.105-.224-.08-.156-.159-.315-.227-.474-.131-.307-.224-.579-.321-.852-.037-.105-.091-.221-.122-.321-.258-.75-.466-1.528-.662-2.28l-.037-.133c-.1-.378-.19-.753-.281-1.136l-.02-.088-.065-.361c-.048-.275-.1-.545-.128-.832-.116-.812-.179-1.639-.236-2.479-.1-1.7-.131-3.4-.122-5.089,0-.846.014-1.681.034-2.51s.043-1.647.071-2.451c.054-1.505.125-3.058.219-4.717s.207-3.419.349-5.345c.122-1.647.281-3.32.432-4.938l.009-.085c.148-1.534.3-3.067.505-4.64l2.158-1.059,2.579-1.21c.576-.278,1.159-.542,1.744-.807l3.484-1.579c.173-.091.344-.176.517-.261.2-.1.4-.213.6-.321.108-.06.213-.108.321-.17.159-.088.31-.182.469-.27-.17,9.755-.071,19.387.125,28.713.02.849.006,1.7-.009,2.6a24.439,24.439,0,0,0,.835,8.352c2.428,7.168,10.8,8.556,18.805,8.556h4.248a5.8,5.8,0,0,0,.971,2.1,6.85,6.85,0,0,0,1.258,1.295,10.011,10.011,0,0,0,7.588,1.721c.665-.085,1.335-.2,2-.352a18.508,18.508,0,0,0,5.731-2.334,7.584,7.584,0,0,0,1.888,4.274,7.132,7.132,0,0,0,1.516,1.252,7.622,7.622,0,0,0,.92.486,9.6,9.6,0,0,0,2.723.758,10.829,10.829,0,0,0,2.794-.011A11.562,11.562,0,0,0,96.5,191.5a12.043,12.043,0,0,0,1.732-.665,11.794,11.794,0,0,0,2.329-1.454,10.344,10.344,0,0,0,1.846-1.92,6.351,6.351,0,0,0,.6,3.1,5.715,5.715,0,0,0,.505.843,6.122,6.122,0,0,0,1.386,1.374,7.387,7.387,0,0,0,1.8.937,9.035,9.035,0,0,0,2.871.514,11.632,11.632,0,0,0,4.808-.954,14.6,14.6,0,0,0,6.043-4.882,18.169,18.169,0,0,0,1.241-1.931,5.216,5.216,0,0,0,1.1,1.829,5.97,5.97,0,0,0,1.795,1.349,6.958,6.958,0,0,0,.792.332,8.648,8.648,0,0,0,2.667.449,11.574,11.574,0,0,0,2.6-.256,13.922,13.922,0,0,0,2.652-.841,15.417,15.417,0,0,0,5.907-4.444,13.947,13.947,0,0,0,1.678-2.63,6.115,6.115,0,0,0,4.115,2.721,8.161,8.161,0,0,0,1.994.2,5.633,5.633,0,0,0,.9-.1,7.847,7.847,0,0,0,1.343-.386,8.443,8.443,0,0,0,2.343-1.369,11.012,11.012,0,0,0,2.6-3.152,13.207,13.207,0,0,0,1.082-2.527,17.373,17.373,0,0,0,.662-7.48,11.272,11.272,0,0,0-1.457-4.237,6.844,6.844,0,0,0-3-2.718,5.627,5.627,0,0,0-3.093-.434,6.671,6.671,0,0,0-1.136.264,11.87,11.87,0,0,0-.258-5.183,8.982,8.982,0,0,0-1.042-2.3,8.765,8.765,0,0,0-1.727-1.979,36.028,36.028,0,0,0,6.012-.991,55.742,55.742,0,0,0,5.822-1.7q.494-.175.988-.366a9.688,9.688,0,0,1,1.877,2.011,8.19,8.19,0,0,1,.457.744,13.575,13.575,0,0,0-1.522.128,10.838,10.838,0,0,0-2.638.713,8.671,8.671,0,0,0-2.9,1.928,6.789,6.789,0,0,0-1.19,1.63c-1.179,2.275-.687,4.8,1.744,5.9,4.385,2,9.431-2.38,9.65-7.605a9.57,9.57,0,0,1,2.138,1.153,8.528,8.528,0,0,1,2.942,3.663,7.789,7.789,0,0,1,.559,2.346,9.125,9.125,0,0,0-3.592-.114,5.3,5.3,0,0,0-2,.787,3.9,3.9,0,0,0-1.681,2.689,2.66,2.66,0,0,0,1.707,3.249,3.616,3.616,0,0,0,1.329.176,4.745,4.745,0,0,0,1.468-.312,5.9,5.9,0,0,0,2.144-1.426,7.149,7.149,0,0,0,1.181-1.616,9.072,9.072,0,0,0,.46-1.02,7.373,7.373,0,0,1,1.786,1.587,7,7,0,0,1,1.369,2.706,6.257,6.257,0,0,1,.187,1.463,5.583,5.583,0,0,1-.19,1.454,5.311,5.311,0,0,1-.721,1.559,6.06,6.06,0,0,1-1.579,1.6,1.144,1.144,0,0,1-.878-.088.868.868,0,0,1-.3-.278,3.15,3.15,0,0,1-.267-1.857.228.228,0,0,0-.1-.392c-.014,0-.031.011-.045.011a.166.166,0,0,0-.116.031,1.716,1.716,0,0,0-.676,1.485,1.581,1.581,0,0,0,.133.511,1.682,1.682,0,0,0,.233.369,1.872,1.872,0,0,0,.778.548c4.677,1.8,8.1-9.644.889-12.66m-4.413-21.662a19.911,19.911,0,0,1,3.428-.381c.841-.011,1.46-.077.406.48-.758.4-5.129,1.238-6.415.619.863-.2,1.71-.545,2.581-.718m-8.863,4.4.011-.006a25.186,25.186,0,0,0,5.81-3.257,1.61,1.61,0,0,0,1.2.662,16.911,16.911,0,0,0,4.325-.332,39.483,39.483,0,0,1-8.352,5.089c-.185-.179-.369-.352-.565-.52,1.7-.994,2.8-1.982,2.669-2.17s-1.556.6-3.43,1.568a11.876,11.876,0,0,0-1.681-1.031l.009,0M98.99,118.5a3.082,3.082,0,0,1,1.792,1.411c.474.716.67,1.559,1.445,2.028a9.179,9.179,0,0,0,.611-1.57c2.317,1.525,1.522,4.189,2.8,1.832.818,1.386,1.613,1.908,2.127,2.016a1.418,1.418,0,0,0,1.715-.474c.611-.849.406-1.781.006-5.171,2.993,1.744.761-1.1.812-3.016.082-2.891.71-2.843,2.121-1.136a.043.043,0,0,0,.051,0c1.034,1.019-1.19-2.6.344-6.086a4.81,4.81,0,0,1,.9.852c2.019,2.383-.29-1.744,2.258-5.876a26.837,26.837,0,0,1,2.045,2c.554.207.94-1.866,1.025-2.155a9.215,9.215,0,0,1,2-3.686c.29-.349,2.187,2.181,2.309,2.476a7.944,7.944,0,0,1,.684,3.013c.011,1.746,1.829-1.65,2.084-2.107a10.058,10.058,0,0,1,1.392,5.413.292.292,0,0,0,.551.088c.017-.048.031-.1.048-.151.006-.006.02,0,.028-.02a5.733,5.733,0,0,1,1.406-1.525c1.8,2.2,1.034,4.081.866,5.333a.244.244,0,0,0,.043.2c.562-.026,1.383-1.758,1.837-2.189,1.244-1.181,1.741,1.4,1.883,2.2.142.778,0,3.149.372,3.413-.125-.091,1.014-1.13,1.113-1.213a8.081,8.081,0,0,1,1.46-.946c.27-.153.429,2.172.409,2.36a8.323,8.323,0,0,0-.037,2.448c.074-.318,1.42-1.15,1.69-1.289a2.907,2.907,0,0,1,.193,1.817v0l0,.011a3.335,3.335,0,0,0-.338,1.869l0,.006a3.213,3.213,0,0,0,.062,1.173c.4,1.576,2.172,2.647,3.544,1.519,1.241-1.025,2.093-3.056,3.027-2.871.812.159,1.048,1.951,1.173,1.815a.863.863,0,0,0,.256-.628c.645-1.23,1.494-2.845,2.916-3.311a6.844,6.844,0,0,1,.582,2.07c-.074.329-.006.494.216.361.179.028.227-.119.3-.275.716-.809,1.1-2.385,3.411-2.746,0,.75.02,1.522.048,2.266a12.014,12.014,0,0,1,1.772-.968,11.085,11.085,0,0,1,2.2-.693,13.572,13.572,0,0,1-.6,5.319,10.662,10.662,0,0,1-.713,1.423c-.395.667-.7,1.073-.6,1.173.062.074.4-.091.838-.5l0,0a5.3,5.3,0,0,1,1.945-.559h0c-.554.8-.684,1.977-1.187,2.826a10.874,10.874,0,0,1-3.044,3.11.216.216,0,0,0,.2.375,5.031,5.031,0,0,0,.63-.253v0a.16.16,0,0,0,.187.085,5.888,5.888,0,0,1,2.15-.3h.009a3.9,3.9,0,0,0-.307.7,7.1,7.1,0,0,1-1.11,1.809,12.273,12.273,0,0,1-2.945,2.439.18.18,0,0,0,.125.321,4.5,4.5,0,0,0,1.463-.415l.009,0,.026-.011a3.5,3.5,0,0,1,1.769-.119h.009l-.037.014a5.227,5.227,0,0,0-.994,1.179,9.3,9.3,0,0,1-1.471,1.536,8.136,8.136,0,0,1-1.658,1.127,13.011,13.011,0,0,0-1.539.662.126.126,0,0,0,.054.224,2.8,2.8,0,0,0,.948,0,4.5,4.5,0,0,1,1.457.684l0,0a.1.1,0,0,0-.043.011,17.84,17.84,0,0,1-3.592,2.283c-1.664.6-3.112.312-4.757.193-.111-.034-.216-.071-.321-.114-.548-.2-.761.611-.474,1.528a18.815,18.815,0,0,1-2.641-.755,9.263,9.263,0,0,0,1.11-5.117,16.919,16.919,0,0,0,4.842.329,11.937,11.937,0,0,0,2.36-.434,20.611,20.611,0,0,1-7.259-.508,8.481,8.481,0,0,0-.934-2.828,36,36,0,0,0,3.291-2.241c10.311.963,11.143.835.656-.5.625-.5,7.574-7.077,6.909-7.557,0,0-2.718,2.732-3.581,3.536.534-7.633.329-8.139-.613.562a40.153,40.153,0,0,1-6.776,4.87,18.366,18.366,0,0,0,.806-5.569,13.936,13.936,0,0,0-.329-2.843c-.065.006.082,1.088.006,2.845a18.924,18.924,0,0,1-1.136,5.7,8.271,8.271,0,0,0-2.03-1.951c.1-1.783-.193-1.911-.491-.29-3-1.71-6.742-1.3-9.885.639a12.432,12.432,0,0,1,3.24-5.623c1.315-1.329,3.643-2.78,1.667-1.647a11.565,11.565,0,0,0-1.9,1.42,12.672,12.672,0,0,0-3.746,6.341c-.08.054-.153.108-.227.165-.7-1.866-1.36-3.751-1.968-5.648a60.344,60.344,0,0,1,5.367-11.459,6.991,6.991,0,0,0,.562-.988c-.017,0-.085.08-.2.227s-.3.372-.5.673a50.563,50.563,0,0,0-5.515,10.646,92,92,0,0,1-2.349-9.181c3.107-9.059,3.266-10.169-.21-1.076-1.318-6.994-1.962-16.638-1.7-9.712a77.134,77.134,0,0,0,1.147,11.172c-.014.043-.014.031-.014.043l.023.009c.119.7.247,1.4.389,2.1-4.831-3.953-8.162-9.4-6.458-6.6a31.083,31.083,0,0,0,6.642,7.494c.361,1.735.778,3.456,1.241,5.168q.354,1.312.75,2.61c.114.383.258.764.358,1.15.074.293.04.889.219,1.127a7.6,7.6,0,0,0-2.774-1.968,19.645,19.645,0,0,0-3.581-1.457c-.463-.315-.9-.642-1.278-.954a27.42,27.42,0,0,1-2.8-2.86,1.026,1.026,0,0,0,.133.25c.1.151.241.386.457.659a14.719,14.719,0,0,0,2,2.2c.162.145.335.293.508.437-4.916-1.187-11.93-.73-14.247,3.652a5.279,5.279,0,0,1-.452-2.337c.017-.755.145-1.218.082-1.238-.2-.077-.818,1.917-.159,3.805a16.963,16.963,0,0,1-3.277-2.326,10.606,10.606,0,0,1-.642-5.291c-.156-.051-.764,2.116-.244,4.4-.139-.156-.281-.329-.42-.5a27.872,27.872,0,0,1-2.235-3.3c-.2-.344-.329-.576-.329-.576-.168.043-.048.682.363,1.613a15.93,15.93,0,0,0,2.243,3.57,15.509,15.509,0,0,0,4.3,3.663,35.255,35.255,0,0,1-4.2-.062c-.86-.057-1.585-.133-2.13-.2-1.1-.122-1.434-.185-.432.1.133.037.3.065.434.1a20.1,20.1,0,0,0,2.13.4,25.981,25.981,0,0,0,4.373.244,4.323,4.323,0,0,0,.153,1.457,25.317,25.317,0,0,0-4.51-.829c-.71-.065-1.42-.111-2.127-.111l-.1,0c-.656,0-1.335.045-1.991.023a5.512,5.512,0,0,1-1.536-.261,3.21,3.21,0,0,1-1.44-.931,2.362,2.362,0,0,1,1.394-.381c.176-.014.207-.043-.009-.156l-.034-.023a.378.378,0,0,0-.045-.1c-.386-.559-1.738-.821-2.207-2.982-.045-.207,1.565.213,2.178.363.105.023.19.045.222.048a4.926,4.926,0,0,1-.239-.454c-.321-.665-.843-1.82-.86-1.857a3.864,3.864,0,0,1,.139-2.939,3.194,3.194,0,0,0,.548.381c.338.213.718.443.781.474.344.159-.471-2.491-.52-2.843a5.449,5.449,0,0,1,.162-2.391c.312.091.557.281.852.395a1.6,1.6,0,0,0,.29.074c.261.028.542-2.32.571-2.556a2.32,2.32,0,0,1,1.261.381c.713.474,1.09,1.295,1.9,1.92.3-.63.051-1.11,0-1.729a2,2,0,0,1,.241.071m48.825,26.444c-.613.074-1.232.17-1.866.31h0c-.057-.25-.119-.494-.176-.744a9.894,9.894,0,0,0,2.045.434m-58.029,26.9a1.377,1.377,0,0,0,.176-.142c-.048.062-.1.125-.142.187l-.034-.045m-.514-2.732a16.256,16.256,0,0,1-6.162,6.759c-3.953,2.354-11.822,3.871-12.819-2.093a10.99,10.99,0,0,1,1.88-8.048,12.735,12.735,0,0,1,.878-1.125c.275-.318.565-.63.875-.923l.006,0a13.621,13.621,0,0,1,1.812-1.426,13.763,13.763,0,0,1,2-1.065c3.22-1.38,7.33-1.727,10.257.162.2.128.415.241.6.392a4.831,4.831,0,0,1,.6.582,3.251,3.251,0,0,1,.363.466c1.179,1.829.54,4.481-.3,6.321m-19.385,7.225a16.83,16.83,0,0,1-2.837,1.834,8.832,8.832,0,0,1-5.092.792c-6.881-1.136-7.131-9.346-.88-13.631a13.22,13.22,0,0,1,1.869-1.045c.312-.148.611-.3.943-.429.122-.045.239-.088.361-.125a12.044,12.044,0,0,1,2.922-.6,24.287,24.287,0,0,1,5.33.307c-.176.187-.341.378-.5.574s-.3.383-.437.576c-.267.361-.52.73-.753,1.119a12.943,12.943,0,0,0-1.059,2.218c-.946,2.581-1.306,6.009.136,8.414m11.422-17.459a14.108,14.108,0,0,0-2.82.656c.026-.105.045-.21.062-.307a3.7,3.7,0,0,0-.2-2.076c-.2-.457-.406-.647-.457-.619s.04.278.114.721a4.2,4.2,0,0,1-.091,1.84,4.13,4.13,0,0,1-.287.764,14.766,14.766,0,0,0-4.581,3.024,8.079,8.079,0,0,0-1.721-.673h-.011a5.126,5.126,0,0,0,1.278-.264,5.263,5.263,0,0,0,3.058-2.86c.42-1.017.329-1.707.207-1.715s-.275.6-.789,1.417a5.213,5.213,0,0,1-6.381,2.229c-.909-.324-1.409-.716-1.508-.608-.08.071.281.667,1.238,1.2a4.7,4.7,0,0,0,.574.261h-.011a13.6,13.6,0,0,0-2.669.2c-.88-.4-1.363-.724-1.428-.636-.04.043.2.364.736.772a15.581,15.581,0,0,0-2,.582c-2.752-5.044,3.49-13.285,11.845-12a11.226,11.226,0,0,1,4.3,1.627,8.217,8.217,0,0,0,1.551,6.466m3.271-11.981a10.99,10.99,0,0,1,3.706-1.627c.2-.045.389-.1.585-.142.213-.037.423-.06.633-.091.179-.026.358-.06.537-.08a13.882,13.882,0,0,1,3.166.074c.324.045.619.122.926.19a13.631,13.631,0,0,1,1.443.4c.17.06.346.1.514.168a14.374,14.374,0,0,1,1.4.616l.034.017c.392.193.778.4,1.161.613a14.969,14.969,0,0,0,.957,1.241,5.276,5.276,0,0,1,.968,1.616,5.6,5.6,0,0,1,.287,2.329c-.04.389-.139.733-.193,1.093-.372.074-.741.165-1.113.273a14.553,14.553,0,0,0-2.133.807c-.344.162-.684.335-1.02.525s-.645.4-.96.613a14.88,14.88,0,0,0-1.2.914,14.115,14.115,0,0,0-2.343,2.491,5.622,5.622,0,0,1-2.7.045,7.022,7.022,0,0,1-1.21-.341c-.043-.014-.094-.028-.136-.045-1.164-.486-1.744-1.068-1.843-.974-.054.04.355.818,1.545,1.568.125.08.287.145.426.216a6.44,6.44,0,0,0,1.207.477,5.88,5.88,0,0,0,.667.185c-.227,0-.449-.023-.667-.04a7.885,7.885,0,0,1-1.213-.187c-.034-.009-.074-.011-.108-.023l-.054-.011a11.87,11.87,0,0,0-1.357-.511,7.82,7.82,0,0,1-1.6-1.005,9.351,9.351,0,0,1-1.6-1.667c-.329-.443-.505-.7-.557-.673s.028.324.281.849a7.454,7.454,0,0,0,1.443,1.994.984.984,0,0,0,.1.091,11.716,11.716,0,0,0-1.511-.111,6.777,6.777,0,0,1-2.03-6.824,8.937,8.937,0,0,1,3.561-5.055m5.129-9.922a15.655,15.655,0,0,1,4.16-1.32c.508-.094,1.014-.165,1.519-.216.2-.02.4-.048.6-.065.463-.037.96-.06,1.465-.074a18.344,18.344,0,0,1,2.121.048,8.371,8.371,0,0,1,4.652,1.59,1.546,1.546,0,0,1,.616.889c.1.613-1.352,1.732-2.224,2.493a4.872,4.872,0,0,0-.011-.687c-.057-.554-.19-.835-.247-.824-.128,0,.02.9-.409,2.218a9.235,9.235,0,0,0-1.224,2.215,7.242,7.242,0,0,1-.943.949c-.04.031-.094.06-.136.094a6.886,6.886,0,0,1-1.664.971c-.148-.077-.31-.131-.457-.2-.355-.162-.707-.332-1.079-.463l-.006,0-.011,0a6.5,6.5,0,0,0,1.1-.557A6.34,6.34,0,0,0,99.5,142.14c.06-.088.091-.165.139-.247.551-.94.633-1.633.525-1.661-.077-.031-.239.25-.525.667a8.856,8.856,0,0,1-.656.849,7.214,7.214,0,0,1-1.462,1.272,6.856,6.856,0,0,1-1.959.875c-.108.028-.2.077-.31.1-.2.04-.392.068-.582.091h0l-.006,0c-.185-.037-.372-.054-.557-.088a14.7,14.7,0,0,0-2.368-.227,6.321,6.321,0,0,1-.8-.318,12.081,12.081,0,0,1-1.374-.767c-.168-.1-.292-.168-.332-.128s.071.256.321.551a4.517,4.517,0,0,0,.778.71h-.006c-.267.02-.525.082-.792.119-.409.051-.821.094-1.218.182l-.026,0c-1.011-.537-1.582-.917-1.65-.824-.043.051.287.449,1,.991a12.964,12.964,0,0,0-2.235.841,6.085,6.085,0,0,1,1.724-6.418,10.024,10.024,0,0,1,1.355-1.039,10.935,10.935,0,0,1,1.232-.7m33.51,7.4a5.781,5.781,0,0,0,2.417,5.256c.639.474,1.116.687,1.079.809s-.6.131-1.411-.253a5.151,5.151,0,0,1-2.723-5.924c.239-.866.616-1.289.716-1.238.128.06-.02.559-.077,1.349m.068.054a.245.245,0,0,0-.028.091l0,.006v.006l-.02-.02,0,0c.014-.028.031-.051.048-.08m.221-4.044c-.437-3.567-4.237-5.245-6.708-5.631a10.685,10.685,0,0,0-1.661-.136,17.178,17.178,0,0,0-7.207,1.738c-1.156-.548-2.13-.676-2.632-1.965a3.067,3.067,0,0,1,.193-2.661,7.6,7.6,0,0,1,4.583-3.124,17.663,17.663,0,0,1,12.18,1.374,5.527,5.527,0,0,1,3.3,4.317c.239,2.158-1.014,4.316-2.045,6.089M107.765,137.8c3.661-1.985,9.388-3.55,12.705.037a6.722,6.722,0,0,1-.006,8.607,10.286,10.286,0,0,1-3.825,2.894c-2.536,1.19-4.831,2.826-7.707,3.024-2.445.17-5.089-.6-6.409-2.809a6.16,6.16,0,0,1-.787-2.189c-.69-4.2,2.584-7.71,6.029-9.564m12.657,10.382,0,0a.343.343,0,0,0-.071.023.162.162,0,0,0,.062-.031h0l.009.006m-9.414,5.129c-.085.133-.17.264-.25.4l-.02.045c-.028.048-.054.1-.08.148.091-.176.173-.355.258-.534a3.358,3.358,0,0,1-.576.366,5.666,5.666,0,0,1-2.618.568,5.583,5.583,0,0,1-2.59-.665c-.6-.338-.883-.673-.815-.772.145-.227,1.551.508,3.422.52,1.869.054,3.314-.616,3.439-.406.034.062-.037.185-.2.338l.034-.009m-1.681,3.9v0l0,.006c-.009.04-.014.068-.026.108a.649.649,0,0,0-.026-.088v0a.155.155,0,0,0,.054-.026m-6.114-4.859-.057,0v-.043l.057.04m-3.01-5.631c-.173-.145-.369-.264-.551-.4-.236-.176-.463-.366-.716-.523a7.078,7.078,0,0,0,.716-.491c.207-.145.44-.27.628-.432a7.4,7.4,0,0,0-.077,1.846m-10,22.966c.261,0,.483.67,1.037,1.258.525.611,1.17.929,1.147,1.161-.023.133-.253.224-.619.165a2.209,2.209,0,0,1-1.213-.71,2.185,2.185,0,0,1-.571-1.284c-.017-.366.1-.585.219-.591m1.622-7.8c.145-.318.3-.628.471-.923l.006,0,.026-.006-.011-.034a11.164,11.164,0,0,1,.676-1.045l.028-.008.014,0-.009-.031a12.149,12.149,0,0,1,1.252-1.46,12.463,12.463,0,0,1,1.144-1.017,13.055,13.055,0,0,1,2.019-1.312,13.631,13.631,0,0,1,2.141-.914c5.776-1.9,11.765.483,8.914,7.667a16.567,16.567,0,0,1-3.11,4.632,12.43,12.43,0,0,1-6.114,3.737,10.485,10.485,0,0,1-2.437.281,12,12,0,0,1-1.533-.111c-4.777-.642-5.018-6.086-3.479-9.457m17.141,2.351c.264-.017.5,1.235,1.508,2.32.974,1.11,2.2,1.491,2.161,1.727-.02.131-.383.207-.946.071a3.952,3.952,0,0,1-1.9-1.184,3.9,3.9,0,0,1-.98-2c-.077-.574.034-.929.153-.929m1.232-2.346c-.684-10.331,9.1-13.983,13.807-11.447,3,1.613,5.239,5.532,2.178,10.59-.216-.028-.434-.048-.653-.062a8.512,8.512,0,0,0,.341-4.211c-.119-.611-.258-.926-.318-.909a28.81,28.81,0,0,1-.284,3.416,9.466,9.466,0,0,1-.542,1.7,7.161,7.161,0,0,0-.946.08.144.144,0,0,0-.057.011,5.842,5.842,0,0,0,.253-1.312c.1-1.454-.364-2.272-.454-2.232-.148.037.06.872-.193,2.147a6.066,6.066,0,0,1-.534,1.568,12.949,12.949,0,0,0-1.84.591l-.006.006a3.176,3.176,0,0,0,.565-1c.219-.656.122-1.085-.009-1.1s-.261.349-.579.821a3.722,3.722,0,0,1-3.683,1.721c-.565-.062-.934-.185-1.005-.068-.065.1.2.443.846.7a3.261,3.261,0,0,0,1.471.2,14.943,14.943,0,0,0-1.57,1.161,6.367,6.367,0,0,1-1.15-.284c-1.224-.417-1.843-1.014-1.957-.895-.071.045.4.855,1.707,1.494a4.279,4.279,0,0,0,.716.29c-.068.06-.136.125-.2.187-.372.369-.724.75-1.048,1.136a4.5,4.5,0,0,1-1.923-1.153,4.333,4.333,0,0,1-1.13-2.084c-.116-.562-.094-.9-.179-.912-.043-.014-.187.312-.179.954a4.189,4.189,0,0,0,1.005,2.476,4.842,4.842,0,0,0,1.891,1.374c-.216.287-.415.588-.6.883-2.417-.951-3.553-2.953-3.743-5.833m16.681-10.837c.1.068.2.139.3.2a.33.33,0,0,0-.054.15l0,0V151.4c-.077-.116-.153-.227-.239-.346m.7,10.3h0a.618.618,0,0,0-.1-.034.492.492,0,0,0,.048-.06l.057.094m-13.75,9.405a16.61,16.61,0,0,1,2.116-3.533c.213-.275.434-.54.665-.8a12.971,12.971,0,0,1,1.082-1.082c.077-.065.151-.133.227-.2.312-.267.628-.514.949-.741l.006-.006c.116-.085.236-.162.355-.241l0-.006a11.719,11.719,0,0,1,2.238-1.167l.281-.105h.006a9.709,9.709,0,0,1,1.284-.366c.04-.009.068-.02.105-.026a6.63,6.63,0,0,1,.838-.125,7.166,7.166,0,0,1,.983-.051,5.757,5.757,0,0,1,5.793,4.285c2.087,7.406-5.492,16.851-12.771,14.108a6.964,6.964,0,0,1-4.512-4.248c1.037-2.337,1.1-4.328.355-5.7m14.668-18.828.006,0a.087.087,0,0,0,.045.023l-.014.034a.42.42,0,0,1-.037-.06m1.556,5.844a11.345,11.345,0,0,0-.383,3.218c.017.843.091,1.383-.028,1.42s-.423-.449-.619-1.34a7,7,0,0,1-.142-1.6,8.462,8.462,0,0,1,.287-1.942,8.356,8.356,0,0,1,.75-1.82,7.149,7.149,0,0,1,.94-1.292c.625-.667,1.13-.931,1.207-.843.094.1-.244.528-.69,1.241a11.281,11.281,0,0,0-1.321,2.956m-1.295-6.736c-4.464-1.494-4.958-7.327-3.544-11.1,1.67-4.453,6.142-8.252,11.143-7.361a7.518,7.518,0,0,1,6.179,6.211c.948,5.924-7.949,14.2-13.779,12.254m13.273-6.148a6,6,0,0,0,1.94.92,25.1,25.1,0,0,0-3.9,1.675,15.119,15.119,0,0,0,1.965-2.6M68.587,1.576a31.3,31.3,0,0,1,10.09.727,1.25,1.25,0,0,1,.895,1.247v.486A39.163,39.163,0,0,0,71.415,3.1c-.88.011-5.654.96-6.208.409a.827.827,0,0,1-.236-.358c-.318-1.056,3.132-1.531,3.615-1.573M62.441,6.585A1.1,1.1,0,0,1,63.2,5.477a32.592,32.592,0,0,1,16.44,0,1.1,1.1,0,0,1,.755,1.108l-.1,4.95a1.175,1.175,0,0,1-.329.815.915.915,0,0,1-.758.273c-1.7-.2-4.473-.443-7.79-.5-3.314.054-6.091.3-7.79.5a.909.909,0,0,1-.755-.273,1.175,1.175,0,0,1-.329-.815Zm2.885,30.508c.219.006.787-10.3,1.281-23.465,1.485-.148,3.215-.3,4.808-.324,1.522.02,2.922.071,4.152.139.321,11.106.727,19.688.983,19.686.216,0,.386-8.59.381-19.6.366.023.718.048,1.037.074.207,4.564.77,22.2,1.437,27.364-1.616-.565-12.211-.417-13.154-.449a30.445,30.445,0,0,1-3.056.142,120.709,120.709,0,0,0,.613-12.37c.062-2.5.111-5,.159-7.506.028-1.423-.165-3.893.96-4.953.713,1.13-.3,21.256.4,21.264M52.9,80.585c2.638-6.364,5.407-12.461,6.977-19.152,1.179-5.038,2.32-10.09,3.351-15.159.043-.2.665-3.643.622-3.641.469-.009.951-.02,1.44-.034-.517,4.069-1.218,7.665-1.7,10.306a23.664,23.664,0,0,0-.684,4.583,26.287,26.287,0,0,0,1.42-4.453A100.191,100.191,0,0,0,66.65,42.557c1.295-.045,2.641-.1,4.03-.162l.736-.031c.247.011.494.02.738.031,1.434.062,2.82.122,4.155.165.551,2.7,1.3,5,1.772,6.7a13.523,13.523,0,0,0,.957,2.948,9.677,9.677,0,0,0-.227-3.1c-.25-1.7-.77-3.97-1.147-6.5.449.011.895.023,1.326.031.119,0,1.252,6.762,1.34,7.2C81.159,54.1,81.886,58.406,83,62.609c2.755,10.382,8.565,19.859,11.135,30.329a45.715,45.715,0,0,1,1.017,5.481c.761,6.3,1.278,12.637,1.65,18.959-.71-.4-1.42-.733-1.494-.582-.034.065-.074.156-.114.256a7.748,7.748,0,0,0-.378,1.2,4.177,4.177,0,0,0-.082.443,3.041,3.041,0,0,0-.031.415,1.252,1.252,0,0,0,.1.48.682.682,0,0,0,.068.145,2.359,2.359,0,0,0-.185-.2,2.717,2.717,0,0,0-.341-.281,2.717,2.717,0,0,1,.341.281c-.275-4.828-.576-9.181-.86-12.771-.267-3.325-.517-6.018-.727-7.875a11.324,11.324,0,0,0-.477-2.877,10.325,10.325,0,0,0-.119,2.911c.026,1.866.116,4.566.241,7.9.139,3.51.307,7.741.494,12.433a9.437,9.437,0,0,0-.25,1.028,7.969,7.969,0,0,0-.162,1.48,6.349,6.349,0,0,0,.085,1.028,5.479,5.479,0,0,0,.216.841.584.584,0,0,0-.426-.014,1.009,1.009,0,0,0-.46.46,2.776,2.776,0,0,0-.315.866,5.275,5.275,0,0,0,.528,3.538,2.552,2.552,0,0,0-.338-.045c-.815-.057-1.786.173-1.741.511a4.565,4.565,0,0,0,2.3,3.149,1.564,1.564,0,0,0-.789.383c-.176.168-.247.355-.153.483a7.137,7.137,0,0,0,.758.88,5.35,5.35,0,0,0,.741.616c-.375.082-.733.17-1.076.267s-.676.2-1,.307c-.5.165-.974.344-1.417.537s-.846.395-1.23.611a10.1,10.1,0,0,0-3.067,2.553,7.456,7.456,0,0,0-.951,1.6,6.367,6.367,0,0,0-.517,3.175,5.321,5.321,0,0,0,.628,2.045,10.687,10.687,0,0,0-1.985,1.511c-.258.256-.5.525-.733.8a10.829,10.829,0,0,0-.77,1.059,9.71,9.71,0,0,0-1.028,2.175,11.341,11.341,0,0,0-4.106-1.5c-.44-.082-.852-.139-1.2-.176-9.888-.977-15.681,10.192-12.362,13.855a10.075,10.075,0,0,0-1.664.9c-3.428-.165-6.157-.335-7.25-.437.233-2.022.239-8.6.06-31.087-.031-3.936-.062-7.932-.085-11.694.043-.179.1-.355.142-.534a28.659,28.659,0,0,0,.7-4.848q.051-.86.062-1.772c.011-.716-.014-1.46-.057-2.221,5.168-.168,10.391-.267,15.548-.278l1.346,0c5.9,0,11.862.105,17.757.3-.048,8.241-.256,16.516-.463,24.567.381-.216.789-.417,1.227-.611.207-8.034.412-16.283.452-24.5l.006-.548-.591-.02c-6.1-.216-12.285-.327-18.388-.327l-1.349,0c-5.183.011-10.425.116-15.619.284-.082-1.028-.21-2.1-.383-3.229a55.776,55.776,0,0,0-1.414-6.4c-.284-1.011-.611-2.045-.977-3.11a77.913,77.913,0,0,1,2.411-10.482c1.321-4.291,2.6-7.719,3.4-10.115a17.114,17.114,0,0,0,1.093-3.771,22.321,22.321,0,0,0-1.653,3.584c-.977,2.34-2.417,5.717-3.885,10.013a67.526,67.526,0,0,0-2.263,8.377c-.091-.227-.159-.437-.253-.67-.434-1.076-.852-2.056-1.284-3l-.031-.057A89.819,89.819,0,0,1,52.9,80.585M11.643,88.107l1.139-.043c1.667-.074,4.39-.165,7.9-.17h.19c5.606,0,11.6.284,17.348.821a.066.066,0,0,1,.057.062.058.058,0,0,1-.06.06c-2.709.1-5.384.151-7.951.151-.98,0-1.959-.006-2.939-.023l-2.448-.048-2.445-.06c-1.562-.051-3.206-.122-4.89-.213-1.9-.105-3.825-.239-5.9-.412a.06.06,0,0,1-.057-.062.062.062,0,0,1,.06-.062m33.882,95.318.034-.011.026.006a.074.074,0,0,1,.034.048,8.6,8.6,0,0,0,.344,1.57.061.061,0,0,1-.037.077,57.134,57.134,0,0,1-18.768,3.007c-.264,0-.523.006-.781.006a50.534,50.534,0,0,1-13.006-1.539,24.652,24.652,0,0,1-4.623-1.766c-.173-.088-.318-.159-.432-.207a.059.059,0,0,1-.034-.04.063.063,0,0,1,.009-.054.156.156,0,0,0,.031-.071,5.568,5.568,0,0,0,.02-.923l-.006-.142a.063.063,0,0,1,.028-.057l.034-.009.031.009.213.128c.2.105.389.2.579.287.381.173.772.332,1.161.471.747.275,1.508.517,2.331.736.741.207,1.474.383,2.351.585a53.091,53.091,0,0,0,11.6,1.3c1.712,0,3.476-.088,5.237-.256a60.834,60.834,0,0,0,11.853-2.371,11.575,11.575,0,0,0,1.772-.781m-14.139-2.973.026-.006a.3.3,0,0,1,.06.008l.074.02,11.777,2.269c.028,0,.023.034.026.065s-.037.06-.062.068c-.676.236-1.406.452-2.229.665-.693.176-1.443.352-2.295.531-.772.156-1.531.31-2.323.446s-1.551.264-2.331.378-1.553.2-2.34.275c-1.568.153-3.149.236-4.708.247l-.386,0c-1.44,0-2.894-.062-4.319-.182-.77-.065-1.556-.151-2.343-.253-.755-.1-1.536-.222-2.317-.358s-1.528-.3-2.32-.471c-.855-.2-1.57-.369-2.286-.565-.761-.207-1.505-.443-2.2-.7a.058.058,0,0,1-.043-.06.064.064,0,0,1,.048-.057l12.066-2.275.028.006c.131.068.273.133.437.2a10.271,10.271,0,0,0,3.465.673c.1,0,.207.006.31.006a10.359,10.359,0,0,0,3.189-.474,4.2,4.2,0,0,0,1-.466M30.2,177.59c.224.73.412,1.315.713,2.127a.054.054,0,0,1-.006.051.056.056,0,0,1-.043.028,16.837,16.837,0,0,1-2.834.17c-.344,0-.713,0-1.1-.009-.9-.011-1.738-.077-2.471-.136-.224-.017-.443-.034-.645-.051a.052.052,0,0,1-.045-.028.055.055,0,0,1-.009-.051c.065-.173.125-.346.185-.517a.055.055,0,0,1,.054-.043l.014,0a7.8,7.8,0,0,0,1.406.128,6.821,6.821,0,0,0,1.815-.233,2.628,2.628,0,0,0,1.275-.608c-.017-.014-.088-.031-.341-.031l-.307,0c-.145,0-.312,0-.494,0H27.14a9.618,9.618,0,0,1-2.746-.417.065.065,0,0,1-.043-.077l.1-.312.082-.287a.063.063,0,0,1,.057-.045h0c.406.02.789.026,1.142.026,1.559,0,1.92-.156,1.928-.216a7.8,7.8,0,0,0-2.735-.931.063.063,0,0,1-.037-.028.051.051,0,0,1-.009-.048L25,175.67c.048-.176.1-.355.148-.534l.159-.6.133-.562a.066.066,0,0,1,.04-.043l.023-.006.031.011a3.368,3.368,0,0,0,1.644.525c.077.006.156.006.233.006a3.322,3.322,0,0,0,1.633-.395,1,1,0,0,0,.1-.068l.034-.009.023,0a.074.074,0,0,1,.04.043l.114.474.162.628c.219.818.446,1.636.693,2.451m-1.482-7.568c.062.86.131,1.7.256,2.567.017.142.043.29.074.486a.056.056,0,0,1-.028.048c-.009.014-.031.017-.051.017,0,0-.122-.014-.185-.02-.281-.026-.611-.04-.971-.06l-.551-.031c-.3-.011-.585-.037-.849-.06s-.505-.045-.718-.051a.064.064,0,0,1-.045-.023.072.072,0,0,1-.011-.048l.04-.261c.128-.86.193-1.7.253-2.564.207-3.237.176-6.4.071-10.164-.094-3.036-.261-6.248-.525-10.115-.128-1.88-.287-3.91-.477-6.233a3.6,3.6,0,0,1,1.778-2.175,2.256,2.256,0,0,1,.849-.187c.9,0,1.593.7,2.062,2.09-.21,2.422-.378,4.552-.511,6.509-.261,3.865-.429,7.08-.523,10.113-.111,3.76-.139,6.926.065,10.164m-1.457-33.388A33.836,33.836,0,0,1,9.647,131.38a20.4,20.4,0,0,1-4.325-5.021A21.961,21.961,0,0,1,2.6,119.274c-.88-4.331-.724-9.349.486-15.343.213-1.1.48-2.266.869-3.791.321-1.215.7-2.465,1.122-3.72a33.818,33.818,0,0,1,2.965-6.591.06.06,0,0,1,.051-.031H8.1c6.355.579,12.822.872,19.22.872s12.842-.293,19.194-.866l.006,0a.064.064,0,0,1,.054.034c.17.338.324.7.486,1.042.216.457.44.906.645,1.374q.371.852.736,1.769c.153.386.31.772.466,1.184.4,1.039.761,2.087,1.1,3.141.315.971.611,1.948.875,2.916.017.068.028.128.048.2a49.158,49.158,0,0,1,1.587,9.056c.082,1.108.128,2.2.114,3.274a30.463,30.463,0,0,1-.378,4.388c-.1.628-.216,1.247-.361,1.843a21.787,21.787,0,0,1-2.243,5.8c-.085.153-.2.315-.29.471a20.418,20.418,0,0,1-1.448,2.107c-.04.051-.091.1-.133.153a19.073,19.073,0,0,1-1.837,1.982c-.156.105-.318.193-.477.3-.713.466-1.428.912-2.15,1.321a32.147,32.147,0,0,1-16.048,4.478m15.449-3.55-.42.261-.031.009a.07.07,0,0,1-.054-.026.065.065,0,0,1,.017-.085c.338-.241.707-.511,1.082-.787.562-.415,1.161-.86,1.852-1.383a.044.044,0,0,1,.037-.014.055.055,0,0,1,.045.023.062.062,0,0,1-.006.085,22.38,22.38,0,0,1-1.874,1.474l-.06.037Zm17.172,46.334c-4.282.128-8.5-.437-11.686-3.6-2.854-2.826-2.746-6.117-2.684-9.99.011-.875.026-1.781.009-2.661-.207-9.743-.31-19.813-.105-30.014.554-.381,1.085-.775,1.573-1.187.219-.193.471-.446.718-.679-.074,3.394-.131,6.671-.159,9.783-.054,5.938-.017,11.283.068,15.772s.216,8.119.349,10.629a18.457,18.457,0,0,0,.375,3.888,19.421,19.421,0,0,0,.222-3.9c.034-2.51.08-6.137.136-10.624s.128-9.823.261-15.747c.1-3.626.2-7.494.307-11.5.017-.026.04-.045.057-.071a20.782,20.782,0,0,0,1.891-2.814,23.217,23.217,0,0,0,1.076-2.221c.017,2.692.04,5.45.06,8.179.108,13.662.233,29.085-.037,31.156l-.054.026-.062.559.176.185c.207.222.284.307,6.407.625.185.014.381.02.568.028a11.021,11.021,0,0,0-3.925,7.142,6.465,6.465,0,0,0,3.868,6.8c.19.088.392.156.591.23a9.222,9.222,0,0,0,1.093.341,9.222,9.222,0,0,1-1.093-.341m7.713-.17v0a11.115,11.115,0,0,1-3.964.8,11.057,11.057,0,0,0,3.964-.8m17.2,4.314v.006a17,17,0,0,1-4.751,2.26c-6.671,2.067-10.382-.3-11.419-3.118a4.442,4.442,0,0,1,.329-3.916,2.983,2.983,0,0,1,.23-.361,8.159,8.159,0,0,0,1.428-1.142,5.842,5.842,0,0,0,1.928,1.306,10.951,10.951,0,0,0,7.727-.02,18.156,18.156,0,0,0,3.152-1.4,18.462,18.462,0,0,0,5.492-4.723,10.31,10.31,0,0,1-.389,6.941,9.824,9.824,0,0,1-2.187,2.905,13.6,13.6,0,0,1-1.542,1.264m1.374.636a12.383,12.383,0,0,0,2.2-2.255,12.062,12.062,0,0,0,1.533-2.65,11.621,11.621,0,0,0,.721-2.34c.014-.219.031-.434.04-.653,0-.151.006-.3.017-.446v-.011a3.872,3.872,0,0,1,.963-1.295l.023-.014v0a5.214,5.214,0,0,0-.077.693,5.153,5.153,0,0,0,.542,2.678,6.544,6.544,0,0,0,.261.6,6.761,6.761,0,0,0,1.082,1.616,8.915,8.915,0,0,0,5.038,2.726,6.744,6.744,0,0,1-4.893,4.958,7.921,7.921,0,0,1-2.417.236c-.582-.031-.906-.082-.923-.023-.014.043.284.2.878.349a6.693,6.693,0,0,0,2.607.085,7.154,7.154,0,0,0,3.587-1.664,7.655,7.655,0,0,0,2.351-3.78h0c.3.023.6.043.917.04a7.772,7.772,0,0,1-3.371,4.924,7.29,7.29,0,0,1-2.5,1.039,8.179,8.179,0,0,1-2.383.119,8.586,8.586,0,0,1-3.311-1.037,8.021,8.021,0,0,0-1.136-.65c-.026.028.264.409.963.931A8.008,8.008,0,0,0,92.3,189.8a8.619,8.619,0,0,0,2.615.026,7.992,7.992,0,0,0,2.865-1.028,8.708,8.708,0,0,0,4.069-5.614l.009-.031-.571-.111h0l.014,0a13.644,13.644,0,0,0,1.746-.179c-2.255,9.7-16.749,10.362-16.877,1.335m10.317-3.442a7.98,7.98,0,0,1-1.88-1.329,5.776,5.776,0,0,1-1.187-1.585l-.02-.028c-.122-.324-.241-.645-.346-.971a4.94,4.94,0,0,1,1.2-4.353s1.516.25,1.644.267c.2.02.412.006.613.014a11.526,11.526,0,0,0,2.513-.153,13.968,13.968,0,0,0,8.173-4.768c8.866,1.187,5.807,9.738-.625,12.575a15.292,15.292,0,0,1-1.786.67c-.2.068-.415.131-.628.187a10.666,10.666,0,0,1-7.667-.525m8.457,10.1c-1.886-2.36-1.125-5.927.3-8.508a13.338,13.338,0,0,0,7.491-5.183c.667,2.391,3.181,4.515,6.256,5.1l.011,0h0l-.085.006v.031a6.472,6.472,0,0,1-.6,3.334,8.6,8.6,0,0,1-1.954,2.587,11.306,11.306,0,0,1-4.862,2.627,6.879,6.879,0,0,1-3.689-.187c-.843-.29-1.252-.6-1.292-.534a2.826,2.826,0,0,0,1.173.841,6.756,6.756,0,0,0,3.942.534,11.679,11.679,0,0,0,5.393-2.567,9.568,9.568,0,0,0,2.289-2.823,7.622,7.622,0,0,0,.829-3.7,8.743,8.743,0,0,0,1.585-.045c-2.456,9.337-13.049,13.168-16.783,8.485m20.452-2.36c-4.237-1.795-2.138-5.543-2-6.4.011-.028.02-.057.034-.085l.006,0c3.777-1.153,7.244-4.606,8.554-10.11a6.845,6.845,0,0,0,8.622,2.039c1.974,10.212-8.911,17.206-15.21,14.551m23.5-24.755c2.2-.327,4.331,2.045,5.089,3.9,1.11,2.706.843,6.018.136,8.792-.761,2.982-2.553,5.907-5.577,7a5.7,5.7,0,0,1-4.45-.187,4.29,4.29,0,0,1-1.42-1.113l0-.006c-.179-.528-.491-1.045-.622-1.568a7.179,7.179,0,0,1-.17-1.221,14.26,14.26,0,0,0,.2-5,4.541,4.541,0,0,1,.153-.63,10.83,10.83,0,0,1,.491-1.264,13.492,13.492,0,0,0,2.837-4.152,37.012,37.012,0,0,0,1.346-3.862,6.6,6.6,0,0,1,1.988-.687m-3.692-6.818c2.522,4.842-.7,13.31-4.927,15.67-9.386,5.231-13.313-16.749-4.4-19.811,2.792-.96,6.091.293,8.04,2.343a7.688,7.688,0,0,1,1.292,1.8m1.931-4.6-.026.009-.017,0a23.259,23.259,0,0,0,4.01-1.48.093.093,0,0,0-.068-.173,33.991,33.991,0,0,1-4.967.983c-1.1.131-2.3.043-3.4.261a5.168,5.168,0,0,0-1.86-.619l-.028,0a64.058,64.058,0,0,0,11.03-3.073,11.9,11.9,0,0,1,2.843.86h0c-.772.409-1.252.7-1.207.826.048.151.88.011,2.056-.4.2.111.389.227.574.344a45.123,45.123,0,0,1-8.943,2.465m-6.648-2.065a21.779,21.779,0,0,1,8.457-2.221,63.544,63.544,0,0,1-7.426,2.036c-.329.068-.676.131-1.031.185m15.662,4.552h.006a13.479,13.479,0,0,1,3.6-.636c.082.213.153.423.216.633a12.888,12.888,0,0,0-3.879.023.207.207,0,0,0,.054-.02m.6,8.079-.009.006a4.656,4.656,0,0,1-3.359-.057A3.255,3.255,0,0,1,151.5,158.8a4.9,4.9,0,0,1,2.275-2.916,18.8,18.8,0,0,1,6.361-.491c.665,3.209-.787,5.609-3.385,7.494m4.745-6.239a7.991,7.991,0,0,1-1.227,3.286,7.342,7.342,0,0,0,.105-5.64,13.016,13.016,0,0,0-1.042-2.269,10.658,10.658,0,0,0-7.472-4.6c-.312-.054-.755-.111-.863-.119a20.3,20.3,0,0,0-12.9,3.3,18.2,18.2,0,0,0-2.36.5l-.04-.077a16.256,16.256,0,0,0,2.638-1.863c10.152-5.458,16.474-3.717,20.1-.256a10.6,10.6,0,0,1,2.882,5.046,7.1,7.1,0,0,1,.176,2.7m1-1.156a9.113,9.113,0,0,0-.085-1.068,8.334,8.334,0,0,1,6.407,8.877c-.077-.02-.156-.037-.227-.054a9.247,9.247,0,0,0-6.094-7.756m1.448,13.594c-2.681.176-2.777-3.058-.872-4.441a7.949,7.949,0,0,1,4.975.329,7.914,7.914,0,0,1-.4,1.542,5.249,5.249,0,0,1-3.7,2.57m8.383,5.086a7.93,7.93,0,0,0-.369-6.432,7.792,7.792,0,0,0-7.347-3.851,6.887,6.887,0,0,1,8.443,8.437,5.7,5.7,0,0,1-.727,1.846" transform="translate(0.029 0.547)" fill="#ca9e67"/>
      <path id="Tracé_47" data-name="Tracé 47" d="M53.549,46.317a3.619,3.619,0,0,1-3.362-.466,3.58,3.58,0,0,1-1.281-2.028,3.27,3.27,0,0,1-.091-.775c0-.19.009-.3.009-.3a2.024,2.024,0,0,0-.105.281,2.771,2.771,0,0,0-.125.824,3.165,3.165,0,0,0,1.218,2.493,3.1,3.1,0,0,0,3.737-.034" transform="translate(89.402 78.658)" fill="#ca9e67"/>
      <path id="Tracé_48" data-name="Tracé 48" d="M42.714,44.278a2.9,2.9,0,0,0,.028-.824,2.341,2.341,0,0,0-.045-.3s-.02.105-.051.293a4.236,4.236,0,0,1-.23.744,3.736,3.736,0,0,1-4.975,1.982,3.214,3.214,0,0,0,5.274-1.9" transform="translate(68.882 79.4)" fill="#ca9e67"/>
      <path id="Tracé_49" data-name="Tracé 49" d="M56.243,52.591a14.6,14.6,0,0,1-4.663,3.181,6.924,6.924,0,0,1-2.962.452,5.642,5.642,0,0,1-2.331-.733c-1.23-.718-1.641-1.6-1.775-1.522-.051.023-.023.27.179.667a4.216,4.216,0,0,0,1.238,1.4,5.68,5.68,0,0,0,2.6,1.028,7.033,7.033,0,0,0,3.377-.434,10.2,10.2,0,0,0,2.894-1.7,15.548,15.548,0,0,0,1.917-1.888C57.7,51.884,58.2,51.1,58.1,51.009s-.775.559-1.857,1.582" transform="translate(81.852 93.834)" fill="#ca9e67"/>
      <path id="Tracé_50" data-name="Tracé 50" d="M46.2,54.086a5.092,5.092,0,0,0,1.423.278,6.5,6.5,0,0,0,1.772-.17,6.583,6.583,0,0,0,1.65-.679,5.289,5.289,0,0,0,1.13-.909c.559-.613.727-1.11.619-1.181s-.449.27-1.054.7a8.19,8.19,0,0,1-1.1.653,8.907,8.907,0,0,1-1.463.528,8.2,8.2,0,0,1-1.542.216,8.028,8.028,0,0,1-1.281-.062c-.733-.1-1.193-.233-1.261-.111-.051.1.327.46,1.108.741" transform="translate(82.96 94.596)" fill="#ca9e67"/>
      <path id="Tracé_51" data-name="Tracé 51" d="M34.191,63.658a5.965,5.965,0,0,0,2.777.545c.037,0,.077-.011.114-.011a11.06,11.06,0,0,0,2.354-.341c.3-.074.594-.122.892-.224A11.192,11.192,0,0,0,45.4,60.211C46.416,59,46.726,58.047,46.621,58c-.119-.068-.622.741-1.7,1.772a12.785,12.785,0,0,1-4.882,2.99c-.187.06-.369.091-.554.145a11.89,11.89,0,0,1-2.289.423c-.08.006-.17.026-.253.031a6.078,6.078,0,0,1-2.485-.293c-.04-.017-.062-.04-.1-.057a2.766,2.766,0,0,1-.258-.139,3.7,3.7,0,0,1-1.014-.738c-.267-.3-.386-.514-.452-.488s-.057.275.156.69a3.184,3.184,0,0,0,1.4,1.326" transform="translate(59.98 106.694)" fill="#ca9e67"/>
      <path id="Tracé_52" data-name="Tracé 52" d="M34.634,61.258a6.862,6.862,0,0,0,1.352.182,8,8,0,0,0,2.192-.193l.023-.006A7.862,7.862,0,0,0,41.367,59.7c.7-.591.988-1.085.895-1.173s-.534.224-1.269.639a11.834,11.834,0,0,1-2.783,1.119c-.082.023-.159.048-.239.068a11.361,11.361,0,0,1-1.931.264,12.408,12.408,0,0,1-1.306,0c-.829-.045-1.355-.128-1.417-.006l-.009,0,.006.011c-.014.114.452.415,1.321.636" transform="translate(61.28 107.649)" fill="#ca9e67"/>
      <path id="Tracé_53" data-name="Tracé 53" d="M47.219,62.467c-.1-.082-.682.574-1.795,1.355a10.327,10.327,0,0,1-9.993,1.167c-.548-.216-.974-.426-1.309-.594-.434-.219-.707-.361-.758-.3-.037.043.114.258.44.551a7.315,7.315,0,0,0,1.352.929,9.457,9.457,0,0,0,10.675-1.25c1.085-.974,1.491-1.792,1.389-1.863" transform="translate(61.373 114.915)" fill="#ca9e67"/>
      <path id="Tracé_54" data-name="Tracé 54" d="M35.248,64.4a7.471,7.471,0,0,0,6.455-.744c.713-.477,1.037-.912.954-1.014-.148-.193-1.823.963-4.2,1.213-2.38.3-4.263-.46-4.37-.213-.051.105.363.452,1.164.758" transform="translate(62.7 115.21)" fill="#ca9e67"/>
      <path id="Tracé_55" data-name="Tracé 55" d="M32.244,64.407a7.931,7.931,0,0,1-5.308-.65c-1.25-.662-1.772-1.44-1.9-1.346-.045.034.023.264.261.622a4.73,4.73,0,0,0,1.3,1.281,7.684,7.684,0,0,0,5.847,1,12.4,12.4,0,0,0,5.222-2.746c1.139-.983,1.712-1.707,1.624-1.806a9.415,9.415,0,0,0-2.022,1.286,14.681,14.681,0,0,1-5.024,2.363" transform="translate(46.033 111.767)" fill="#ca9e67"/>
      <path id="Tracé_56" data-name="Tracé 56" d="M26.964,62.917a6.655,6.655,0,0,0,1.5.378,7.543,7.543,0,0,0,3.749-.483,6.4,6.4,0,0,0,1.357-.744c.713-.523,1.022-.988.931-1.082s-.528.179-1.264.52a9.842,9.842,0,0,1-6.1.784c-.789-.145-1.292-.292-1.36-.168-.051.1.363.471,1.181.8" transform="translate(47.428 112.169)" fill="#ca9e67"/>
      <path id="Tracé_57" data-name="Tracé 57" d="M28.567,64.749a6.981,6.981,0,0,1-7.239-1.991c-.71-.75-1.031-1.335-1.161-1.278-.105.037.009.747.65,1.69a6.5,6.5,0,0,0,7.974,2.189c1.034-.48,1.5-1.031,1.423-1.125s-.656.233-1.647.514" transform="translate(37.041 113.106)" fill="#ca9e67"/>
      <path id="Tracé_58" data-name="Tracé 58" d="M21.477,62.622a4.966,4.966,0,0,0,2.289,1.042,5.017,5.017,0,0,0,2.508-.165c.616-.219.92-.494.869-.619-.094-.222-1.514.213-3.215-.122-1.707-.284-2.863-1.2-3.047-1.008-.085.085.1.452.6.872" transform="translate(38.38 113.561)" fill="#ca9e67"/>
      <path id="Tracé_59" data-name="Tracé 59" d="M36.393,54.288c-.057.082.6.693,1.934,1.244a10.069,10.069,0,0,0,10.544-1.866c1.062-.974,1.471-1.778,1.38-1.84-.111-.091-.69.548-1.789,1.338a11.791,11.791,0,0,1-4.757,2.048,11.651,11.651,0,0,1-5.168-.293c-1.3-.366-2.065-.761-2.144-.63" transform="translate(66.95 95.334)" fill="#ca9e67"/>
      <path id="Tracé_60" data-name="Tracé 60" d="M38.331,53.807A6.7,6.7,0,0,0,41.2,54a6.823,6.823,0,0,0,2.7-.988c.619-.412.9-.781.824-.889-.145-.2-1.627.693-3.652.966-2.025.315-3.689-.139-3.78.116-.04.111.338.383,1.045.6" transform="translate(68.594 95.841)" fill="#ca9e67"/>
      <path id="Tracé_61" data-name="Tracé 61" d="M43.757,65.721a7.231,7.231,0,0,0,2.99.554,7.341,7.341,0,0,0,4.938-2.212c.971-1.028,1.221-1.888,1.113-1.937-.114-.065-.562.645-1.556,1.46a7.326,7.326,0,0,1-9.161.318c-1.048-.75-1.542-1.423-1.661-1.343-.1.048.216.889,1.25,1.849a7.2,7.2,0,0,0,2.087,1.312" transform="translate(74.334 114.293)" fill="#ca9e67"/>
      <path id="Tracé_62" data-name="Tracé 62" d="M44.517,64.394a4.591,4.591,0,0,0,2.823-.721c.628-.415.875-.821.8-.909-.091-.105-.471.105-1.09.332a6.182,6.182,0,0,1-2.468.383,5.953,5.953,0,0,1-2.391-.713c-.582-.3-.931-.562-1.042-.46-.082.065.108.5.673,1a4.6,4.6,0,0,0,2.7,1.09" transform="translate(75.661 114.592)" fill="#ca9e67"/>
      <path id="Tracé_63" data-name="Tracé 63" d="M56.322,60.615A7.238,7.238,0,0,1,55,62.4a5.673,5.673,0,0,1-2.269,1.352,4.735,4.735,0,0,1-2.59.088,4.609,4.609,0,0,1-1.88-1.031c-.929-.855-1.13-1.693-1.275-1.653-.054.014-.082.236.009.625a3.732,3.732,0,0,0,.8,1.48,4.726,4.726,0,0,0,2.11,1.392,5.161,5.161,0,0,0,3.1-.023,5.986,5.986,0,0,0,2.607-1.639,6.632,6.632,0,0,0,1.309-2.1c.494-1.323.423-2.2.3-2.218s-.3.807-.9,1.948" transform="translate(86.345 107.937)" fill="#ca9e67"/>
      <path id="Tracé_64" data-name="Tracé 64" d="M48.116,60.846a3.21,3.21,0,0,0,1.806.31,3.245,3.245,0,0,0,1.7-.679c.369-.307.491-.591.4-.69-.165-.173-1.037.349-2.2.457-1.164.142-2.11-.2-2.246.023-.062.105.119.355.54.579" transform="translate(87.51 109.933)" fill="#ca9e67"/>
      <path id="Tracé_65" data-name="Tracé 65" d="M37.516,65.842a16.641,16.641,0,0,1-4.751,1.752,12.223,12.223,0,0,1-6.1-.114,4.634,4.634,0,0,1-1.57-.917c-.321-.3-.477-.5-.54-.469s0,.3.27.7a3.955,3.955,0,0,0,1.585,1.281,7.766,7.766,0,0,0,2.922.679,14.4,14.4,0,0,0,9.559-2.973l.04-.034c1.292-1.022,1.866-1.886,1.781-1.959a19.51,19.51,0,0,0-2.2,1.465c-.3.193-.639.386-.994.585" transform="translate(45.14 117.349)" fill="#ca9e67"/>
      <path id="Tracé_66" data-name="Tracé 66" d="M26.569,66.462A8.127,8.127,0,0,0,33.5,65.3c.045-.031.071-.06.108-.088.662-.514.968-.948.883-1.039s-.554.2-1.326.571a12.2,12.2,0,0,1-1.13.471,11.054,11.054,0,0,1-5.325.608c-.852-.1-1.392-.224-1.443-.094-.045.105.42.452,1.306.73" transform="translate(46.473 118.041)" fill="#ca9e67"/>
      <path id="Tracé_67" data-name="Tracé 67" d="M39.669,70.283a7.2,7.2,0,0,0,7.051-3.43c.531-.914.625-1.573.5-1.616s-.417.5-1.037,1.247a8.85,8.85,0,0,1-2.888,2.3,8.758,8.758,0,0,1-3.592.846c-.968.023-1.585-.071-1.622.062-.037.111.54.437,1.585.588" transform="translate(70.064 120.019)" fill="#ca9e67"/>
      <path id="Tracé_68" data-name="Tracé 68" d="M56.773,62.332c-.136.006-.085,1.059-.48,2.655a10.674,10.674,0,0,1-8.738,8.145c-1.616.281-2.664.159-2.684.31a4.752,4.752,0,0,0,2.766.335,10.2,10.2,0,0,0,9.295-8.664c.247-1.735-.045-2.8-.159-2.78" transform="translate(82.554 114.68)" fill="#ca9e67"/>
      <path id="Tracé_69" data-name="Tracé 69" d="M47.231,70.408a6.924,6.924,0,0,0,1.758-.611,8.366,8.366,0,0,0,1.869-1.318,8.534,8.534,0,0,0,1.42-1.789,6.77,6.77,0,0,0,.71-1.721c.261-1.034.165-1.7.045-1.7s-.27.6-.662,1.494a9.438,9.438,0,0,1-.815,1.482,10.5,10.5,0,0,1-1.332,1.57,10.327,10.327,0,0,1-1.641,1.238,9.463,9.463,0,0,1-1.531.727c-.909.338-1.531.446-1.522.588,0,.111.656.241,1.7.04" transform="translate(83.766 116.404)" fill="#ca9e67"/>
      <path id="Tracé_70" data-name="Tracé 70" d="M52.971,69.717c-1.247,0-1.948-.474-2.033-.338-.031.043.1.222.423.44a3.784,3.784,0,0,0,1.568.548,5.047,5.047,0,0,0,2.462-.332,6.291,6.291,0,0,0,2.425-1.82A8.917,8.917,0,0,0,59.3,65.636a13.477,13.477,0,0,0,.636-2.3c.241-1.323.273-2.15.153-2.178s-.389.764-.784,2.016a12.942,12.942,0,0,1-2.192,4.447,6,6,0,0,1-2.056,1.63,5.034,5.034,0,0,1-2.084.463" transform="translate(93.708 112.523)" fill="#ca9e67"/>
      <path id="Tracé_71" data-name="Tracé 71" d="M51.092,65.23c-.043.091.267.386.917.562a3.5,3.5,0,0,0,1.17.1,4.343,4.343,0,0,0,1.4-.366,4.519,4.519,0,0,0,1.19-.818,3.575,3.575,0,0,0,.693-.951c.29-.608.267-1.039.159-1.068-.131-.04-.329.287-.707.71a5.241,5.241,0,0,1-1.721,1.292,5.183,5.183,0,0,1-2.1.46c-.562.006-.94-.057-1,.082" transform="translate(93.993 115.324)" fill="#ca9e67"/>
      <path id="Tracé_72" data-name="Tracé 72" d="M33.605,49.388c.389-.071.906-.173,1.508-.239a10.43,10.43,0,0,1,1.613-.071c.151,0,.29.017.432.026a13.055,13.055,0,0,1,2.13.338c.764.182,1.261.338,1.338.2.048-.094-.29-.432-.977-.781-.108-.057-.241-.111-.375-.165a7.112,7.112,0,0,0-2.13-.505c-.128-.009-.256-.028-.389-.031a7.486,7.486,0,0,0-1.661.142,6.219,6.219,0,0,0-1.272.386c-.088.04-.156.077-.236.116-.537.267-.824.523-.778.619s.338.045.8-.037" transform="translate(60.35 88.605)" fill="#ca9e67"/>
      <path id="Tracé_73" data-name="Tracé 73" d="M48.243,47.28a11.739,11.739,0,0,0-2.408-1.13,11.988,11.988,0,0,0-2.61-.52,9.8,9.8,0,0,0-2.17.071c-1.221.182-1.914.525-1.883.63.04.139.772.028,1.934.014a13.735,13.735,0,0,1,4.441.679,14.542,14.542,0,0,1,2.266.985,14.134,14.134,0,0,1,1.7,1.1c.926.7,1.451,1.227,1.57,1.127.08-.06-.273-.747-1.144-1.622a9.894,9.894,0,0,0-1.7-1.34" transform="translate(72.068 83.9)" fill="#ca9e67"/>
    </g>
  </g>
</svg>
