<svg xmlns="http://www.w3.org/2000/svg" xmlns:xlink="http://www.w3.org/1999/xlink" width="175.486" height="175.486" viewBox="0 0 175.486 175.486">
  <defs>
    <clipPath id="clip-path">
      <rect id="Rectangle_55" data-name="Rectangle 55" width="175.486" height="175.486" fill="none"/>
    </clipPath>
    <clipPath id="clip-path-2">
      <rect id="Rectangle_22" data-name="Rectangle 22" width="55.407" height="55.407" fill="none"/>
    </clipPath>
  </defs>
  <g id="Groupe_48" data-name="Groupe 48" transform="translate(-1015.148 -503)">
    <g id="Groupe_46" data-name="Groupe 46" transform="translate(1015.148 503)">
      <g id="Groupe_45" data-name="Groupe 45" clip-path="url(#clip-path)">
        <path id="Tracé_810" data-name="Tracé 810" d="M175.486,87.743A87.743,87.743,0,1,1,87.743,0a87.743,87.743,0,0,1,87.743,87.743" fill="#213526"/>
        <path id="Tracé_811" data-name="Tracé 811" d="M290.241,37.561l2.779-.34q.615-.075,1.279-.113a8.579,8.579,0,0,1,1.306.023,5.445,5.445,0,0,1,1.238.263,3.233,3.233,0,0,1,1.07.606,3.419,3.419,0,0,1,.807,1.048,4.717,4.717,0,0,1,.447,1.587l.108.881a4.108,4.108,0,0,1-.045,1.352A3.963,3.963,0,0,1,298.814,44a3.338,3.338,0,0,1-.681.859,2.606,2.606,0,0,1-.841.517l.01.084a2.97,2.97,0,0,1,2.188,1.03,4.742,4.742,0,0,1,1.008,2.563l.113.923a6.063,6.063,0,0,1-.008,1.74,3.869,3.869,0,0,1-.458,1.316,3.377,3.377,0,0,1-.83.957,4.883,4.883,0,0,1-1.125.66,7.632,7.632,0,0,1-1.348.423q-.724.159-1.5.253l-2.886.353Zm4.174,7.361a3.61,3.61,0,0,0,.991-.256,2.054,2.054,0,0,0,.729-.509,1.838,1.838,0,0,0,.409-.793,3.03,3.03,0,0,0,.042-1.109l-.091-.743a4.521,4.521,0,0,0-.265-1.109,2.055,2.055,0,0,0-.52-.776,1.832,1.832,0,0,0-.827-.421,3.341,3.341,0,0,0-1.173-.034l-.53.065.7,5.75Zm1.289,8.425a3.326,3.326,0,0,0,.985-.266,1.944,1.944,0,0,0,1.125-1.37,3.161,3.161,0,0,0,.04-1.125l-.172-1.411a4.581,4.581,0,0,0-.266-1.114,2.008,2.008,0,0,0-.52-.776,1.86,1.86,0,0,0-.821-.416,3.311,3.311,0,0,0-1.167-.035l-.785.1.8,6.514Z" transform="translate(-216.156 -27.625)" fill="#fff"/>
        <rect id="Rectangle_46" data-name="Rectangle 46" width="18.256" height="2.768" transform="translate(87.124 27.097) rotate(-89.07)" fill="#fff"/>
        <path id="Tracé_812" data-name="Tracé 812" d="M362.716,50.963a7.83,7.83,0,0,1,.221-1.064q.139-.482.357-1.035l2.127.3-.124.878a8.3,8.3,0,0,0-.093,1.3,3.043,3.043,0,0,0,.162.989,1.431,1.431,0,0,0,.468.66,1.7,1.7,0,0,0,.814.315,1.6,1.6,0,0,0,1.256-.259,1.756,1.756,0,0,0,.59-1.2,4.9,4.9,0,0,0,.052-.786,3.276,3.276,0,0,0-.1-.732,4.832,4.832,0,0,0-.282-.79,9.739,9.739,0,0,0-.5-.951l-2.376-3.8a8.615,8.615,0,0,1-.9-2.129,5.488,5.488,0,0,1-.114-2.17,4.74,4.74,0,0,1,.514-1.611,3.723,3.723,0,0,1,.993-1.182,3.65,3.65,0,0,1,1.427-.662,4.892,4.892,0,0,1,1.8-.052,5.184,5.184,0,0,1,1.947.621,3.45,3.45,0,0,1,1.149,1.07,3.259,3.259,0,0,1,.5,1.328,5,5,0,0,1,0,1.4,6.036,6.036,0,0,1-.242,1.061q-.16.479-.36,1.056l-2.117-.3.121-.857a4.8,4.8,0,0,0-.1-2.265,1.426,1.426,0,0,0-1.235-.957,1.479,1.479,0,0,0-1.214.265,1.681,1.681,0,0,0-.543,1.094,3.715,3.715,0,0,0-.039.7,2.737,2.737,0,0,0,.089.59,3.338,3.338,0,0,0,.2.541q.124.266.288.559l2.64,4.3a11.128,11.128,0,0,1,1.026,2.364,5.4,5.4,0,0,1,.153,2.272,4.785,4.785,0,0,1-.547,1.693,3.658,3.658,0,0,1-1.048,1.19,3.865,3.865,0,0,1-1.472.639,5.223,5.223,0,0,1-1.83.038,5.518,5.518,0,0,1-1.991-.616,3.443,3.443,0,0,1-1.168-1.05,3.123,3.123,0,0,1-.5-1.323,5.158,5.158,0,0,1,0-1.435" transform="translate(-270.093 -27.504)" fill="#fff"/>
        <path id="Tracé_813" data-name="Tracé 813" d="M412.685,46.131l-2.811-.858.636-2.085,8.26,2.52-.636,2.085-2.8-.855-4.691,15.375-2.648-.808Z" transform="translate(-303.852 -32.164)" fill="#fff"/>
        <path id="Tracé_814" data-name="Tracé 814" d="M442.838,59.6l2.692,1.332q.459.227.992.538a6.421,6.421,0,0,1,1.009.732,4.914,4.914,0,0,1,.843.971,3.49,3.49,0,0,1,.507,1.265,4.542,4.542,0,0,1-.005,1.613,7.263,7.263,0,0,1-.7,2.011l-.2.412a8.217,8.217,0,0,1-2.041,2.776,3.763,3.763,0,0,1-2.417.909L442.905,80l-2.625-1.3.854-7.2-.929-.46-3.028,6.122-2.433-1.2Zm-1.373,9.838a4.093,4.093,0,0,0,1.173.4,1.683,1.683,0,0,0,.967-.124,2.382,2.382,0,0,0,.848-.7,7.277,7.277,0,0,0,.809-1.323l.64-1.293a5.073,5.073,0,0,0,.425-1.149,1.9,1.9,0,0,0-.013-.949,1.824,1.824,0,0,0-.505-.8,4.218,4.218,0,0,0-1.059-.7l-.374-.185-3.284,6.639Z" transform="translate(-323.774 -44.39)" fill="#fff"/>
        <path id="Tracé_815" data-name="Tracé 815" d="M479.093,106.682a7.111,7.111,0,0,1-.724-.621,3.7,3.7,0,0,1-.642-.84,3.718,3.718,0,0,1-.417-2.448,6.466,6.466,0,0,1,.528-1.677,11.293,11.293,0,0,1,1.229-2.022l3.843-5.2a10.911,10.911,0,0,1,1.577-1.765,6.351,6.351,0,0,1,1.446-.978,3.691,3.691,0,0,1,1.3-.363,3.627,3.627,0,0,1,1.141.092,3.971,3.971,0,0,1,.974.381,7.335,7.335,0,0,1,.786.5,7.737,7.737,0,0,1,.691.584,3.927,3.927,0,0,1,.647.8,3.61,3.61,0,0,1,.429,1.048,3.568,3.568,0,0,1,.042,1.346,6.36,6.36,0,0,1-.516,1.679,11.184,11.184,0,0,1-1.243,2.052l-3.843,5.2a10.578,10.578,0,0,1-1.568,1.745,6.7,6.7,0,0,1-1.457.983,3.777,3.777,0,0,1-1.323.378,4.2,4.2,0,0,1-1.164-.062,3.673,3.673,0,0,1-.976-.343,5.924,5.924,0,0,1-.758-.467m1.239-1.676a1.694,1.694,0,0,0,.654.31,1.118,1.118,0,0,0,.69-.088,2.827,2.827,0,0,0,.777-.549,8.142,8.142,0,0,0,.923-1.079l4.935-6.679a8.828,8.828,0,0,0,.788-1.238,3.048,3.048,0,0,0,.321-.939,1.172,1.172,0,0,0-.1-.707,1.592,1.592,0,0,0-.483-.543,1.657,1.657,0,0,0-.673-.311,1.191,1.191,0,0,0-.714.1,2.94,2.94,0,0,0-.807.58,8.8,8.8,0,0,0-.952,1.117l-4.935,6.679a8.182,8.182,0,0,0-.76,1.2,2.729,2.729,0,0,0-.292.907,1.144,1.144,0,0,0,.127.692,1.761,1.761,0,0,0,.5.544" transform="translate(-355.436 -67.591)" fill="#fff"/>
        <path id="Tracé_816" data-name="Tracé 816" d="M521.451,119.4l-2.053-2.1,1.56-1.523,6.033,6.18-1.56,1.523-2.046-2.1-11.5,11.23-1.934-1.981Z" transform="translate(-379.783 -86.222)" fill="#fff"/>
        <rect id="Rectangle_47" data-name="Rectangle 47" width="2.17" height="7.963" transform="matrix(0.858, -0.514, 0.514, 0.858, 144.027, 49.455)" fill="#fff"/>
        <path id="Tracé_817" data-name="Tracé 817" d="M570.064,251.225a6.716,6.716,0,0,1-.205-.9,3.625,3.625,0,0,1,.317-2.133,3.789,3.789,0,0,1,.8-1.085,6.631,6.631,0,0,1,1.425-1.02,11.6,11.6,0,0,1,2.192-.892l6.181-1.9a11.207,11.207,0,0,1,2.316-.488,6.528,6.528,0,0,1,1.74.058,3.605,3.605,0,0,1,1.255.464,3.647,3.647,0,0,1,.857.732,3.759,3.759,0,0,1,.548.855,6.894,6.894,0,0,1,.327.844,4.762,4.762,0,0,1,.245,1.831,3.007,3.007,0,0,1-.452,1.369,3.152,3.152,0,0,1-.995.966,5.817,5.817,0,0,1-1.375.618,9.384,9.384,0,0,1-1.054.263q-.492.09-1.1.153l-.66-2.145.889-.273a5.849,5.849,0,0,0,2.058-.979,1.055,1.055,0,0,0,.429-1.15,1.442,1.442,0,0,0-.341-.6,1.171,1.171,0,0,0-.627-.311,3.157,3.157,0,0,0-.991,0,8.81,8.81,0,0,0-1.429.333l-7.969,2.45a10.415,10.415,0,0,0-1.336.494,2.789,2.789,0,0,0-.791.517,1.085,1.085,0,0,0-.325.6,1.6,1.6,0,0,0,.071.722,1.134,1.134,0,0,0,.268.454,1.188,1.188,0,0,0,.495.3,2.118,2.118,0,0,0,.721.091,3.544,3.544,0,0,0,.937-.171l1.706-.525.745,2.421-1.615.5a4.55,4.55,0,0,1-3.4-.006,3.844,3.844,0,0,1-1.86-2.447" transform="translate(-424.369 -180.804)" fill="#fff"/>
        <path id="Tracé_818" data-name="Tracé 818" d="M578.494,294.667a7.173,7.173,0,0,1-.054-.952,3.7,3.7,0,0,1,.16-1.045,3.722,3.722,0,0,1,1.475-2,6.443,6.443,0,0,1,1.574-.782,11.283,11.283,0,0,1,2.31-.517l6.412-.836a10.927,10.927,0,0,1,2.365-.087,6.372,6.372,0,0,1,1.708.365,3.693,3.693,0,0,1,1.161.684,3.639,3.639,0,0,1,.725.886,4,4,0,0,1,.4.966,7.371,7.371,0,0,1,.184.914,7.749,7.749,0,0,1,.058.9,3.939,3.939,0,0,1-.126,1.019,3.621,3.621,0,0,1-.458,1.035,3.567,3.567,0,0,1-.942.963,6.35,6.35,0,0,1-1.567.792,11.219,11.219,0,0,1-2.34.526l-6.412.836a10.558,10.558,0,0,1-2.345.08,6.694,6.694,0,0,1-1.719-.369,3.776,3.776,0,0,1-1.19-.691,4.164,4.164,0,0,1-.762-.881,3.662,3.662,0,0,1-.43-.941,5.923,5.923,0,0,1-.189-.87m2.067-.27a1.7,1.7,0,0,0,.23.687,1.122,1.122,0,0,0,.542.436,2.822,2.822,0,0,0,.934.18,8.2,8.2,0,0,0,1.417-.082l8.235-1.074a8.834,8.834,0,0,0,1.439-.29,3.054,3.054,0,0,0,.9-.419,1.17,1.17,0,0,0,.438-.564,1.6,1.6,0,0,0,.057-.724,1.657,1.657,0,0,0-.242-.7,1.192,1.192,0,0,0-.57-.443,2.935,2.935,0,0,0-.977-.18,8.8,8.8,0,0,0-1.465.089l-8.235,1.074a8.135,8.135,0,0,0-1.391.284,2.737,2.737,0,0,0-.856.419,1.142,1.142,0,0,0-.41.571,1.759,1.759,0,0,0-.044.739" transform="translate(-430.791 -214.799)" fill="#fff"/>
        <path id="Tracé_819" data-name="Tracé 819" d="M598.736,339.744l-.117,2.241-12.429,3.786,0,.064q.428-.01.954-.036t1.2-.034q.669-.008,1.514,0t1.9.066l6.65.345-.128,2.476-18.231-.946.117-2.263,12.108-3.781,0-.086q-.482.007-1.045.031t-1.323.028q-.76,0-1.77-.017t-2.4-.092l-5.358-.278.127-2.455Z" transform="translate(-431.985 -252.319)" fill="#fff"/>
        <path id="Tracé_820" data-name="Tracé 820" d="M592.99,392.454l-.64,2.759L577.809,393.9l-.026.114,13.631,5.234L590.777,402l-17.033-7.362.714-3.082Z" transform="translate(-427.294 -291.612)" fill="#fff"/>
        <rect id="Rectangle_48" data-name="Rectangle 48" width="2.768" height="18.256" transform="translate(144.076 110.244) rotate(-69.528)" fill="#fff"/>
        <path id="Tracé_821" data-name="Tracé 821" d="M570.134,454.74l-1.324,2.5-13.723-4.984-.055.1,11.839,8.546-1.319,2.494-14.584-11.473,1.479-2.8Z" transform="translate(-410.332 -334.492)" fill="#fff"/>
        <rect id="Rectangle_49" data-name="Rectangle 49" width="2.768" height="18.256" transform="translate(136.499 123.812) rotate(-54.76)" fill="#fff"/>
        <path id="Tracé_822" data-name="Tracé 822" d="M523.249,505.1l-2.157,2.343-15.719-9.879,1.9-2.06,2.747,1.845,2.259-2.453-2.081-2.569,1.9-2.068Zm-11.482-6.575,7.561,5.217.079-.087-5.816-7.112Z" transform="translate(-376.375 -365.12)" fill="#fff"/>
        <path id="Tracé_823" data-name="Tracé 823" d="M497.411,536.443l-2.154,1.74-10.1-12.5-2.935,2.371-1.37-1.7,5.088-4.111Z" transform="translate(-358.113 -388.939)" fill="#fff"/>
        <rect id="Rectangle_50" data-name="Rectangle 50" width="2.768" height="18.255" transform="translate(119.051 139.691) rotate(-32.437)" fill="#fff"/>
        <path id="Tracé_824" data-name="Tracé 824" d="M450.291,570.485l2.654-1.264.938,1.969-7.8,3.714-.938-1.968,2.644-1.26-6.914-14.512,2.5-1.191Z" transform="translate(-328.343 -414.059)" fill="#fff"/>
        <path id="Tracé_825" data-name="Tracé 825" d="M410.937,584.845l-6.464,2-.643-2.083,3.819-1.18-1.612-5.218-2.951.911-.643-2.083,2.951-.912-1.845-5.974-3.921,1.212-.644-2.083,6.566-2.029Z" transform="translate(-297.141 -422.572)" fill="#fff"/>
        <rect id="Rectangle_51" data-name="Rectangle 51" width="7.963" height="2.17" transform="translate(88.411 155.805) rotate(-3.865)" fill="#fff"/>
        <path id="Tracé_826" data-name="Tracé 826" d="M281.214,596.015l-2.755-.5q-.61-.111-1.254-.272a8.6,8.6,0,0,1-1.24-.41,5.459,5.459,0,0,1-1.1-.619,3.237,3.237,0,0,1-.842-.9,3.409,3.409,0,0,1-.459-1.241,4.709,4.709,0,0,1,.045-1.649l.159-.873a4.106,4.106,0,0,1,.444-1.277,3.964,3.964,0,0,1,.734-.958,3.333,3.333,0,0,1,.905-.617,2.613,2.613,0,0,1,.957-.244l.015-.084a2.969,2.969,0,0,1-1.783-1.634,4.743,4.743,0,0,1-.2-2.747l.166-.915a6.062,6.062,0,0,1,.525-1.659,3.869,3.869,0,0,1,.828-1.12,3.388,3.388,0,0,1,1.077-.668,4.871,4.871,0,0,1,1.271-.3,7.615,7.615,0,0,1,1.413,0q.738.064,1.506.2l2.86.52Zm-1.8-8.269a3.635,3.635,0,0,0-1.023-.051,2.054,2.054,0,0,0-.847.27,1.832,1.832,0,0,0-.626.636,3.023,3.023,0,0,0-.37,1.047l-.134.736a4.515,4.515,0,0,0-.077,1.138,2.057,2.057,0,0,0,.266.9,1.832,1.832,0,0,0,.664.648,3.358,3.358,0,0,0,1.11.381l.526.1,1.037-5.7Zm1.273-8.427a3.323,3.323,0,0,0-1.02-.039,1.942,1.942,0,0,0-1.481.974,3.162,3.162,0,0,0-.373,1.062l-.254,1.4a4.57,4.57,0,0,0-.078,1.143,2.011,2.011,0,0,0,.266.9,1.858,1.858,0,0,0,.66.642,3.309,3.309,0,0,0,1.1.38l.778.142,1.175-6.457Z" transform="translate(-203.694 -429.942)" fill="#fff"/>
        <path id="Tracé_827" data-name="Tracé 827" d="M234.45,579.5l-2.99-1.1,3.117-18.3,2.629.965-.655,3.243,3.131,1.149,1.578-2.9,2.639.968Zm1.684-13.124-1.929,8.981.11.041,4.347-8.094Z" transform="translate(-172.379 -417.135)" fill="#fff"/>
        <path id="Tracé_828" data-name="Tracé 828" d="M186.49,560.119l-2.6-1.5q-.445-.256-.955-.6a6.461,6.461,0,0,1-.961-.794,4.934,4.934,0,0,1-.779-1.023,3.487,3.487,0,0,1-.426-1.295,4.544,4.544,0,0,1,.108-1.609,7.267,7.267,0,0,1,.823-1.962l.229-.4a8.219,8.219,0,0,1,2.214-2.641,3.762,3.762,0,0,1,2.47-.754l1.109-7.787,2.537,1.463-1.309,7.129.9.517,3.411-5.917,2.352,1.356Zm2-9.731a4.094,4.094,0,0,0-1.145-.475,1.687,1.687,0,0,0-.973.062,2.386,2.386,0,0,0-.891.647,7.257,7.257,0,0,0-.892,1.268l-.721,1.25a5.078,5.078,0,0,0-.5,1.12,1.9,1.9,0,0,0-.047.948,1.821,1.821,0,0,0,.454.829,4.219,4.219,0,0,0,1.013.769l.361.208,3.7-6.417Z" transform="translate(-134.603 -401.981)" fill="#fff"/>
        <path id="Tracé_829" data-name="Tracé 829" d="M124.564,521.48l-2.232.324-.859-4.045,1.676-.118Zm-.07-2.909-2.288-2.215,10.271-15.466,2.012,1.948-1.914,2.7,2.4,2.319,2.62-2.015,2.02,1.955Zm6.861-11.313-5.4,7.427.084.082,7.256-5.635Z" transform="translate(-90.467 -373.036)" fill="#fff"/>
        <path id="Tracé_830" data-name="Tracé 830" d="M77.268,480.375l-1.512-2.4,11.155-9.419-.063-.1-13.307,6.012-1.506-2.386,17.211-6.935,1.689,2.675Z" transform="translate(-53.648 -346.421)" fill="#fff"/>
        <rect id="Rectangle_52" data-name="Rectangle 52" width="18.255" height="2.768" transform="translate(15.572 119.654) rotate(-24.887)" fill="#fff"/>
        <path id="Tracé_831" data-name="Tracé 831" d="M45.189,408.969l-.643-2.15,10.436-7.741-.018-.062q-.4.153-.887.355t-1.114.433q-.628.233-1.428.505t-1.813.576l-6.38,1.908-.711-2.376,17.49-5.232.649,2.171-10.135,7.628.025.082q.452-.168.974-.38t1.237-.471q.715-.258,1.673-.579t2.29-.719l5.141-1.538.7,2.355Z" transform="translate(-31.749 -294.314)" fill="#fff"/>
        <rect id="Rectangle_53" data-name="Rectangle 53" width="2.17" height="7.963" transform="translate(17.529 86.216) rotate(-1.973)" fill="#fff"/>
        <path id="Tracé_832" data-name="Tracé 832" d="M38.382,271.427l.593-2.737q.131-.606.313-1.244a8.615,8.615,0,0,1,.452-1.225,5.469,5.469,0,0,1,.656-1.083,3.237,3.237,0,0,1,.925-.811,3.412,3.412,0,0,1,1.255-.417,4.707,4.707,0,0,1,1.646.1l.867.188a4.111,4.111,0,0,1,1.261.487,3.958,3.958,0,0,1,.933.765,3.331,3.331,0,0,1,.587.926,2.607,2.607,0,0,1,.212.965l.083.018a2.966,2.966,0,0,1,1.693-1.727,4.743,4.743,0,0,1,2.752-.109l.909.2a6.059,6.059,0,0,1,1.64.58,3.875,3.875,0,0,1,1.092.866,3.382,3.382,0,0,1,.631,1.1,4.883,4.883,0,0,1,.253,1.28,7.589,7.589,0,0,1-.044,1.412q-.088.735-.254,1.5l-.616,2.841Zm8.324-1.519a3.624,3.624,0,0,0,.085-1.021,2.057,2.057,0,0,0-.241-.856,1.835,1.835,0,0,0-.614-.647,3.028,3.028,0,0,0-1.033-.4l-.731-.159a4.509,4.509,0,0,0-1.134-.115,2.054,2.054,0,0,0-.9.236,1.83,1.83,0,0,0-.67.642,3.348,3.348,0,0,0-.418,1.1l-.113.522,5.662,1.228Zm8.379,1.555a3.329,3.329,0,0,0,.073-1.018,2.027,2.027,0,0,0-.273-.858,2,2,0,0,0-.651-.655,3.169,3.169,0,0,0-1.049-.408l-1.389-.3a4.56,4.56,0,0,0-1.14-.116,2.009,2.009,0,0,0-.9.236,1.859,1.859,0,0,0-.663.638,3.306,3.306,0,0,0-.417,1.091l-.168.773,6.413,1.391Z" transform="translate(-28.585 -196.521)" fill="#fff"/>
        <path id="Tracé_833" data-name="Tracé 833" d="M73.382,224.764a7.129,7.129,0,0,1-.427.853,3.7,3.7,0,0,1-.659.826,3.722,3.722,0,0,1-2.274,1,6.455,6.455,0,0,1-1.754-.106,11.26,11.26,0,0,1-2.26-.7l-5.977-2.468a10.928,10.928,0,0,1-2.095-1.1,6.369,6.369,0,0,1-1.3-1.167,3.689,3.689,0,0,1-.667-1.172,3.631,3.631,0,0,1-.187-1.129,3.974,3.974,0,0,1,.134-1.038,7.353,7.353,0,0,1,.3-.884,7.825,7.825,0,0,1,.4-.812,3.942,3.942,0,0,1,.616-.821,3.621,3.621,0,0,1,.913-.67,3.574,3.574,0,0,1,1.3-.367,6.359,6.359,0,0,1,1.754.094,11.207,11.207,0,0,1,2.292.709l5.977,2.468a10.576,10.576,0,0,1,2.073,1.1,6.689,6.689,0,0,1,1.307,1.176,3.778,3.778,0,0,1,.687,1.192,4.166,4.166,0,0,1,.222,1.144,3.664,3.664,0,0,1-.1,1.03,5.974,5.974,0,0,1-.27.849m-1.926-.8a1.7,1.7,0,0,0,.143-.71,1.122,1.122,0,0,0-.253-.648,2.819,2.819,0,0,0-.721-.621,8.155,8.155,0,0,0-1.27-.634l-7.676-3.17a8.811,8.811,0,0,0-1.392-.465,3.051,3.051,0,0,0-.988-.085,1.174,1.174,0,0,0-.661.271,1.593,1.593,0,0,0-.41.6,1.657,1.657,0,0,0-.139.729,1.193,1.193,0,0,0,.274.668,2.949,2.949,0,0,0,.758.642,8.79,8.79,0,0,0,1.315.653l7.676,3.17a8.17,8.17,0,0,0,1.347.447,2.734,2.734,0,0,0,.951.063,1.141,1.141,0,0,0,.64-.291,1.764,1.764,0,0,0,.406-.619" transform="translate(-41.544 -160.104)" fill="#fff"/>
        <path id="Tracé_834" data-name="Tracé 834" d="M74.673,169.384l1.512-2.344,11.245,7.254a9.778,9.778,0,0,0,1.241.7,2.711,2.711,0,0,0,.907.261,1.117,1.117,0,0,0,.665-.143,1.576,1.576,0,0,0,.5-.51,1.647,1.647,0,0,0,.264-.676,1.162,1.162,0,0,0-.132-.683,2.762,2.762,0,0,0-.6-.741,8.278,8.278,0,0,0-1.139-.856L77.895,164.39l1.495-2.317,10.625,6.854a10.6,10.6,0,0,1,1.806,1.419,6.08,6.08,0,0,1,1.031,1.339,3.451,3.451,0,0,1,.416,1.229,3.611,3.611,0,0,1-.343,2.049,8.073,8.073,0,0,1-.43.765,7.88,7.88,0,0,1-.517.7,3.543,3.543,0,0,1-1.714,1.139,3.5,3.5,0,0,1-1.288.123,5.983,5.983,0,0,1-1.638-.389,10.823,10.823,0,0,1-2.04-1.068Z" transform="translate(-55.612 -120.703)" fill="#fff"/>
        <path id="Tracé_835" data-name="Tracé 835" d="M107.457,131.094l2.055-2.191q.351-.374.8-.793a6.442,6.442,0,0,1,.993-.754,4.913,4.913,0,0,1,1.174-.526,3.492,3.492,0,0,1,1.357-.119,4.547,4.547,0,0,1,1.542.472,7.265,7.265,0,0,1,1.723,1.249l.335.314A8.213,8.213,0,0,1,119.5,131.5a3.762,3.762,0,0,1,.17,2.577L127,136.938l-2,2.136-6.642-2.9-.709.756,4.982,4.672-1.857,1.98Zm9.019,4.164a4.087,4.087,0,0,0,.724-1.006,1.681,1.681,0,0,0,.162-.962,2.384,2.384,0,0,0-.426-1.015,7.272,7.272,0,0,0-1.032-1.158l-1.052-.987a5.083,5.083,0,0,0-.977-.74,1.905,1.905,0,0,0-.912-.262,1.825,1.825,0,0,0-.911.252,4.215,4.215,0,0,0-.979.81l-.285.3,5.4,5.066Z" transform="translate(-80.028 -94.353)" fill="#fff"/>
        <path id="Tracé_836" data-name="Tracé 836" d="M164.448,107.192a4.758,4.758,0,0,1-.641.392,3.125,3.125,0,0,1-.882.292,3.723,3.723,0,0,1-1.1.024,3.93,3.93,0,0,1-1.282-.4,6.839,6.839,0,0,1-1.447-1,11.267,11.267,0,0,1-1.581-1.761l-3.868-5.182a10.661,10.661,0,0,1-1.23-2.023,6.213,6.213,0,0,1-.5-1.677,3.633,3.633,0,0,1,.053-1.367,3.869,3.869,0,0,1,.448-1.088,4.211,4.211,0,0,1,.668-.839,7.692,7.692,0,0,1,.724-.621,5.085,5.085,0,0,1,1.685-.878,3.255,3.255,0,0,1,1.492-.074,3.159,3.159,0,0,1,1.287.58,5.25,5.25,0,0,1,1.062,1.074,7.848,7.848,0,0,1,.593.911q.242.44.505.99l-1.773,1.323-.518-.694q-1.8-2.407-3.09-1.442a1.781,1.781,0,0,0-.519.574,1.235,1.235,0,0,0-.125.726,2.772,2.772,0,0,0,.313.947,8.78,8.78,0,0,0,.794,1.234l4.948,6.63a8.258,8.258,0,0,0,.932,1.078,2.65,2.65,0,0,0,.792.543,1.2,1.2,0,0,0,.711.077,1.8,1.8,0,0,0,.69-.335,1.311,1.311,0,0,0,.49-.666,1.825,1.825,0,0,0,.044-.853,3.5,3.5,0,0,0-.336-.976,6.953,6.953,0,0,0-.654-1.046l-1.426-1.91-1.139.851-1.087-1.456,3.3-2.461,5.53,7.409-1.473,1.1-1.275-1.209a3.729,3.729,0,0,1-.091,1.889,2.877,2.877,0,0,1-1.024,1.318" transform="translate(-113.11 -67.721)" fill="#fff"/>
        <rect id="Rectangle_54" data-name="Rectangle 54" width="7.963" height="2.17" transform="translate(57.327 24.423) rotate(-22.427)" fill="#fff"/>
      </g>
    </g>
    <g id="Groupe_47" data-name="Groupe 47" transform="translate(1075.187 563.04)">
      <g id="Groupe_17" data-name="Groupe 17" transform="translate(0 0)" clip-path="url(#clip-path-2)">
        <path id="Tracé_83" data-name="Tracé 83" d="M22.988,14.976a7.476,7.476,0,1,0,7.476,7.476,7.486,7.486,0,0,0-7.476-7.476m0,14.071a6.6,6.6,0,1,1,6.593-6.6,6.6,6.6,0,0,1-6.593,6.6" transform="translate(22.745 21.963)" fill="#ca9e67"/>
        <path id="Tracé_84" data-name="Tracé 84" d="M55.407,17.591a17.59,17.59,0,1,0-35.179,0,18.1,18.1,0,0,0,.239,2.876,17.815,17.815,0,0,0-2.876-.239,17.463,17.463,0,0,0-8.712,2.321l-.02-.015-.027.039A17.592,17.592,0,1,0,34.94,34.94a17.823,17.823,0,0,0,2.878.239A17.609,17.609,0,0,0,55.407,17.591M15.4,41.735c-.049-.434-.086-.873-.113-1.317.444-.017.883-.039,1.322-.069.032.444.074.883.128,1.317-.441.03-.888.052-1.337.069m1.458.809c.8,4.876,3.088,9,6.238,11.045a15.5,15.5,0,0,1-1.682.491c-3.014-2.111-5.17-6.386-5.9-11.469.451-.02.9-.039,1.349-.067m-11-1.337c-.042-.456-.074-.92-.1-1.386.444.076.89.148,1.342.21q.048.688.121,1.366c-.459-.057-.915-.121-1.364-.19M7.338,42.3c.651,4.62,2.333,8.689,4.709,11.284a16.6,16.6,0,0,1-3.009-1.413A26.484,26.484,0,0,1,5.952,42.11q.688.1,1.386.185M.9,38.667a35.338,35.338,0,0,0,3.976,1c.022.469.049.935.086,1.394a38.9,38.9,0,0,1-3.914-.881c-.072-.5-.123-1-.148-1.514m4.815-.629c0-5.769,1.364-11.146,3.744-14.811a16.655,16.655,0,0,1,3.234-1.386c-3.446,3.209-5.658,9.375-5.658,16.2,0,.37.01.733.025,1.1-.451-.064-.893-.136-1.332-.212-.007-.3-.012-.592-.012-.888M8,40.144a46.842,46.842,0,0,0,5.416.311c.333,0,.666,0,.994-.01.027.444.067.883.113,1.317-.37.007-.737.012-1.107.012A51.75,51.75,0,0,1,8.12,41.5c-.052-.449-.091-.9-.123-1.357M15.226,38.7c0-8.053,3.6-15.085,8.388-16.459q.718.277,1.406.619c-4.9,1.7-8.475,8.231-8.475,15.84,0,.259.012.518.022.774-.437.03-.878.052-1.322.069-.007-.279-.02-.56-.02-.844m2.259,1.583c7.123-.609,13.25-2.807,16.442-5.966A16.088,16.088,0,0,1,34.2,36.02c-3.246,2.933-9.481,4.992-16.59,5.582-.054-.434-.1-.876-.128-1.322m-.039-.876c-.007-.234-.02-.471-.02-.708,0-7.671,3.729-14.172,8.7-15.238A16.793,16.793,0,0,1,33.677,33.3c-2.915,3.226-9.03,5.483-16.232,6.1m12.791-13.8a21.764,21.764,0,0,0,1.278-5.4c.439.064.878.126,1.322.175A23.755,23.755,0,0,1,31.29,26.8c-.333-.414-.686-.811-1.053-1.194m1.357-6.282c.032-.449.054-.9.059-1.352.437.069.871.136,1.315.192-.007.449-.03.9-.059,1.337-.441-.052-.881-.113-1.315-.178M21.431,14.32a26.818,26.818,0,0,0,9.345,3.5c0,.459-.025.915-.054,1.369a31.058,31.058,0,0,1-9.535-3.2,16.8,16.8,0,0,1,.244-1.67m10.221,2.762c-.106-4.918-1.7-9.506-4.346-12.468.382-.311.777-.609,1.186-.885,2.762,3.071,4.422,8.085,4.482,13.551-.446-.057-.885-.126-1.322-.2m2.193,1.181a38.915,38.915,0,0,0,3.973.2,38.94,38.94,0,0,0,3.971-.2q.015.67.059,1.332c-1.32.123-2.666.192-4.03.192s-2.716-.069-4.035-.195c.03-.439.052-.883.062-1.329m20.6-2.274a31.119,31.119,0,0,1-9.538,3.2c-.032-.454-.049-.908-.054-1.369a26.832,26.832,0,0,0,9.348-3.5,16.8,16.8,0,0,1,.244,1.67M42.663,17.28C42.722,11.8,44.382,6.8,47.144,3.729c.407.276.8.575,1.186.885-2.644,2.962-4.242,7.547-4.346,12.468-.437.072-.878.141-1.322.2m0,.888c.442-.057.881-.123,1.315-.192.007.454.027.905.059,1.352q-.655.1-1.317.178c-.03-.441-.049-.888-.057-1.337m1.455,2.037a18.737,18.737,0,0,0,4.208,10.359c-.382.311-.779.609-1.186.885-2.338-2.6-3.887-6.588-4.343-11.07.444-.049.883-.111,1.322-.175M49,29.995a17.871,17.871,0,0,1-4.008-9.925,32.287,32.287,0,0,0,9.521-3.115c.007.212.017.422.017.636A16.662,16.662,0,0,1,49,29.995m5-16.587a25.463,25.463,0,0,1-9.128,3.517C45,12.266,46.515,7.959,49,5.185a16.712,16.712,0,0,1,5,8.223M46.389,3.253c-2.861,3.253-4.57,8.465-4.61,14.128a37.974,37.974,0,0,1-3.961.21,37.938,37.938,0,0,1-3.961-.21C33.815,11.728,32.1,6.509,29.245,3.253a16.671,16.671,0,0,1,17.144,0M26.635,5.185c2.484,2.775,4,7.086,4.134,11.74a25.494,25.494,0,0,1-9.131-3.517,16.73,16.73,0,0,1,5-8.223M21.108,17.591c0-.215.007-.424.015-.636a32.3,32.3,0,0,0,9.523,3.115,21.24,21.24,0,0,1-1.1,4.864,17.574,17.574,0,0,0-8.154-4.287,16.7,16.7,0,0,1-.286-3.056m1.191,4.2c-4.674,2.119-7.952,8.936-7.952,16.908,0,.294.012.582.02.871-.318,0-.634.01-.955.01a46.1,46.1,0,0,1-5.471-.326c-.015-.4-.025-.807-.025-1.214,0-7.562,2.76-14.251,6.881-16.693a16.791,16.791,0,0,1,2.792-.237,16.589,16.589,0,0,1,4.709.681M7.846,24.255A30.489,30.489,0,0,0,4.839,38.038c0,.242,0,.483.01.725A34.118,34.118,0,0,1,.883,37.74,16.7,16.7,0,0,1,7.846,24.255M1.211,41.136c1.231.331,2.513.614,3.843.839A29.222,29.222,0,0,0,7.5,51.128a16.741,16.741,0,0,1-6.292-9.992M13.9,54.112C11.05,51.87,9,47.507,8.24,42.4c1.687.168,3.421.257,5.172.257.4,0,.809-.01,1.211-.02.71,5,2.753,9.284,5.638,11.676a16.676,16.676,0,0,1-6.361-.2m10.246-.925c-3.226-1.756-5.594-5.816-6.408-10.712,6.983-.572,13.025-2.511,16.545-5.374.007.239.017.476.017.718A16.738,16.738,0,0,1,24.147,53.187M31.9,27.615a24.229,24.229,0,0,0,1.808-7.143c1.344.128,2.716.2,4.107.2s2.762-.069,4.109-.2a20.7,20.7,0,0,0,4.464,11.454A16.664,16.664,0,0,1,34.76,34.015a17.518,17.518,0,0,0-2.856-6.4" transform="translate(0 0.001)" fill="#ca9e67"/>
      </g>
    </g>
  </g>
</svg>
