<svg xmlns="http://www.w3.org/2000/svg" width="28.222" height="28.222" viewBox="0 0 28.222 28.222">
  <path id="facebook" d="M28.67,2H3.552A1.552,1.552,0,0,0,2,3.552V28.67a1.552,1.552,0,0,0,1.552,1.552H17.071V19.286H13.4V15.053h3.669V11.878a5.136,5.136,0,0,1,5.475-5.644,28.589,28.589,0,0,1,3.288.169v3.81H23.59c-1.778,0-2.117.847-2.117,2.074V15.01h4.233l-.55,4.233H21.473V30.222h7.2a1.552,1.552,0,0,0,1.552-1.552V3.552A1.552,1.552,0,0,0,28.67,2Z" transform="translate(-2 -2)" fill="#ca9e67"/>
</svg>
