<svg xmlns="http://www.w3.org/2000/svg" xmlns:xlink="http://www.w3.org/1999/xlink" width="423.206" height="197.971" viewBox="0 0 423.206 197.971">
  <defs>
    <clipPath id="clip-path">
      <rect id="Rectangle_48" data-name="Rectangle 48" width="409.243" height="108.697" fill="none"/>
    </clipPath>
  </defs>
  <g id="Groupe_52" data-name="Groupe 52" transform="translate(24.451 0) rotate(13)">
    <g id="Groupe_51" data-name="Groupe 51" transform="translate(0 0)" clip-path="url(#clip-path)">
      <path id="Tracé_810" data-name="Tracé 810" d="M168.365,73.847C79.219,73.847.988,50.746,0,50.449l.248-.824C1.5,50,126.523,86.912,240.635,67.195,354.672,47.488,399.174.473,399.611,0l.632.584c-.438.474-45.1,47.7-159.462,67.458a427.466,427.466,0,0,1-72.417,5.8" transform="translate(0 0)" fill="#fff"/>
      <path id="Tracé_811" data-name="Tracé 811" d="M24.291,87.14a1.529,1.529,0,0,0,2.744.577L38.018,72.274l11.664-16.4a1.529,1.529,0,0,0-.932-2.382L33.482,50.275,18.214,47.061a1.528,1.528,0,0,0-1.811,1.8l4.063,19.713Z" transform="translate(2.409 6.922)" fill="#7b1b20"/>
      <path id="Tracé_812" data-name="Tracé 812" d="M113.313,98.842a1.53,1.53,0,0,0,2.8.118L124.4,81.918l8.8-18.1a1.528,1.528,0,0,0-1.31-2.2l-15.589-.655-15.59-.656a1.529,1.529,0,0,0-1.49,2.079l7.255,18.776Z" transform="translate(14.588 8.876)" fill="#faeed4"/>
      <path id="Tracé_813" data-name="Tracé 813" d="M203.315,97.419a1.529,1.529,0,0,0,2.768-.439l4.748-18.347,5.044-19.486a1.529,1.529,0,0,0-1.72-1.893L198.746,59.7l-15.41,2.447a1.529,1.529,0,0,0-1.05,2.332l10.832,16.966Z" transform="translate(26.792 8.424)" fill="#7b1b20"/>
      <path id="Tracé_814" data-name="Tracé 814" d="M289.67,76.918a1.529,1.529,0,0,0,2.617-1.006l.829-18.932L294,36.871a1.529,1.529,0,0,0-2.075-1.495l-14.565,5.6-14.565,5.6a1.529,1.529,0,0,0-.541,2.5l14.123,14.343Z" transform="translate(38.532 5.192)" fill="#faeed4"/>
      <path id="Tracé_815" data-name="Tracé 815" d="M289.67,76.918a1.529,1.529,0,0,0,2.617-1.006l.829-18.932L294,36.871a1.529,1.529,0,0,0-2.075-1.495l-14.565,5.6-14.565,5.6a1.529,1.529,0,0,0-.541,2.5l14.123,14.343Z" transform="translate(100.51 41.305) rotate(-14)" fill="#7b1b20"/>
    </g>
  </g>
</svg>
