<svg xmlns="http://www.w3.org/2000/svg" width="28.222" height="28.222" viewBox="0 0 28.222 28.222">
  <path id="instagram-alt_2_" data-name="instagram-alt (2)" d="M16.111,12.612a3.5,3.5,0,1,0,3.5,3.5A3.5,3.5,0,0,0,16.111,12.612ZM30.123,9.154a9.215,9.215,0,0,0-.593-3.189,5.644,5.644,0,0,0-3.274-3.274A9.215,9.215,0,0,0,23.068,2.1C21.248,2,20.711,2,16.111,2s-5.136,0-6.957.1a9.215,9.215,0,0,0-3.189.593A5.644,5.644,0,0,0,2.691,5.965,9.215,9.215,0,0,0,2.1,9.154C2,10.975,2,11.511,2,16.111s0,5.136.1,6.957a9.68,9.68,0,0,0,.593,3.2,5.56,5.56,0,0,0,1.284,1.976,5.489,5.489,0,0,0,1.99,1.284,9.214,9.214,0,0,0,3.189.593c1.82.1,2.357.1,6.957.1s5.136,0,6.957-.1a9.215,9.215,0,0,0,3.189-.593,5.489,5.489,0,0,0,1.99-1.284,5.56,5.56,0,0,0,1.284-1.976,9.313,9.313,0,0,0,.593-3.2c.1-1.82.1-2.357.1-6.957S30.222,10.975,30.123,9.154ZM26.539,20.443a8.086,8.086,0,0,1-.55,2.54,5.447,5.447,0,0,1-3.006,3.006,8.086,8.086,0,0,1-2.554.494H11.793a8.086,8.086,0,0,1-2.554-.494,5.253,5.253,0,0,1-3.006-3.006,7.747,7.747,0,0,1-.48-2.554c0-1.115,0-1.411,0-4.318V11.793a7.747,7.747,0,0,1,.48-2.554A4.953,4.953,0,0,1,7.447,7.39,5.066,5.066,0,0,1,9.239,6.233a8.086,8.086,0,0,1,2.554-.494h8.636a8.086,8.086,0,0,1,2.554.494,5.253,5.253,0,0,1,3.006,3.006,8.086,8.086,0,0,1,.494,2.554c0,1.115,0,1.411,0,4.318s.1,3.2.056,4.318Zm-2.258-10.5a3.358,3.358,0,0,0-1.99-1.99,5.644,5.644,0,0,0-1.947-.31H11.878a5.644,5.644,0,0,0-1.947.367A3.358,3.358,0,0,0,7.941,9.93a6.025,6.025,0,0,0-.3,1.947v8.467a6.025,6.025,0,0,0,.367,1.947A3.358,3.358,0,0,0,10,24.281a6.025,6.025,0,0,0,1.877.367h8.467a5.644,5.644,0,0,0,1.947-.367,3.358,3.358,0,0,0,1.99-1.99,5.644,5.644,0,0,0,.367-1.947V11.878a5.334,5.334,0,0,0-.367-1.947ZM16.111,21.5a5.376,5.376,0,0,1-5.376-5.39h0a5.39,5.39,0,1,1,5.376,5.39Zm5.644-9.723a1.27,1.27,0,0,1,0-2.526h0a1.27,1.27,0,0,1,0,2.526Z" transform="translate(-2 -2)" fill="#ca9e67"/>
</svg>
