<svg xmlns="http://www.w3.org/2000/svg" width="181.156" height="50.282" viewBox="0 0 181.156 50.282">
  <g id="Groupe_44" data-name="Groupe 44" transform="translate(-86.058 75.199)">
    <path id="Tracé_772" data-name="Tracé 772" d="M166.21,133.451c.31,0,.462.125.462.375,0,.365-.287.777-.856,1.235a7.974,7.974,0,0,1-2,1.115,7.172,7.172,0,0,1-2.312.532,4.863,4.863,0,0,0-1.563,2.678.846.846,0,0,0,.731.925,3.7,3.7,0,0,1,.925-2.451,3.167,3.167,0,0,1,1.313-.925,2.114,2.114,0,0,1,.763-.129.924.924,0,0,1,.62.194.644.644,0,0,1,.217.495,1.8,1.8,0,0,1-.13.634,3.369,3.369,0,0,1-.361.666,4.714,4.714,0,0,1-.564.638,4.286,4.286,0,0,1-.731.541,3.6,3.6,0,0,1-1.85.509h-.092a2.233,2.233,0,0,0,.291,1.221.072.072,0,0,1,0,.037v.028h-.042c-.129,0-.245-.264-.356-.8a2.968,2.968,0,0,1-.055-.527,1.147,1.147,0,0,1-.92-.754,1.355,1.355,0,0,1-.079-.495,4.269,4.269,0,0,1,1.078-2.543,1.341,1.341,0,0,1-1.068-.874,1.454,1.454,0,0,1-.069-.462,1.131,1.131,0,0,1,.134-.5,2.045,2.045,0,0,1,.365-.509,3.156,3.156,0,0,1,.56-.462,3.857,3.857,0,0,1,.712-.384,4.343,4.343,0,0,1,1.716-.356c.273,0,.407.032.407.088s0,.042-.065.042h-.365a3.758,3.758,0,0,0-2.123.7,2.745,2.745,0,0,0-.971,1.027,1.156,1.156,0,0,0-.153.527.93.93,0,0,0,.065.388,1.031,1.031,0,0,0,.194.282,1.436,1.436,0,0,0,.754.4,9.293,9.293,0,0,1,2.567-2.178,5.7,5.7,0,0,1,2.853-.925m-5.383,6.881h.166a2.414,2.414,0,0,0,1.387-.569,5.406,5.406,0,0,0,1.2-1.249,2.334,2.334,0,0,0,.5-1.2.351.351,0,0,0-.106-.3.6.6,0,0,0-.375-.092,1.64,1.64,0,0,0-.578.116,2.716,2.716,0,0,0-.643.342,3.466,3.466,0,0,0-.592.527,3.93,3.93,0,0,0-.5.689,3.516,3.516,0,0,0-.462,1.725Zm5.725-6.474c0-.18-.129-.268-.388-.268a4.32,4.32,0,0,0-2.076.925,14.413,14.413,0,0,0-2.442,2.081,8.456,8.456,0,0,0,3.145-1.124,5.914,5.914,0,0,0,1.526-1.133.777.777,0,0,0,.227-.5Z" transform="translate(-21.771 -169.548)" fill="#ca9e67"/>
    <path id="Tracé_773" data-name="Tracé 773" d="M171.274,144.8q0,.18.236.18a1.328,1.328,0,0,0,.726-.254,8.27,8.27,0,0,0,1.743-1.66l1.147-1.364a3.038,3.038,0,0,0,.435.032,3.246,3.246,0,0,0,.328,0l-.481.55-1.785,2.16a.608.608,0,0,0-.18.347c0,.12.079.18.24.185a1.083,1.083,0,0,0,.5-.129,2.965,2.965,0,0,0,.518-.319,6.211,6.211,0,0,0,.509-.425c.162-.157.314-.305.462-.462l.527-.583.1.088-.194.222c-.1.106-.217.236-.361.379l-.462.462a2.666,2.666,0,0,1-1.6.9.461.461,0,0,1-.338-.116.4.4,0,0,1-.143-.305,1.639,1.639,0,0,1,.259-.823,3.129,3.129,0,0,1-1.961,1.235.55.55,0,0,1-.578-.324.646.646,0,0,1-.037-.231.84.84,0,0,1,.069-.338,2.143,2.143,0,0,1,.217-.421,5.9,5.9,0,0,1,.361-.495l.925-1.087a6.779,6.779,0,0,1,.462-.518,1.844,1.844,0,0,0,.319.032h.171a1.588,1.588,0,0,0,.273,0c-.393.425-.666.735-.828.925l-1.068,1.2a1.647,1.647,0,0,0-.518.957" transform="translate(-27.862 -174.16)" fill="#ca9e67"/>
    <path id="Tracé_774" data-name="Tracé 774" d="M180.613,142.8c0,.106.1.162.3.162a1.232,1.232,0,0,0,.56-.134,3.67,3.67,0,0,0,.536-.338,6.5,6.5,0,0,0,.518-.439l.462-.462q.2-.208.333-.361l.157-.176.1.088-.19.213c-.092.111-.208.236-.347.379s-.291.3-.462.462a4.863,4.863,0,0,1-.541.462,2.035,2.035,0,0,1-1.133.462.927.927,0,0,1-.5-.116.318.318,0,0,1-.185-.259,1.062,1.062,0,0,1,.032-.259,1.866,1.866,0,0,1,.111-.277,3.858,3.858,0,0,1,.227-.375c.1-.143.222-.314.375-.518s.338-.43.555-.694l.777-.925a.944.944,0,0,0,.245,0h.236a1.364,1.364,0,0,0,.213,0q-1.67,1.979-1.878,2.247c-.139.18-.245.324-.31.43a.827.827,0,0,0-.19.425m3.209-4.236a.616.616,0,0,1-.162.106.6.6,0,0,1-.208.037.3.3,0,0,1-.282-.291.464.464,0,0,1,.153-.342.435.435,0,0,1,.319-.153.341.341,0,0,1,.259.1.291.291,0,0,1,.079.2.433.433,0,0,1-.042.194.521.521,0,0,1-.116.167Z" transform="translate(-32.877 -172.138)" fill="#ca9e67"/>
    <path id="Tracé_775" data-name="Tracé 775" d="M187.205,143.522a.7.7,0,0,0,.153,0,.5.5,0,0,0,.222-.069,2.02,2.02,0,0,0,.268-.176c.092-.074.185-.157.277-.245l.25-.254.2-.222.116-.148.111.083-.157.166-.213.24c-.462.5-.837.749-1.105.745h-.088a.224.224,0,0,1-.079,0,1.781,1.781,0,0,1-1.794.925,1.133,1.133,0,0,1-.869-.291.463.463,0,0,1-.116-.319.6.6,0,0,1,.1-.333.787.787,0,0,1,.217-.227.8.8,0,0,1,.462-.185c.134,0,.2.065.2.19s-.083.153-.217.194a.457.457,0,0,1-.129.023.242.242,0,0,1-.12-.046.5.5,0,0,0-.092-.06l-.079.069a.537.537,0,0,0-.2.37.278.278,0,0,0,.093.231.639.639,0,0,0,.227.129,1.16,1.16,0,0,0,.851,0,1.437,1.437,0,0,0,.462-.3,2.41,2.41,0,0,0,.675-1.734,4.161,4.161,0,0,1,.19-1.2.1.1,0,0,0,0-.042l-1.188,1.447a1.244,1.244,0,0,1-.2.19.074.074,0,0,1-.079-.028.15.15,0,0,1,.046-.1c.865-1.027,1.355-1.609,1.461-1.748.055-.264.143-.393.264-.393a.239.239,0,0,1,.143.046.148.148,0,0,1,.055.116.522.522,0,0,1-.153.268,2.081,2.081,0,0,0-.18.222.285.285,0,0,0-.046.079.326.326,0,0,0,0,.06v.06a1.715,1.715,0,0,0,0,.324l.125.832a2.289,2.289,0,0,1-.055,1.105" transform="translate(-35.113 -173.477)" fill="#ca9e67"/>
    <path id="Tracé_776" data-name="Tracé 776" d="M192.008,142.848c0,.106.1.157.3.162a1.245,1.245,0,0,0,.56-.134,3.6,3.6,0,0,0,.532-.338,6.569,6.569,0,0,0,.523-.439l.462-.462q.2-.208.333-.361.074-.092.157-.176l.1.088-.19.213c-.093.111-.2.236-.342.379s-.291.3-.462.462a4.788,4.788,0,0,1-.536.439,2.063,2.063,0,0,1-1.138.462.924.924,0,0,1-.495-.116.31.31,0,0,1-.185-.259.875.875,0,0,1,.032-.259,1.228,1.228,0,0,1,.111-.277q.083-.157.222-.375c.1-.143.222-.314.375-.518s.342-.43.56-.694l.777-.925a1.205,1.205,0,0,0,.245,0h.449q-1.67,1.979-1.882,2.248c-.139.18-.24.324-.31.43a.856.856,0,0,0-.19.449m3.2-4.236a.547.547,0,0,1-.162.106.465.465,0,0,1-.2.032.26.26,0,0,1-.2-.088.279.279,0,0,1-.083-.2.434.434,0,0,1,.042-.194.5.5,0,0,1,.111-.148.435.435,0,0,1,.319-.153.314.314,0,0,1,.254.1.3.3,0,0,1,.083.2.434.434,0,0,1-.042.194.528.528,0,0,1-.12.143Z" transform="translate(-39.005 -172.165)" fill="#ca9e67"/>
    <path id="Tracé_777" data-name="Tracé 777" d="M198.023,145.121a1.492,1.492,0,0,0-.3-.028,2.02,2.02,0,0,0-.462.046l1.753-2.479a2.4,2.4,0,0,0,.338-.541c0-.111,0-.167-.1-.167s-.435.305-.925.925l-.324.393h-.079c-.028,0-.037-.051,0-.06.1-.106.208-.236.328-.393s.25-.31.388-.462c.328-.365.6-.546.819-.546q.555,0,.347.569a1.045,1.045,0,0,1-.176.31l-1.059,1.461v.056a22.645,22.645,0,0,1,1.808-1.822,2.474,2.474,0,0,1,.754-.49,1.452,1.452,0,0,1,.407-.074.784.784,0,0,1,.273.046.575.575,0,0,1,.18.116.43.43,0,0,1,.129.314,1.206,1.206,0,0,1-.074.375,2.337,2.337,0,0,1-.231.462,10.286,10.286,0,0,1-1.138,1.387,2.305,2.305,0,0,0-.347.4.28.28,0,0,0,0,.088c0,.079.1.116.31.12a1.385,1.385,0,0,0,.578-.125,3.176,3.176,0,0,0,.527-.324,5.226,5.226,0,0,0,.916-.888c.125-.157.227-.264.314-.37s.139-.171.171-.2l.1.083-.18.222c-.088.111-.194.236-.324.379a6.22,6.22,0,0,1-.463.462,4.22,4.22,0,0,1-.518.439,2.021,2.021,0,0,1-1.147.462.755.755,0,0,1-.624-.227.277.277,0,0,1-.055-.166.957.957,0,0,1,.028-.217,1.255,1.255,0,0,1,.134-.314,5.441,5.441,0,0,1,.675-.892c.291-.324.462-.541.573-.652a1.577,1.577,0,0,0,.217-.3.81.81,0,0,0,.153-.37c0-.12-.083-.185-.24-.185-.333,0-.883.37-1.646,1.119a17.283,17.283,0,0,0-1.332,1.475Z" transform="translate(-42.037 -174.23)" fill="#ca9e67"/>
    <path id="Tracé_778" data-name="Tracé 778" d="M211.228,144.861a3.5,3.5,0,0,1-.689.333,2.194,2.194,0,0,1-.7.125,1.423,1.423,0,0,1-.5-.069.723.723,0,0,1-.282-.19q-.465-.513,0-1.512a2.467,2.467,0,0,1,.624-.8,4.7,4.7,0,0,1,.735-.541,2.283,2.283,0,0,1,1.151-.347q.532,0,.555.333c.023.356-.416.745-1.309,1.165a11.221,11.221,0,0,1-1.244.462,1.592,1.592,0,0,0-.3.782.533.533,0,0,0,.153.435.735.735,0,0,0,.462.13,1.879,1.879,0,0,0,.657-.13,3.194,3.194,0,0,0,.666-.328,3.8,3.8,0,0,0,.56-.435c.171-.157.319-.305.462-.462s.236-.268.319-.375a2.132,2.132,0,0,1,.166-.194l.106.083a1.38,1.38,0,0,0-.2.227c-.092.111-.2.24-.338.388s-.3.3-.462.462a4.4,4.4,0,0,1-.592.458m-1.535-1.207a4.779,4.779,0,0,0,1.961-1.05.546.546,0,0,0,.143-.342c0-.19-.083-.282-.259-.282-.305,0-.694.264-1.156.8a9.508,9.508,0,0,0-.689.851Z" transform="translate(-48.25 -174.257)" fill="#ca9e67"/>
    <path id="Tracé_779" data-name="Tracé 779" d="M225.906,138.679q-1.235,1.387-1.961,1.387a.574.574,0,0,1-.634-.661,2.22,2.22,0,0,1,.634-1.475,3.2,3.2,0,0,1,2.386-1.3.671.671,0,0,1,.56.236.246.246,0,0,1,.056.139v.125l2.507-3.561,1.059-1.484a.925.925,0,0,0,.347.079,2.785,2.785,0,0,0,.291,0l-4.8,6.669c-.194.259-.342.462-.462.615a.764.764,0,0,0-.148.361c0,.088.042.134.125.134a1.952,1.952,0,0,0,1.105-.462,6.937,6.937,0,0,0,1.244-1.226,2.03,2.03,0,0,1,.18-.213l.106.088-.194.217c-.092.111-.2.24-.342.379s-.287.3-.462.462a5.547,5.547,0,0,1-.541.462,2.088,2.088,0,0,1-1.142.462c-.333,0-.495-.111-.49-.328a2.123,2.123,0,0,1,.6-1.027Zm-1.452-.425a2.5,2.5,0,0,0-.721,1.387.221.221,0,0,0,.25.25,2.253,2.253,0,0,0,1.244-.721l.416-.393a5.122,5.122,0,0,0,.583-.671l.462-.638a.926.926,0,0,0,.116-.393.264.264,0,0,0-.12-.24.46.46,0,0,0-.25-.074.807.807,0,0,0-.328.088,2.5,2.5,0,0,0-.462.268,7.1,7.1,0,0,0-1.189,1.138" transform="translate(-56.037 -169)" fill="#ca9e67"/>
    <path id="Tracé_780" data-name="Tracé 780" d="M235.638,144.916a3.223,3.223,0,0,1-.689.328,2.085,2.085,0,0,1-.7.13,1.424,1.424,0,0,1-.5-.069.78.78,0,0,1-.282-.19q-.465-.513,0-1.512a2.524,2.524,0,0,1,.624-.8,4.7,4.7,0,0,1,.735-.541,2.359,2.359,0,0,1,1.152-.347c.356,0,.541.116.555.338.023.356-.416.745-1.309,1.161a11.206,11.206,0,0,1-1.244.462,1.671,1.671,0,0,0-.3.786.527.527,0,0,0,.157.43.708.708,0,0,0,.462.129,1.854,1.854,0,0,0,.657-.125,3.441,3.441,0,0,0,.666-.328,4.076,4.076,0,0,0,.56-.435c.171-.157.319-.305.462-.462s.236-.268.319-.375a1.847,1.847,0,0,1,.167-.2l.106.088a1.382,1.382,0,0,0-.2.227c-.092.111-.2.241-.338.384s-.3.3-.462.462a4.059,4.059,0,0,1-.592.462M234.1,143.7a4.626,4.626,0,0,0,1.961-1.05.537.537,0,0,0,.143-.342.241.241,0,0,0-.194-.279.254.254,0,0,0-.065,0c-.305,0-.694.268-1.156.8A9.438,9.438,0,0,0,234.1,143.7Z" transform="translate(-61.371 -174.284)" fill="#ca9e67"/>
    <path id="Tracé_781" data-name="Tracé 781" d="M256.321,133.239q0,.832-1.85,2.428a.925.925,0,0,0,.55.647.6.6,0,0,0,.213.042.471.471,0,0,0,.157,0,.4.4,0,0,1,.143-.032c.032,0,.051,0,.051.042s-.028.051-.074.074a.848.848,0,0,1-.361.051.791.791,0,0,1-.462-.176,1.1,1.1,0,0,1-.365-.462,63.636,63.636,0,0,1-6.7,4.717,1.09,1.09,0,0,1-.379.185c-.055,0-.083,0-.083-.046s0-.051.055-.069l.1-.042a1.707,1.707,0,0,0,.166-.1,2.5,2.5,0,0,0,.333-.324,6.908,6.908,0,0,0,.463-.6c.162-.236.351-.513.55-.823.652-1.017,1.045-1.637,1.184-1.85l.462-.647a9.232,9.232,0,0,1,.925-1.124,3.019,3.019,0,0,1-1.6.689.518.518,0,0,1-.462-.851,1.768,1.768,0,0,1,.277-.361l.254-.273c.236-.254.351-.43.347-.518a.344.344,0,0,0-.055-.194.326.326,0,0,0-.134-.1,1.128,1.128,0,0,0-.462-.079,1.961,1.961,0,0,0-1.258.518.279.279,0,0,1-.134.079c-.032,0-.046,0-.046-.051s.037-.111.125-.171a1.775,1.775,0,0,1,.291-.19,2.312,2.312,0,0,1,.347-.153,2.125,2.125,0,0,1,.68-.139,2.319,2.319,0,0,1,.462.037.949.949,0,0,1,.287.106q.588.347-.069,1.235a2.011,2.011,0,0,1-.227.259l-.194.208c-.148.157-.222.264-.227.328a.193.193,0,0,0,.2.176,1.612,1.612,0,0,0,.425-.06,2.706,2.706,0,0,0,.546-.227,8.468,8.468,0,0,0,1.656-1.253l.055-.143a1.2,1.2,0,0,1,.425-.282c.056,0,.083,0,.083.051a.06.06,0,0,1-.037.06l-.088.055a1.62,1.62,0,0,0-.462.4c-.093.129-.166.245-.222.338a21.507,21.507,0,0,1-3.3,4.712l-.68.661.865-.592.99-.708,1.059-.786,1.077-.828c.967-.782,1.637-1.332,2.007-1.66a.3.3,0,0,1,0-.065V135.3a2.848,2.848,0,0,1,.583-1.674,2.119,2.119,0,0,1,.763-.68.868.868,0,0,1,.375-.1.356.356,0,0,1,.4.393m-1.919,2,.708-.652c.689-.68,1.036-1.147,1.036-1.387a.2.2,0,0,0-.074-.166.224.224,0,0,0-.13-.055.948.948,0,0,0-.532.185,1.974,1.974,0,0,0-.49.49,2.632,2.632,0,0,0-.518,1.549Z" transform="translate(-68.861 -169.41)" fill="#ca9e67"/>
    <path id="Tracé_782" data-name="Tracé 782" d="M258.958,143.138c0,.106.1.162.3.162a1.232,1.232,0,0,0,.56-.134,3.676,3.676,0,0,0,.537-.338,6.507,6.507,0,0,0,.518-.439l.462-.462q.208-.208.333-.361l.157-.176.1.088-.19.213c-.093.111-.208.236-.347.379s-.291.3-.462.462a4.728,4.728,0,0,1-.536.462,2.065,2.065,0,0,1-1.138.462.927.927,0,0,1-.5-.116.305.305,0,0,1-.18-.259,1.088,1.088,0,0,1,.028-.259,1.862,1.862,0,0,1,.111-.277,3.859,3.859,0,0,1,.227-.375q.144-.217.375-.513c.153-.2.338-.435.555-.7l.777-.925a.981.981,0,0,0,.25,0h.236a1.312,1.312,0,0,0,.208,0q-1.674,1.979-1.878,2.247c-.139.185-.245.324-.31.43a.827.827,0,0,0-.19.425m3.209-4.231a.748.748,0,0,1-.162.1.582.582,0,0,1-.208.037.263.263,0,0,1-.2-.093.268.268,0,0,1-.079-.194.551.551,0,0,1,.037-.2.5.5,0,0,1,.111-.148.464.464,0,0,1,.324-.153.328.328,0,0,1,.254.1.3.3,0,0,1,.083.2.5.5,0,0,1-.046.194A.6.6,0,0,1,262.168,138.907Z" transform="translate(-74.994 -172.321)" fill="#ca9e67"/>
    <path id="Tracé_783" data-name="Tracé 783" d="M262.482,146.4a11.247,11.247,0,0,0,3.635-2.867l.1.088a11.2,11.2,0,0,1-3.922,3.006l-.9,1.068a6.562,6.562,0,0,1-1.85,1.6,2.465,2.465,0,0,1-1.008.194.5.5,0,0,1-.462-.217.36.36,0,0,1,0-.356,1.346,1.346,0,0,1,.25-.379,3.328,3.328,0,0,1,.425-.361,7.169,7.169,0,0,1,.666-.421,23.354,23.354,0,0,1,2.192-1.036l2.035-2.5H263.6a4.39,4.39,0,0,1-1.651,1.295,1.264,1.264,0,0,1-.37.074c-.407,0-.615-.222-.624-.661a2.242,2.242,0,0,1,.6-1.475,3.053,3.053,0,0,1,2.354-1.3,1.031,1.031,0,0,1,.523.116q.31.176.139.6l.462-.606a.98.98,0,0,0,.264.042,3.05,3.05,0,0,0,.421,0Zm-1.045.536a9.017,9.017,0,0,0-3.052,1.762.779.779,0,0,0-.176.462c0,.037.032.079.092.125a.433.433,0,0,0,.259.079,1.392,1.392,0,0,0,.333-.042,1.516,1.516,0,0,0,.347-.143,2.743,2.743,0,0,0,.393-.282,3.617,3.617,0,0,0,.462-.462c.162-.2.375-.393.592-.638Zm3.061-4.352c0-.2-.157-.305-.463-.305a2.486,2.486,0,0,0-1.35.819,7.967,7.967,0,0,0-.643.708,2.431,2.431,0,0,0-.68,1.341.339.339,0,0,0,.065.208.246.246,0,0,0,.185.055,1.119,1.119,0,0,0,.347-.079,2.344,2.344,0,0,0,.462-.277,7.734,7.734,0,0,0,1.332-1.253l.393-.462a1.46,1.46,0,0,0,.365-.777Z" transform="translate(-74.703 -174.411)" fill="#ca9e67"/>
    <path id="Tracé_784" data-name="Tracé 784" d="M274.943,145.507a1.9,1.9,0,0,0-.3,0,1.786,1.786,0,0,0-.462.046l1.753-2.483a2.2,2.2,0,0,0,.338-.541c0-.111,0-.162-.1-.166s-.435.305-.925.925l-.324.4a.073.073,0,0,1-.083-.023c-.028-.032-.032-.051,0-.065.1-.1.2-.236.328-.393s.25-.31.384-.462c.333-.361.606-.541.823-.541.365,0,.486.19.347.569a1.332,1.332,0,0,1-.176.31l-1.059,1.461.023.056a23.182,23.182,0,0,1,1.8-1.827,2.625,2.625,0,0,1,.758-.49,1.58,1.58,0,0,1,.407-.069.706.706,0,0,1,.273.046.508.508,0,0,1,.18.116.421.421,0,0,1,.13.314,1.25,1.25,0,0,1-.074.375,2.312,2.312,0,0,1-.231.462,10.646,10.646,0,0,1-1.138,1.387,2.77,2.77,0,0,0-.351.4.388.388,0,0,0,0,.088c0,.079.1.116.31.116a1.385,1.385,0,0,0,.578-.125,3.244,3.244,0,0,0,.527-.324,4.769,4.769,0,0,0,.495-.425,5.515,5.515,0,0,0,.421-.462c.125-.157.227-.264.31-.37l.171-.208.106.088c-.032.037-.092.106-.18.217s-.2.236-.324.379-.277.3-.439.462a5.737,5.737,0,0,1-.518.439,1.979,1.979,0,0,1-1.147.462.74.74,0,0,1-.624-.227.258.258,0,0,1-.056-.167,1.017,1.017,0,0,1,.028-.217,1.337,1.337,0,0,1,.134-.314,5.622,5.622,0,0,1,.675-.888c.291-.324.462-.541.573-.657a1.735,1.735,0,0,0,.217-.3.881.881,0,0,0,.153-.37c0-.12-.083-.18-.241-.18-.333,0-.883.37-1.646,1.114a17.267,17.267,0,0,0-1.332,1.475Z" transform="translate(-83.385 -174.44)" fill="#ca9e67"/>
    <path id="Tracé_785" data-name="Tracé 785" d="M288.148,145.141a3.269,3.269,0,0,1-.689.333,2.084,2.084,0,0,1-.7.129,1.675,1.675,0,0,1-.5-.069.779.779,0,0,1-.282-.19c-.31-.347-.31-.846,0-1.512a2.428,2.428,0,0,1,.624-.8,4.7,4.7,0,0,1,.735-.541,2.345,2.345,0,0,1,1.152-.347q.532,0,.555.333c.023.361-.416.749-1.309,1.165a11.216,11.216,0,0,1-1.244.462,1.672,1.672,0,0,0-.3.786.522.522,0,0,0,.157.43.708.708,0,0,0,.463.13,1.979,1.979,0,0,0,.657-.125,3.711,3.711,0,0,0,.666-.328,4.074,4.074,0,0,0,.56-.435c.171-.157.319-.31.462-.462a3.992,3.992,0,0,0,.315-.37,1.678,1.678,0,0,1,.171-.2l.106.088a1.587,1.587,0,0,0-.2.222c-.093.116-.2.245-.338.388s-.3.3-.462.462a3.991,3.991,0,0,1-.592.453m-1.521-1.207a4.722,4.722,0,0,0,1.961-1.05.536.536,0,0,0,.143-.342c0-.185-.083-.282-.259-.282-.305,0-.694.268-1.156.8a8.838,8.838,0,0,0-.689.869" transform="translate(-89.598 -174.407)" fill="#ca9e67"/>
    <path id="Tracé_786" data-name="Tracé 786" d="M294.532,144.488q0,.236.194.236a.957.957,0,0,0,.462-.12,3.535,3.535,0,0,0,.462-.3,5.676,5.676,0,0,0,.495-.412l.435-.435c.134-.134.254-.259.352-.37l.2-.231.1.088c-.091.083-.177.172-.259.264l-.361.4a3.316,3.316,0,0,1-2.113,1.286.711.711,0,0,1-.462-.143.463.463,0,0,1-.171-.379c0-.495.731-1.23,2.187-2.2a6.579,6.579,0,0,1-1.471-.365,5.294,5.294,0,0,1-1.027,1.387.922.922,0,0,1-.2.18h-.046v-.028a.112.112,0,0,1,0-.056v-.037c.157-.176.305-.347.439-.509a5.763,5.763,0,0,0,.694-1.031.421.421,0,0,1-.208-.245.624.624,0,0,1,0-.245.74.74,0,0,1,.088-.2.371.371,0,0,1,.305-.194c.208,0,.314.079.314.231a.383.383,0,0,1-.046.2l-.092.153a.429.429,0,0,0-.088.268c0,.06.125.116.379.171l.546.111a3.8,3.8,0,0,0,.555.079c.1,0,.143.028.143.079s-.055.088-.166.171-.227.194-.361.314a5.023,5.023,0,0,0-.379.388c-.12.134-.245.273-.356.412a4.845,4.845,0,0,0-.291.407,1.348,1.348,0,0,0-.259.675" transform="translate(-93.67 -173.703)" fill="#ca9e67"/>
    <path id="Tracé_787" data-name="Tracé 787" d="M303.033,144.809a.286.286,0,0,1-.268-.148,2.97,2.97,0,0,1-1.295.893,1.424,1.424,0,0,1-.462.065,1.106,1.106,0,0,1-.375-.051.64.64,0,0,1-.254-.139c-.273-.236-.3-.643-.079-1.212a2.969,2.969,0,0,1,.328-.624,3.852,3.852,0,0,1,.462-.541,4.062,4.062,0,0,1,.536-.462,2.231,2.231,0,0,1,1.267-.43.767.767,0,0,1,.462.139.49.49,0,0,1,.208.4,1.806,1.806,0,0,1-.032.462,2.84,2.84,0,0,1-.139.462,3.237,3.237,0,0,1-.513.869.176.176,0,0,0,.19.148.665.665,0,0,0,.3-.069,2.122,2.122,0,0,0,.287-.18,3.426,3.426,0,0,0,.282-.24c.092-.088.18-.171.259-.254l.19-.208.116-.129.111.083a2.093,2.093,0,0,0-.166.171l-.227.236-.268.259a1.428,1.428,0,0,1-.92.5m-2.086.62a.508.508,0,0,0,.227.042,1.6,1.6,0,0,0,.837-.361,3.75,3.75,0,0,0,.7-.647.725.725,0,0,1,.324-.643.764.764,0,0,1,.162-.083,1.882,1.882,0,0,0,.227-.837c0-.347-.143-.518-.379-.518q-.592,0-1.665,1.327a2.205,2.205,0,0,0-.652,1.341A.4.4,0,0,0,300.947,145.429Z" transform="translate(-97.347 -174.418)" fill="#ca9e67"/>
    <path id="Tracé_788" data-name="Tracé 788" d="M308.963,145.6a1.566,1.566,0,0,0-.3-.028,1.972,1.972,0,0,0-.462.051l1.753-2.483a2.633,2.633,0,0,0,.338-.541c0-.111-.023-.166-.106-.166s-.43.305-.925.925l-.324.393a.064.064,0,0,1-.083,0c-.028-.032-.037-.051-.023-.065.1-.1.208-.236.333-.393s.25-.31.384-.462q.49-.55.819-.541c.37,0,.486.19.351.564a1.42,1.42,0,0,1-.176.314l-1.064,1.461.028.055a23.162,23.162,0,0,1,1.8-1.827,2.574,2.574,0,0,1,.758-.49,1.621,1.621,0,0,1,.407-.074.77.77,0,0,1,.268.051.461.461,0,0,1,.185.116.417.417,0,0,1,.125.314,1.187,1.187,0,0,1-.069.37,2.624,2.624,0,0,1-.231.462A10.42,10.42,0,0,1,311.608,145a1.986,1.986,0,0,0-.347.4.392.392,0,0,0,0,.088c0,.074.1.116.305.116a1.357,1.357,0,0,0,.578-.125,3.176,3.176,0,0,0,.527-.324,4.762,4.762,0,0,0,.495-.425,5.46,5.46,0,0,0,.421-.462l.314-.37c.083-.106.139-.176.171-.208l.106.083c-.037.037-.1.111-.185.222s-.194.236-.324.379-.277.3-.439.462a4.158,4.158,0,0,1-.513.462,1.979,1.979,0,0,1-1.147.462.749.749,0,0,1-.629-.227.258.258,0,0,1-.055-.166.991.991,0,0,1,.032-.217,1.161,1.161,0,0,1,.134-.314,5.408,5.408,0,0,1,.671-.888c.291-.324.486-.546.573-.657s.162-.213.217-.3a.79.79,0,0,0,.153-.37c0-.12-.079-.18-.24-.18-.333,0-.879.37-1.646,1.115a18.961,18.961,0,0,0-1.332,1.475Z" transform="translate(-101.673 -174.488)" fill="#ca9e67"/>
    <path id="Tracé_789" data-name="Tracé 789" d="M320.835,144.124a.7.7,0,0,0,.153,0,.4.4,0,0,0,.222-.069,2.01,2.01,0,0,0,.268-.176c.092-.074.185-.157.277-.245l.25-.254.2-.222.116-.148.111.083-.157.166-.213.241c-.462.5-.837.749-1.105.749h-.088a.223.223,0,0,1-.079,0,1.783,1.783,0,0,1-1.8.925,1.128,1.128,0,0,1-.865-.291.462.462,0,0,1-.116-.319.565.565,0,0,1,.1-.333.85.85,0,0,1,.217-.227.8.8,0,0,1,.462-.185c.134,0,.2.065.2.19s-.083.153-.222.194a.4.4,0,0,1-.125.023.18.18,0,0,1-.12-.046l-.092-.06-.079.069a.583.583,0,0,0-.092.092.462.462,0,0,0-.116.277.294.294,0,0,0,.1.231.64.64,0,0,0,.227.13,1.094,1.094,0,0,0,.407.074,1.2,1.2,0,0,0,.462-.088,1.438,1.438,0,0,0,.462-.3,2.41,2.41,0,0,0,.666-1.706,4.145,4.145,0,0,1,.19-1.2.105.105,0,0,0,0-.042l-1.189,1.448a1.073,1.073,0,0,1-.2.19c-.042,0-.065,0-.079-.028s0-.051.046-.1c.865-1.027,1.355-1.609,1.461-1.748.056-.264.143-.393.264-.393a.253.253,0,0,1,.143.046.148.148,0,0,1,.055.116.564.564,0,0,1-.153.268c-.1.116-.162.19-.185.222a.657.657,0,0,0-.042.079.3.3,0,0,0,0,.065v.06a1.649,1.649,0,0,0,.023.319l.12.832a2.235,2.235,0,0,1-.083,1.087" transform="translate(-106.946 -173.811)" fill="#ca9e67"/>
    <path id="Tracé_790" data-name="Tracé 790" d="M95.759,93.882H51.54V49.63h177.6V94.349H184.023" transform="translate(36.295 -124.679)" fill="none" stroke="#ca9e67" stroke-miterlimit="10" stroke-width="0.3"/>
    <path id="Tracé_791" data-name="Tracé 791" d="M94.154,94.109H48.51V52.66H228.916V94.576H182.482" transform="translate(37.923 -126.307)" fill="none" stroke="#ca9e67" stroke-miterlimit="10" stroke-width="0.75"/>
    <path id="Tracé_792" data-name="Tracé 792" d="M77.19,68.7h3.367V88.243h4.588v2.65H77.19Z" transform="translate(22.507 -134.93)" fill="#fff"/>
    <path id="Tracé_793" data-name="Tracé 793" d="M107.06,68.7h8.222v2.65h-4.86v6.641h3.755v2.65h-3.755v7.6h4.99v2.65H107.06Z" transform="translate(6.45 -134.93)" fill="#fff"/>
    <path id="Tracé_794" data-name="Tracé 794" d="M158.773,68.7h3.4c.5,0,1.022,0,1.558.051a9.685,9.685,0,0,1,1.572.222,6.479,6.479,0,0,1,1.457.49,3.994,3.994,0,0,1,1.2.888,4.158,4.158,0,0,1,.819,1.387,5.7,5.7,0,0,1,.305,1.979V74.8a4.941,4.941,0,0,1-.254,1.628,4.744,4.744,0,0,1-.666,1.3,4.027,4.027,0,0,1-.948.925,3.156,3.156,0,0,1-1.114.523v.1a3.612,3.612,0,0,1,2.493,1.568,5.784,5.784,0,0,1,.837,3.237v1.128a7.27,7.27,0,0,1-.268,2.1,4.719,4.719,0,0,1-.745,1.521,4.12,4.12,0,0,1-1.147,1.031,5.776,5.776,0,0,1-1.452.629,9.149,9.149,0,0,1-1.693.314q-.9.083-1.85.083H158.75Zm3.949,9.5a4.455,4.455,0,0,0,1.235-.162,2.5,2.5,0,0,0,.957-.509,2.245,2.245,0,0,0,.61-.9,3.647,3.647,0,0,0,.213-1.332v-.925a5.353,5.353,0,0,0-.157-1.387,2.434,2.434,0,0,0-.513-1.017,2.215,2.215,0,0,0-.925-.629,4.064,4.064,0,0,0-1.387-.213h-.647V78.2Zm.314,10.354a3.932,3.932,0,0,0,1.225-.176,2.386,2.386,0,0,0,.948-.546,2.432,2.432,0,0,0,.61-.925,3.849,3.849,0,0,0,.217-1.355V83.8a5.478,5.478,0,0,0-.157-1.387,2.392,2.392,0,0,0-.513-1.013,2.237,2.237,0,0,0-.925-.624,4,4,0,0,0-1.387-.213h-.962v7.977Z" transform="translate(-21.336 -134.93)" fill="#fff"/>
    <path id="Tracé_795" data-name="Tracé 795" d="M200.48,90.861a8.794,8.794,0,0,1-1.156-.083,4.505,4.505,0,0,1-3.413-2.451,7.688,7.688,0,0,1-.694-2.021,13.517,13.517,0,0,1-.259-2.863V75.582a13.47,13.47,0,0,1,.264-2.867,8,8,0,0,1,.708-2,4.333,4.333,0,0,1,2.192-2.026,5.075,5.075,0,0,1,1.225-.333,9.191,9.191,0,0,1,1.133-.074,9.651,9.651,0,0,1,1.1.069,4.872,4.872,0,0,1,1.212.31,4.452,4.452,0,0,1,1.175.717,4.366,4.366,0,0,1,1.031,1.286,7.6,7.6,0,0,1,.708,2.016,13.4,13.4,0,0,1,.268,2.9v7.862a12.958,12.958,0,0,1-.273,2.839,8.012,8.012,0,0,1-.717,2.012,4.56,4.56,0,0,1-1.017,1.327,5.294,5.294,0,0,1-1.184.782,4.49,4.49,0,0,1-1.2.37,7.246,7.246,0,0,1-1.1.088m0-2.534a2.1,2.1,0,0,0,.865-.166,1.385,1.385,0,0,0,.61-.587,3.416,3.416,0,0,0,.365-1.1,10.348,10.348,0,0,0,.12-1.72v-10.1a11.19,11.19,0,0,0-.12-1.78,3.64,3.64,0,0,0-.365-1.147,1.434,1.434,0,0,0-.61-.62,1.964,1.964,0,0,0-.865-.18,2.025,2.025,0,0,0-.883.18,1.439,1.439,0,0,0-.615.62,3.517,3.517,0,0,0-.37,1.147,10.619,10.619,0,0,0-.125,1.78v10.1a9.829,9.829,0,0,0,.125,1.72,3.3,3.3,0,0,0,.37,1.1,1.387,1.387,0,0,0,.624.587,2.162,2.162,0,0,0,.874.166" transform="translate(-40.799 -134.704)" fill="#fff"/>
    <path id="Tracé_796" data-name="Tracé 796" d="M233.5,68.7h3.394V84.969a12.016,12.016,0,0,0,.1,1.73,3.27,3.27,0,0,0,.333,1.1,1.363,1.363,0,0,0,.583.583,1.875,1.875,0,0,0,.851.176,1.949,1.949,0,0,0,.865-.176,1.389,1.389,0,0,0,.61-.583,3.342,3.342,0,0,0,.365-1.1,9.977,9.977,0,0,0,.125-1.73V68.7h3.353V84.072a12.677,12.677,0,0,1-.264,2.775,7.256,7.256,0,0,1-.689,1.938,4.164,4.164,0,0,1-.98,1.235,4.389,4.389,0,0,1-2.312,1,9.061,9.061,0,0,1-1.068.065,8.906,8.906,0,0,1-1.059-.065,4.189,4.189,0,0,1-1.161-.305,4.107,4.107,0,0,1-2.1-1.928,7.316,7.316,0,0,1-.684-1.928,13.026,13.026,0,0,1-.254-2.775Z" transform="translate(-61.518 -134.93)" fill="#fff"/>
    <path id="Tracé_797" data-name="Tracé 797" d="M276.54,90.858a8.308,8.308,0,0,1-1.124-.083,4.422,4.422,0,0,1-1.207-.356,4.5,4.5,0,0,1-1.156-.772,4.606,4.606,0,0,1-.976-1.323A7.9,7.9,0,0,1,271.4,86.3a13.891,13.891,0,0,1-.254-2.863V75.579a13.8,13.8,0,0,1,.259-2.867,8.011,8.011,0,0,1,.689-2,4.329,4.329,0,0,1,.99-1.29,4.422,4.422,0,0,1,1.156-.735,4.783,4.783,0,0,1,1.188-.333,8.514,8.514,0,0,1,1.1-.074,5.728,5.728,0,0,1,2.215.37,3.569,3.569,0,0,1,1.429,1.013,3.812,3.812,0,0,1,.768,1.5,7.066,7.066,0,0,1,.227,1.822,11.594,11.594,0,0,1-.069,1.341c-.046.4-.12.846-.213,1.332H278.15V74.5a7.1,7.1,0,0,0-.4-2.742,1.277,1.277,0,0,0-1.179-.925,1.754,1.754,0,0,0-.819.18,1.422,1.422,0,0,0-.587.62,3.789,3.789,0,0,0-.356,1.147,10.633,10.633,0,0,0-.125,1.78V84.7a12.717,12.717,0,0,0,.1,1.73,3.38,3.38,0,0,0,.319,1.105,1.352,1.352,0,0,0,.578.592,1.976,1.976,0,0,0,.865.176,1.352,1.352,0,0,0,.624-.153,1.426,1.426,0,0,0,.527-.462,2.6,2.6,0,0,0,.361-.8,4.219,4.219,0,0,0,.139-1.151V83.57h3.08v2.053a5.529,5.529,0,0,1-1.221,3.949,4.655,4.655,0,0,1-3.51,1.286" transform="translate(-81.755 -134.701)" fill="#fff"/>
    <path id="Tracé_798" data-name="Tracé 798" d="M306.83,68.7H310.2v9.291h3.986V68.7h3.367V90.9h-3.367V80.64H310.2V90.893H306.83Z" transform="translate(-100.936 -134.93)" fill="#fff"/>
    <path id="Tracé_799" data-name="Tracé 799" d="M350.53,90.861a8.793,8.793,0,0,1-1.156-.083,4.505,4.505,0,0,1-3.413-2.451,7.857,7.857,0,0,1-.694-2.021,13.516,13.516,0,0,1-.259-2.863V75.582a13.47,13.47,0,0,1,.264-2.867,7.816,7.816,0,0,1,.712-2,4.437,4.437,0,0,1,1-1.29,4.563,4.563,0,0,1,1.184-.735,5.09,5.09,0,0,1,1.23-.333,9.113,9.113,0,0,1,1.128-.074,9.65,9.65,0,0,1,1.1.069,4.827,4.827,0,0,1,1.212.31,4.452,4.452,0,0,1,1.175.717,4.222,4.222,0,0,1,1.008,1.286,7.594,7.594,0,0,1,.708,2.016,13.4,13.4,0,0,1,.268,2.9v7.862a12.954,12.954,0,0,1-.273,2.839,8.007,8.007,0,0,1-.717,2.012,4.559,4.559,0,0,1-1.017,1.327,5.294,5.294,0,0,1-1.184.782,4.489,4.489,0,0,1-1.2.37,7.25,7.25,0,0,1-1.073.088m0-2.534a2.094,2.094,0,0,0,.865-.166,1.385,1.385,0,0,0,.61-.587,3.418,3.418,0,0,0,.365-1.1,10.349,10.349,0,0,0,.12-1.72v-10.1a11.19,11.19,0,0,0-.12-1.78A3.645,3.645,0,0,0,352,71.73a1.434,1.434,0,0,0-.61-.62,1.95,1.95,0,0,0-.865-.18,2.025,2.025,0,0,0-.883.18,1.462,1.462,0,0,0-.638.62,3.517,3.517,0,0,0-.37,1.147,10.621,10.621,0,0,0-.125,1.78v10.1a9.822,9.822,0,0,0,.125,1.72,3.3,3.3,0,0,0,.37,1.1,1.387,1.387,0,0,0,.624.587,2.17,2.17,0,0,0,.9.166" transform="translate(-121.458 -134.704)" fill="#fff"/>
    <path id="Tracé_800" data-name="Tracé 800" d="M383.72,68.7h2.747l5.383,14.849h.074c-.023-.342-.06-.731-.1-1.156s-.083-.925-.116-1.447-.065-1.151-.092-1.85-.037-1.457-.037-2.312V68.7h3.015V90.9h-2.775l-5.351-14.465h-.1c.023.388.06.809.1,1.267s.083.99.116,1.6.065,1.332.092,2.15.037,1.79.037,2.918v6.521h-2.987Z" transform="translate(-142.269 -134.93)" fill="#fff"/>
    <path id="Tracé_801" data-name="Tracé 801" d="M79.94,70.63h3.367V90.173h4.588v2.654H79.94Z" transform="translate(21.028 -135.967)" fill="none" stroke="#fff" stroke-miterlimit="10" stroke-width="0.75"/>
    <path id="Tracé_802" data-name="Tracé 802" d="M109.81,70.63h8.222v2.645h-4.86v6.645h3.755v2.654h-3.755v7.6h4.99v2.654H109.81Z" transform="translate(4.972 -135.967)" fill="none" stroke="#fff" stroke-miterlimit="10" stroke-width="0.75"/>
    <path id="Tracé_803" data-name="Tracé 803" d="M161.545,70.63h3.4c.5,0,1.022,0,1.558.051a10.786,10.786,0,0,1,1.572.222,6.942,6.942,0,0,1,1.457.523,3.934,3.934,0,0,1,1.2.893,4.107,4.107,0,0,1,.819,1.387,5.728,5.728,0,0,1,.305,1.984v1.078a4.936,4.936,0,0,1-.254,1.623,4.771,4.771,0,0,1-.666,1.309,4.158,4.158,0,0,1-.953.925,3.177,3.177,0,0,1-1.091.5v.106a3.608,3.608,0,0,1,2.493,1.563,5.8,5.8,0,0,1,.837,3.237v1.119a7.287,7.287,0,0,1-.268,2.1,4.692,4.692,0,0,1-.745,1.517,4.164,4.164,0,0,1-1.147,1.036,5.937,5.937,0,0,1-1.452.629,9.148,9.148,0,0,1-1.693.31,18.428,18.428,0,0,1-1.85.088H161.54Zm3.949,9.5a4.285,4.285,0,0,0,1.235-.162,2.5,2.5,0,0,0,.957-.5,2.274,2.274,0,0,0,.61-.9,3.7,3.7,0,0,0,.213-1.332v-.925a5.372,5.372,0,0,0-.157-1.387,2.444,2.444,0,0,0-.513-1.013,2.215,2.215,0,0,0-.925-.629,4.053,4.053,0,0,0-1.387-.217h-.694v7.066Zm.314,10.359a4.073,4.073,0,0,0,1.225-.176,2.388,2.388,0,0,0,1.558-1.471,3.823,3.823,0,0,0,.217-1.35v-1.73a5.434,5.434,0,0,0-.157-1.387,2.392,2.392,0,0,0-.513-1.013,2.261,2.261,0,0,0-.925-.624,4,4,0,0,0-1.387-.213h-.994V90.5Z" transform="translate(-22.836 -135.967)" fill="none" stroke="#fff" stroke-miterlimit="10" stroke-width="0.75"/>
    <path id="Tracé_804" data-name="Tracé 804" d="M203.24,92.8a8.789,8.789,0,0,1-1.156-.083,4.543,4.543,0,0,1-2.409-1.133,4.627,4.627,0,0,1-1-1.318,7.757,7.757,0,0,1-.694-2.021,13.558,13.558,0,0,1-.259-2.867V77.512a13.428,13.428,0,0,1,.264-2.863,7.938,7.938,0,0,1,.708-2,4.624,4.624,0,0,1,1.008-1.295,4.41,4.41,0,0,1,1.184-.731,4.7,4.7,0,0,1,1.225-.333,9.191,9.191,0,0,1,1.133-.079,9.654,9.654,0,0,1,1.1.069,4.882,4.882,0,0,1,1.212.314,4.208,4.208,0,0,1,2.183,1.993,7.6,7.6,0,0,1,.708,2.012,13.46,13.46,0,0,1,.268,2.9v7.862a12.958,12.958,0,0,1-.273,2.839,7.99,7.99,0,0,1-.717,2.016,4.534,4.534,0,0,1-1.017,1.323,4.978,4.978,0,0,1-1.184.782,4.49,4.49,0,0,1-1.2.37A7.319,7.319,0,0,1,203.24,92.8Zm0-2.534a2.03,2.03,0,0,0,.865-.171,1.387,1.387,0,0,0,.61-.583,3.532,3.532,0,0,0,.365-1.1,10.4,10.4,0,0,0,.12-1.725v-10.1a11.183,11.183,0,0,0-.12-1.78,3.834,3.834,0,0,0-.365-1.152,1.423,1.423,0,0,0-.615-.61,1.907,1.907,0,0,0-.865-.185,1.961,1.961,0,0,0-.883.185,1.423,1.423,0,0,0-.624.615,3.588,3.588,0,0,0-.37,1.152,10.569,10.569,0,0,0-.125,1.78v10.1a9.883,9.883,0,0,0,.125,1.725,3.3,3.3,0,0,0,.37,1.1,1.387,1.387,0,0,0,.624.583A2.088,2.088,0,0,0,203.24,90.262Z" transform="translate(-42.282 -135.741)" fill="none" stroke="#fff" stroke-miterlimit="10" stroke-width="0.75"/>
    <path id="Tracé_805" data-name="Tracé 805" d="M236.248,70.63h3.394V86.9a11.959,11.959,0,0,0,.1,1.73,3.306,3.306,0,0,0,.333,1.1,1.363,1.363,0,0,0,.583.583,1.942,1.942,0,0,0,.851.176,2.018,2.018,0,0,0,.865-.176,1.389,1.389,0,0,0,.61-.583,3.37,3.37,0,0,0,.365-1.1,9.932,9.932,0,0,0,.125-1.73V70.63h3.353V86a12.679,12.679,0,0,1-.264,2.775,7.22,7.22,0,0,1-.689,1.933,4.035,4.035,0,0,1-.98,1.235,4.381,4.381,0,0,1-1.142.7,4.609,4.609,0,0,1-1.175.305,10.169,10.169,0,0,1-1.068.065,9.994,9.994,0,0,1-1.059-.065,4.545,4.545,0,0,1-1.161-.305,4.427,4.427,0,0,1-1.133-.7,4.167,4.167,0,0,1-.971-1.235,7.254,7.254,0,0,1-.684-1.928,13,13,0,0,1-.254-2.775Z" transform="translate(-62.994 -135.967)" fill="none" stroke="#fff" stroke-miterlimit="10" stroke-width="0.75"/>
    <path id="Tracé_806" data-name="Tracé 806" d="M279.29,92.777a8.307,8.307,0,0,1-1.124-.083,4.441,4.441,0,0,1-1.207-.361,4.382,4.382,0,0,1-1.156-.772,4.578,4.578,0,0,1-.976-1.318,7.932,7.932,0,0,1-.675-2.021,13.935,13.935,0,0,1-.254-2.867V77.493a13.767,13.767,0,0,1,.259-2.863,7.974,7.974,0,0,1,.689-2,4.409,4.409,0,0,1,.99-1.295,4.283,4.283,0,0,1,1.156-.731,4.4,4.4,0,0,1,1.189-.347,8.607,8.607,0,0,1,1.1-.079,5.821,5.821,0,0,1,2.215.37,3.617,3.617,0,0,1,1.429,1.013,3.833,3.833,0,0,1,.768,1.5,7.027,7.027,0,0,1,.227,1.817,11.694,11.694,0,0,1-.069,1.323c-.046.4-.12.846-.213,1.332H280.9V76.416a7.12,7.12,0,0,0-.4-2.742,1.281,1.281,0,0,0-1.179-.925,1.751,1.751,0,0,0-.819.185,1.431,1.431,0,0,0-.587.615,3.842,3.842,0,0,0-.356,1.151,10.631,10.631,0,0,0-.125,1.78V86.617a12.649,12.649,0,0,0,.1,1.725,3.358,3.358,0,0,0,.319,1.105,1.33,1.33,0,0,0,.578.592,1.976,1.976,0,0,0,.865.176,1.387,1.387,0,0,0,.624-.148,1.476,1.476,0,0,0,.527-.462,2.578,2.578,0,0,0,.361-.809,4.192,4.192,0,0,0,.139-1.147V85.475h3.08v2.053a5.546,5.546,0,0,1-1.221,3.954A4.686,4.686,0,0,1,279.29,92.777Z" transform="translate(-83.233 -135.722)" fill="none" stroke="#fff" stroke-miterlimit="10" stroke-width="0.75"/>
    <path id="Tracé_807" data-name="Tracé 807" d="M309.58,70.63h3.367v9.291h3.986V70.63H320.3v22.2h-3.367V82.575h-3.986V92.828H309.58Z" transform="translate(-102.415 -135.967)" fill="none" stroke="#fff" stroke-miterlimit="10" stroke-width="0.75"/>
    <path id="Tracé_808" data-name="Tracé 808" d="M353.24,92.78a8.793,8.793,0,0,1-1.156-.083,4.543,4.543,0,0,1-2.409-1.133,4.625,4.625,0,0,1-1-1.318,7.912,7.912,0,0,1-.694-2.021,13.56,13.56,0,0,1-.259-2.867V77.5a13.421,13.421,0,0,1,.264-2.863,7.749,7.749,0,0,1,.712-2,4.517,4.517,0,0,1,1-1.295,4.417,4.417,0,0,1,1.184-.731,4.69,4.69,0,0,1,1.249-.347,9.116,9.116,0,0,1,1.128-.079,9.65,9.65,0,0,1,1.1.069,4.834,4.834,0,0,1,1.212.314,4.434,4.434,0,0,1,1.175.712,4.379,4.379,0,0,1,1.013,1.295,7.6,7.6,0,0,1,.708,2.012,13.46,13.46,0,0,1,.268,2.9v7.862a12.958,12.958,0,0,1-.273,2.839,7.99,7.99,0,0,1-.717,2.016,4.537,4.537,0,0,1-1.017,1.323,4.99,4.99,0,0,1-1.17.791,4.49,4.49,0,0,1-1.2.37A7.317,7.317,0,0,1,353.24,92.78Zm0-2.534a2.015,2.015,0,0,0,.865-.171,1.386,1.386,0,0,0,.61-.583,3.414,3.414,0,0,0,.365-1.1,10.4,10.4,0,0,0,.12-1.725v-10.1a11.19,11.19,0,0,0-.12-1.78,3.7,3.7,0,0,0-.365-1.151,1.423,1.423,0,0,0-.592-.61,1.9,1.9,0,0,0-.865-.185,1.962,1.962,0,0,0-.883.185,1.452,1.452,0,0,0-.624.615,3.588,3.588,0,0,0-.37,1.152,10.566,10.566,0,0,0-.125,1.78v10.1a9.883,9.883,0,0,0,.125,1.725,3.3,3.3,0,0,0,.37,1.1,1.387,1.387,0,0,0,.624.583A2.1,2.1,0,0,0,353.24,90.246Z" transform="translate(-122.915 -135.725)" fill="none" stroke="#fff" stroke-miterlimit="10" stroke-width="0.75"/>
    <path id="Tracé_809" data-name="Tracé 809" d="M386.47,70.63H389.2l5.383,14.854h.074c-.023-.347-.06-.731-.1-1.156s-.083-.925-.116-1.447-.065-1.156-.092-1.85-.037-1.457-.037-2.312V70.63h3.015v22.2h-2.775l-5.337-14.465h-.1c.023.388.06.814.1,1.267s.083.99.116,1.6.065,1.332.092,2.15.037,1.794.037,2.918v6.525H386.47Z" transform="translate(-143.747 -135.967)" fill="none" stroke="#fff" stroke-miterlimit="10" stroke-width="0.75"/>
  </g>
</svg>
