<svg xmlns="http://www.w3.org/2000/svg" xmlns:xlink="http://www.w3.org/1999/xlink" width="69.095" height="69.095" viewBox="0 0 69.095 69.095">
  <defs>
    <clipPath id="clip-path">
      <rect id="Rectangle_22" data-name="Rectangle 22" width="69.095" height="69.095" fill="#fff"/>
    </clipPath>
  </defs>
  <g id="Groupe_72" data-name="Groupe 72" transform="translate(-750.452 -1545.809)">
    <g id="Groupe_47" data-name="Groupe 47" transform="translate(750.452 1545.81)">
      <g id="Groupe_17" data-name="Groupe 17" transform="translate(0 0)" clip-path="url(#clip-path)">
        <path id="Tracé_83" data-name="Tracé 83" d="M24.836,14.976A9.323,9.323,0,1,0,34.159,24.3a9.335,9.335,0,0,0-9.323-9.323m0,17.548A8.226,8.226,0,1,1,33.058,24.3a8.232,8.232,0,0,1-8.222,8.225" transform="translate(32.196 31.088)" fill="#fff"/>
        <path id="Tracé_84" data-name="Tracé 84" d="M69.1,21.937a21.935,21.935,0,1,0-43.87,0,22.571,22.571,0,0,0,.3,3.586,22.216,22.216,0,0,0-3.586-.3,21.777,21.777,0,0,0-10.864,2.894l-.025-.018-.034.049A21.938,21.938,0,1,0,43.572,43.572a22.225,22.225,0,0,0,3.589.3A21.959,21.959,0,0,0,69.1,21.937M19.205,52.046c-.062-.541-.108-1.089-.141-1.642.554-.022,1.1-.049,1.649-.086.04.554.092,1.1.16,1.642-.551.037-1.107.065-1.667.086m1.818,1.009c1,6.081,3.851,11.217,7.779,13.774a19.326,19.326,0,0,1-2.1.612c-3.759-2.633-6.447-7.963-7.364-14.3.563-.025,1.126-.049,1.682-.083M7.311,51.388c-.052-.569-.092-1.147-.123-1.729.554.1,1.11.185,1.673.261q.06.858.151,1.7c-.572-.071-1.141-.151-1.7-.237m1.839,1.356c.812,5.761,2.91,10.836,5.872,14.072a20.7,20.7,0,0,1-3.752-1.762,33.027,33.027,0,0,1-3.848-12.54q.858.125,1.729.231M1.126,48.22a44.067,44.067,0,0,0,4.958,1.249c.028.584.062,1.166.108,1.738a48.51,48.51,0,0,1-4.881-1.1c-.089-.621-.154-1.252-.185-1.889m6-.784c0-7.194,1.7-13.9,4.669-18.47a20.77,20.77,0,0,1,4.032-1.729c-4.3,4-7.056,11.691-7.056,20.2,0,.461.012.914.031,1.372-.563-.08-1.113-.169-1.661-.265-.009-.369-.015-.738-.015-1.107m2.842,2.627a58.413,58.413,0,0,0,6.754.388c.415,0,.83-.006,1.24-.012.034.554.083,1.1.141,1.642-.461.009-.92.015-1.381.015a64.538,64.538,0,0,1-6.6-.341c-.065-.56-.114-1.123-.154-1.692m9.015-1.805c0-10.043,4.485-18.812,10.461-20.525q.9.346,1.753.772C25.089,30.62,20.633,38.768,20.633,48.256c0,.323.015.646.028.966-.544.037-1.095.065-1.649.086-.009-.348-.025-.7-.025-1.052M21.8,50.231c8.883-.76,16.523-3.5,20.5-7.44a20.064,20.064,0,0,1,.344,2.128C38.6,48.576,30.829,51.145,21.964,51.88c-.068-.541-.12-1.092-.16-1.649m-.049-1.092c-.009-.292-.025-.587-.025-.883,0-9.566,4.651-17.674,10.848-19A20.942,20.942,0,0,1,42,41.533c-3.636,4.023-11.261,6.838-20.242,7.606m15.951-17.2A27.141,27.141,0,0,0,39.3,25.2c.547.08,1.095.157,1.649.218a29.624,29.624,0,0,1-1.929,8.009c-.415-.517-.855-1.012-1.313-1.489M39.4,24.1c.04-.56.068-1.12.074-1.686.544.086,1.086.169,1.639.24-.009.56-.037,1.117-.074,1.667-.551-.065-1.1-.141-1.639-.221M26.726,17.858A33.444,33.444,0,0,0,38.38,22.223c-.006.572-.031,1.141-.068,1.707a38.731,38.731,0,0,1-11.891-3.989,20.948,20.948,0,0,1,.3-2.082M39.472,21.3c-.132-6.133-2.125-11.854-5.42-15.548.477-.388.969-.76,1.479-1.1,3.445,3.829,5.515,10.083,5.589,16.9-.557-.071-1.1-.157-1.649-.246m2.734,1.473a48.53,48.53,0,0,0,4.955.255,48.561,48.561,0,0,0,4.952-.255q.018.835.074,1.661c-1.646.154-3.325.24-5.026.24s-3.386-.086-5.032-.243c.037-.547.065-1.1.077-1.658m25.7-2.836A38.807,38.807,0,0,1,56.008,23.93c-.04-.566-.062-1.132-.068-1.707A33.461,33.461,0,0,0,67.6,17.858a20.946,20.946,0,0,1,.3,2.082M53.2,21.549c.074-6.831,2.144-13.069,5.589-16.9.508.344,1,.717,1.479,1.1-3.3,3.694-5.29,9.412-5.42,15.548-.544.089-1.095.175-1.649.246m.006,1.107c.551-.071,1.1-.154,1.639-.24.009.566.034,1.129.074,1.686q-.817.125-1.642.221c-.037-.551-.062-1.107-.071-1.667M55.023,25.2a23.366,23.366,0,0,0,5.247,12.918c-.477.388-.972.76-1.479,1.1-2.916-3.242-4.847-8.216-5.417-13.8.554-.062,1.1-.138,1.649-.218M61.1,37.405a22.286,22.286,0,0,1-5-12.377,40.263,40.263,0,0,0,11.873-3.885c.009.265.022.526.022.794a20.778,20.778,0,0,1-6.9,15.468M67.336,16.72a31.754,31.754,0,0,1-11.384,4.386C56.118,15.3,58.007,9.926,61.1,6.465A20.841,20.841,0,0,1,67.336,16.72M57.85,4.057c-3.568,4.057-5.7,10.556-5.749,17.618a47.355,47.355,0,0,1-4.94.261,47.31,47.31,0,0,1-4.94-.261c-.052-7.05-2.187-13.558-5.752-17.618a20.79,20.79,0,0,1,21.38,0M33.216,6.465c3.1,3.46,4.989,8.837,5.155,14.641A31.793,31.793,0,0,1,26.984,16.72,20.863,20.863,0,0,1,33.216,6.465M26.323,21.937c0-.268.009-.529.018-.794a40.283,40.283,0,0,0,11.876,3.885,26.487,26.487,0,0,1-1.369,6.066A21.916,21.916,0,0,0,26.68,25.748a20.821,20.821,0,0,1-.357-3.811m1.486,5.235c-5.829,2.642-9.916,11.144-9.916,21.085,0,.366.015.726.025,1.086-.4.006-.79.012-1.19.012A57.494,57.494,0,0,1,9.9,48.949c-.018-.5-.031-1.006-.031-1.513,0-9.43,3.442-17.772,8.582-20.817a20.94,20.94,0,0,1,3.482-.3,20.688,20.688,0,0,1,5.872.849M9.784,30.248A38.022,38.022,0,0,0,6.035,47.435c0,.3.006.6.012.9A42.545,42.545,0,0,1,1.1,47.063,20.821,20.821,0,0,1,9.784,30.248M1.51,51.3c1.535.412,3.134.766,4.792,1.046A36.442,36.442,0,0,0,9.357,63.759,20.877,20.877,0,0,1,1.51,51.3M17.335,67.48c-3.556-2.8-6.115-8.237-7.059-14.607,2.1.209,4.266.32,6.45.32.5,0,1.009-.012,1.51-.025.886,6.235,3.433,11.577,7.031,14.561a20.8,20.8,0,0,1-7.933-.249m12.777-1.153c-4.023-2.19-6.976-7.253-7.991-13.358,8.708-.714,16.243-3.131,20.633-6.7.009.3.022.594.022.9A20.873,20.873,0,0,1,30.112,66.327m9.673-31.89a30.215,30.215,0,0,0,2.255-8.908c1.676.16,3.386.246,5.121.246s3.445-.086,5.124-.246c.587,5.736,2.568,10.876,5.567,14.284a20.781,20.781,0,0,1-14.506,2.605,21.846,21.846,0,0,0-3.562-7.982" transform="translate(0 0.001)" fill="#fff"/>
      </g>
    </g>
  </g>
</svg>
