<svg xmlns="http://www.w3.org/2000/svg" width="45.341" height="32.119" viewBox="0 0 45.341 32.119">
  <path id="DoubleQuote.1478998e" d="M26.693,31.263l.148.27q8.625-2.35,13.316-8.089a19.257,19.257,0,0,0,4.683-12.409,10.31,10.31,0,0,0-2.978-7.743h0l0,0A10.255,10.255,0,0,0,34.58.5,9.479,9.479,0,0,0,27.6,3.4a9.609,9.609,0,0,0-2.875,7.029A9.546,9.546,0,0,0,26.264,15.9a9.468,9.468,0,0,0,3.593,3.41,8.255,8.255,0,0,0,3.72,1.135A17.373,17.373,0,0,1,31.514,25.7,26.6,26.6,0,0,1,26.693,31.263Zm-24.222,0,.148.27q8.625-2.35,13.316-8.089a19.256,19.256,0,0,0,4.683-12.409,10.309,10.309,0,0,0-2.978-7.743h0l0,0A10.256,10.256,0,0,0,10.357.5,9.479,9.479,0,0,0,3.375,3.4,9.609,9.609,0,0,0,.5,10.424,9.546,9.546,0,0,0,2.041,15.9a9.468,9.468,0,0,0,3.593,3.41,8.255,8.255,0,0,0,3.72,1.135A17.374,17.374,0,0,1,7.292,25.7,26.6,26.6,0,0,1,2.471,31.263Z" fill="#ca9e67" stroke="#ca9e67" stroke-width="1"/>
</svg>
