<svg xmlns="http://www.w3.org/2000/svg" xmlns:xlink="http://www.w3.org/1999/xlink" width="236.557" height="241.332" viewBox="0 0 236.557 241.332">
  <defs>
    <clipPath id="clip-path">
      <rect id="Rectangle_28" data-name="Rectangle 28" width="198.361" height="204.561" fill="none"/>
    </clipPath>
  </defs>
  <g id="Groupe_26" data-name="Groupe 26" transform="matrix(0.978, 0.208, -0.208, 0.978, 42.53, 0)">
    <g id="Groupe_25" data-name="Groupe 25" transform="translate(0 0)" clip-path="url(#clip-path)">
      <path id="Tracé_116" data-name="Tracé 116" d="M34.079,2.744c.047-.826,1.588-.16,2.246-.374-.047.826-1.588.16-2.246.374" transform="translate(59.739 4.063)" fill="#ca9e67" fill-rule="evenodd"/>
      <path id="Tracé_117" data-name="Tracé 117" d="M45.511,5.575c1.575-.933,4.562-.074,5.244,1.12-2.321.2-3.092-1.151-5.244-1.12" transform="translate(79.779 9.08)" fill="#ca9e67" fill-rule="evenodd"/>
      <path id="Tracé_118" data-name="Tracé 118" d="M45.1,7.136c.922-.9,2.665.562,3.747.749-.611,1.55-2.406-.7-3.747-.749" transform="translate(79.063 12.003)" fill="#ca9e67" fill-rule="evenodd"/>
      <path id="Tracé_119" data-name="Tracé 119" d="M37.481,7.869c.969-.741,1.6.889,2.624-.374-.22,1.313,1.77,1.231.749,2.244a20.848,20.848,0,0,0-3.372-1.869" transform="translate(65.702 13.139)" fill="#ca9e67" fill-rule="evenodd"/>
      <path id="Tracé_120" data-name="Tracé 120" d="M52.732,15.37c.716.157,1.613.135,1.5,1.12-.98.1-1.61-.135-1.5-1.12" transform="translate(92.414 26.944)" fill="#ca9e67" fill-rule="evenodd"/>
      <path id="Tracé_121" data-name="Tracé 121" d="M34.078,15.913c1.294.95,2.775,1.718,4.121,2.615-1.454,1.638-3.928-.672-4.121-2.615" transform="translate(59.737 27.896)" fill="#ca9e67" fill-rule="evenodd"/>
      <path id="Tracé_122" data-name="Tracé 122" d="M13.393,17.331c.275-.666.68-.055,1.123,0-.273.666-.68.055-1.123,0" transform="translate(23.477 29.84)" fill="#ca9e67" fill-rule="evenodd"/>
      <path id="Tracé_123" data-name="Tracé 123" d="M22.375,17.27c.556.44,1.674.322,1.5,1.495a1.407,1.407,0,0,1-1.5-1.495" transform="translate(39.222 30.275)" fill="#ca9e67" fill-rule="evenodd"/>
      <path id="Tracé_124" data-name="Tracé 124" d="M35.3,17.813c1.266.853,3.692.551,4.121,2.241A5.959,5.959,0,0,1,35.3,17.813" transform="translate(61.886 31.226)" fill="#ca9e67" fill-rule="evenodd"/>
      <path id="Tracé_125" data-name="Tracé 125" d="M24.008,19.035c2.566,2.8,4.341,6.384,6,10.092a37.308,37.308,0,0,1-6-10.092" transform="translate(42.085 33.369)" fill="#ca9e67" fill-rule="evenodd"/>
      <path id="Tracé_126" data-name="Tracé 126" d="M21.967,20.121c1.343,1.649,2.979,3.006,3.747,5.233-1.833.245-3.158-3.017-3.747-5.233" transform="translate(38.507 35.272)" fill="#ca9e67" fill-rule="evenodd"/>
      <path id="Tracé_127" data-name="Tracé 127" d="M21.422,21.072c1.61,1.14,3.711,3.766,3.747,5.233a10.675,10.675,0,0,1-3.747-5.233" transform="translate(37.552 36.939)" fill="#ca9e67" fill-rule="evenodd"/>
      <path id="Tracé_128" data-name="Tracé 128" d="M23.328,22.7c1.935.933,2.123,3.615,3,5.6-2.045-.826-2.4-3.339-3-5.6" transform="translate(40.893 39.795)" fill="#ca9e67" fill-rule="evenodd"/>
      <path id="Tracé_129" data-name="Tracé 129" d="M42.42,23.244c.418,2.037-1.952,1.291-2.249,2.615-.73-.873,1.145-2.332,2.249-2.615" transform="translate(70.129 40.747)" fill="#ca9e67" fill-rule="evenodd"/>
      <path id="Tracé_130" data-name="Tracé 130" d="M14.926,23.923a1.641,1.641,0,0,1,.749,1.495c-.652-.339-1.443-.837-.749-1.495" transform="translate(25.691 41.937)" fill="#ca9e67" fill-rule="evenodd"/>
      <path id="Tracé_131" data-name="Tracé 131" d="M14.21,25.145a3.716,3.716,0,0,1,1.123,2.241,2.132,2.132,0,0,1-1.123-2.241" transform="translate(24.909 44.079)" fill="#ca9e67" fill-rule="evenodd"/>
      <path id="Tracé_132" data-name="Tracé 132" d="M13.8,25.688c1.977,2.123,3.491,4.933,5.244,7.849-2.954-1.412-3.538-5.189-5.244-7.849" transform="translate(24.192 45.031)" fill="#ca9e67" fill-rule="evenodd"/>
      <path id="Tracé_133" data-name="Tracé 133" d="M20.334,28.132c.986.886,2.076,1.668,2.246,3.364a5.565,5.565,0,0,1-2.246-3.364" transform="translate(35.644 49.315)" fill="#ca9e67" fill-rule="evenodd"/>
      <path id="Tracé_134" data-name="Tracé 134" d="M68.279,28.674a12.15,12.15,0,0,1-5.619,1.869,19.576,19.576,0,0,1,5.619-1.869" transform="translate(109.84 50.265)" fill="#ca9e67" fill-rule="evenodd"/>
      <path id="Tracé_135" data-name="Tracé 135" d="M19.789,29.352c2.321,1.423,3.637,3.846,4.87,6.354a16.057,16.057,0,0,1-4.87-6.354" transform="translate(34.689 51.454)" fill="#ca9e67" fill-rule="evenodd"/>
      <path id="Tracé_136" data-name="Tracé 136" d="M60.525,29.76c.223,1.39-2.274,1.4-3.747,1.869-1.522.487-3.147,1.627-4.87,1.12,2.332-1.536,6.032-1.7,8.617-2.99" transform="translate(90.992 52.169)" fill="#ca9e67" fill-rule="evenodd"/>
      <path id="Tracé_137" data-name="Tracé 137" d="M55.208,30.576a1.033,1.033,0,0,1-1.123.749,1.033,1.033,0,0,1,1.123-.749" transform="translate(94.808 53.597)" fill="#ca9e67" fill-rule="evenodd"/>
      <path id="Tracé_138" data-name="Tracé 138" d="M60.589,31.8c-.741,1.5-3.114,1.379-4.87,1.869.765-1.478,3.185-1.308,4.87-1.869" transform="translate(97.673 55.74)" fill="#ca9e67" fill-rule="evenodd"/>
      <path id="Tracé_139" data-name="Tracé 139" d="M64.753,31.8a1.033,1.033,0,0,1-1.123.749c-.176-.8.534-.713,1.123-.749" transform="translate(111.491 55.74)" fill="#ca9e67" fill-rule="evenodd"/>
      <path id="Tracé_140" data-name="Tracé 140" d="M59.566,32.341a3.365,3.365,0,0,1-2.621.749,3.358,3.358,0,0,1,2.621-.749" transform="translate(99.822 56.687)" fill="#ca9e67" fill-rule="evenodd"/>
      <path id="Tracé_141" data-name="Tracé 141" d="M63.751,32.476c-.424.947-1.66,1.085-3,1.12.719-.655,1.955-.793,3-1.12" transform="translate(106.497 56.93)" fill="#ca9e67" fill-rule="evenodd"/>
      <path id="Tracé_142" data-name="Tracé 142" d="M64.267,32.612c.322,1.454-2.1,1.065-3.372,1.495-1.891.641-4.116,1.872-5.993,1.869,2.3-1.935,6.513-1.974,9.366-3.364" transform="translate(96.239 57.168)" fill="#ca9e67" fill-rule="evenodd"/>
      <path id="Tracé_143" data-name="Tracé 143" d="M55.63,32.762a1.654,1.654,0,0,1-1.5.749c-.38-1.126.831-.663,1.5-.749" transform="translate(94.764 57.39)" fill="#ca9e67" fill-rule="evenodd"/>
      <path id="Tracé_144" data-name="Tracé 144" d="M56.406,33.178c-.317.556-1.206.54-1.875.749-.383-1.258,1.167-.584,1.875-.749" transform="translate(95.485 58.097)" fill="#ca9e67" fill-rule="evenodd"/>
      <path id="Tracé_145" data-name="Tracé 145" d="M6.316,33.758c.275-.666.68-.052,1.123,0,2.811,3.923,6,7.474,8.617,11.587-2.183-.264-3.042-3.309-4.5-5.233a37.558,37.558,0,0,0-4.87-5.233c.033-.529.063-1.057-.374-1.12" transform="translate(11.072 58.637)" fill="#ca9e67" fill-rule="evenodd"/>
      <path id="Tracé_146" data-name="Tracé 146" d="M41.6,34.668c2.312-.44,3.386,3.785,3.372,6.354-.008,1.258-.776.2-1.126,1.12-.264.7,1.509,1.74.377,2.244-1.14.608-1.847,1.646-3.747,1.495,3.686-1.561,3.54-8.366,1.123-11.213" transform="translate(70.952 60.717)" fill="#ca9e67" fill-rule="evenodd"/>
      <path id="Tracé_147" data-name="Tracé 147" d="M5.639,35.055c3.337,3.025,5.685,7.037,8.617,10.467-1.74-.063-2.871-2.486-4.121-4.113C8.8,39.666,7.621,37.679,6.013,36.55a2.1,2.1,0,0,1-.374-1.495" transform="translate(9.877 61.451)" fill="#ca9e67" fill-rule="evenodd"/>
      <path id="Tracé_148" data-name="Tracé 148" d="M44.831,35.462c2.838,1.211,4.317,6.3,3,9.344-.33-3.783-2.087-6.142-3-9.344" transform="translate(78.587 62.164)" fill="#ca9e67" fill-rule="evenodd"/>
      <path id="Tracé_149" data-name="Tracé 149" d="M44.422,36.006c1.9.969,2.178,3.557,2.624,5.979-1.264-1.6-1.693-4.041-2.624-5.979" transform="translate(77.87 63.118)" fill="#ca9e67" fill-rule="evenodd"/>
      <path id="Tracé_150" data-name="Tracé 150" d="M33.807,43.885c1.22.529,1,2.486,3,2.244,1.88-1.239,2.533-3.7,2.621-6.728,4.82,4.165-5.165,13.181-5.619,4.485" transform="translate(59.262 69.067)" fill="#ca9e67" fill-rule="evenodd"/>
      <path id="Tracé_151" data-name="Tracé 151" d="M49.765,40.221c2.959-.44,4.556,11.951-1.123,9.718-.047-1.294,1.949-.545,2.246-1.495a8.543,8.543,0,0,0-1.123-8.223" transform="translate(85.265 70.487)" fill="#ca9e67" fill-rule="evenodd"/>
      <path id="Tracé_152" data-name="Tracé 152" d="M41.6,41.029c1.266,1.531-.787,2.937-1.123,4.11-1.839.215-2.761-.485-3-1.869A2.672,2.672,0,0,0,41.6,41.029Z" transform="translate(65.704 71.923)" fill="#ca9e67" fill-rule="evenodd"/>
      <path id="Tracé_153" data-name="Tracé 153" d="M49.493,41.028c1.844.812,2.522,7.573-1.123,5.605,1.677-.763,1.792-3.546,1.123-5.605" transform="translate(84.79 71.921)" fill="#ca9e67" fill-rule="evenodd"/>
      <path id="Tracé_154" data-name="Tracé 154" d="M51.5,41.337c3.3-.862,5.283,8.352.374,8.595,2.268-1.88,2.527-7.221-.374-8.595" transform="translate(90.275 72.363)" fill="#ca9e67" fill-rule="evenodd"/>
      <path id="Tracé_155" data-name="Tracé 155" d="M46.736,42.8c1.531-.113.2.779.374,1.495-.507-.116-.311-.936-.374-1.495" transform="translate(81.926 75.011)" fill="#ca9e67" fill-rule="evenodd"/>
      <path id="Tracé_156" data-name="Tracé 156" d="M34.729,43.473c2.266,1.206,1.767,6.486-.374,7.474-2.329-.044-3.006-1.734-3-4.11.815.933.9,2.591,2.624,2.618,1.357-.889.515-3.973.749-5.982" transform="translate(54.967 76.207)" fill="#ca9e67" fill-rule="evenodd"/>
      <path id="Tracé_157" data-name="Tracé 157" d="M2.914,44.882c1.448-.562,3.031,1.952,4.5,2.615-1.448.564-3.031-1.949-4.5-2.615" transform="translate(5.108 78.534)" fill="#ca9e67" fill-rule="evenodd"/>
      <path id="Tracé_158" data-name="Tracé 158" d="M49.463,45.929c-.149-.724,1.707-.545,1.123.374h-.749c.069-.319-.146-.352-.374-.374" transform="translate(86.692 79.73)" fill="#ca9e67" fill-rule="evenodd"/>
      <path id="Tracé_159" data-name="Tracé 159" d="M27.139,52c3.158,1.429,5.195-.881,6.37-2.615.284-1.3-1.131-2.825,0-3.739,3.565,3.02-2.946,14.156-6.37,6.354" transform="translate(47.573 80.013)" fill="#ca9e67" fill-rule="evenodd"/>
      <path id="Tracé_160" data-name="Tracé 160" d="M42.181,52.748c-1.756.008-3.694.2-3.747-1.495,3.045.98,4.964-1.891,4.5-5.608,2.417.435.917,7.273-.749,5.979-.556.165.149.479,0,1.123" transform="translate(67.373 80.015)" fill="#ca9e67" fill-rule="evenodd"/>
      <path id="Tracé_161" data-name="Tracé 161" d="M41.092,45.781c1.019,1.776-.537,4.19-2.249,4.485.716-1.531,2.084-2.406,2.249-4.485" transform="translate(68.09 80.253)" fill="#ca9e67" fill-rule="evenodd"/>
      <path id="Tracé_162" data-name="Tracé 162" d="M46.464,46.272c.118-.793,1.776-.083,1.5.746-.553-.193-.944-.553-1.5-.746" transform="translate(81.449 80.508)" fill="#ca9e67" fill-rule="evenodd"/>
      <path id="Tracé_163" data-name="Tracé 163" d="M49.593,46.188c1.153,1.189,2.665,7.081,0,7.474,1.69-2.172,0-4.8,0-7.474" transform="translate(86.934 80.966)" fill="#ca9e67" fill-rule="evenodd"/>
      <path id="Tracé_164" data-name="Tracé 164" d="M51.705,46.188c2.535,1.924,1.806,10.211-2.246,9.344,2.871-.942,2.929-6.023,2.246-9.344" transform="translate(86.699 80.966)" fill="#ca9e67" fill-rule="evenodd"/>
      <path id="Tracé_165" data-name="Tracé 165" d="M47.759,46.6c1.966.922,2.522,7.582-.749,7.474,1.445-2.31,1.019-4.859.749-7.474" transform="translate(82.406 81.682)" fill="#ca9e67" fill-rule="evenodd"/>
      <path id="Tracé_166" data-name="Tracé 166" d="M45.869,46.73c.928,2.436-.531,7.251-3.747,5.605-.171-1.167.8-1.195,1.875-1.12a9.542,9.542,0,0,0,1.872-4.485" transform="translate(73.804 81.916)" fill="#ca9e67" fill-rule="evenodd"/>
      <path id="Tracé_167" data-name="Tracé 167" d="M38.608,46.867c-.289,1.255-1.415,3.083-2.624,2.244,1.214-.41,1.173-2.07,2.624-2.244" transform="translate(63.078 82.157)" fill="#ca9e67" fill-rule="evenodd"/>
      <path id="Tracé_168" data-name="Tracé 168" d="M47.349,47.546c.735.636.617,3.584-.749,3.364.49-.881.16-2.585.749-3.364" transform="translate(81.687 83.347)" fill="#ca9e67" fill-rule="evenodd"/>
      <path id="Tracé_169" data-name="Tracé 169" d="M52.724,53.931c.165-1.957,1.107-3.441.749-5.979,2.307,1.313.251,4.636-.749,5.979" transform="translate(92.423 84.059)" fill="#ca9e67" fill-rule="evenodd"/>
      <path id="Tracé_170" data-name="Tracé 170" d="M49.425,56.512c.306-2.921-1.2-4.03-1.872-5.979,2.037.157,3.615,4.512,1.872,5.979" transform="translate(83.358 88.583)" fill="#ca9e67" fill-rule="evenodd"/>
      <path id="Tracé_171" data-name="Tracé 171" d="M37.421,50.668c1.134.727.892,4.636-.749,4.859-.11-1.977.65-3.089.749-4.859" transform="translate(64.265 88.82)" fill="#ca9e67" fill-rule="evenodd"/>
      <path id="Tracé_172" data-name="Tracé 172" d="M50.138,50.668c3.438.936,3.582,3.995,3.747,7.474a16.412,16.412,0,0,1-3,2.992c-.008-1.374,1.85-1.957,2.249-3.739.443-1.988-.812-3.783-1.5-5.605-.507.113-.308.933-.374,1.495-.749-.5-.834-1.66-1.123-2.618" transform="translate(87.889 88.82)" fill="#ca9e67" fill-rule="evenodd"/>
      <path id="Tracé_173" data-name="Tracé 173" d="M58.44,50.946c1.228-.217,2.4,2.827,2.624,4.859-1.319-1.178-1.74-3.248-2.624-4.859" transform="translate(102.442 89.288)" fill="#ca9e67" fill-rule="evenodd"/>
      <path id="Tracé_174" data-name="Tracé 174" d="M47.145,50.939c1.869,1.115,1.96,4.509,1.123,6.354-1.115-1.368-.14-4.369-1.123-6.354" transform="translate(82.643 89.295)" fill="#ca9e67" fill-rule="evenodd"/>
      <path id="Tracé_175" data-name="Tracé 175" d="M62.522,50.939a15.918,15.918,0,0,1,1.875,4.11c-1.459-.537-1.693-2.3-1.875-4.11" transform="translate(109.598 89.295)" fill="#ca9e67" fill-rule="evenodd"/>
      <path id="Tracé_176" data-name="Tracé 176" d="M49.593,51.212a4.784,4.784,0,0,1,1.123,3.739,11.369,11.369,0,0,1-1.123-3.739" transform="translate(86.934 89.773)" fill="#ca9e67" fill-rule="evenodd"/>
      <path id="Tracé_177" data-name="Tracé 177" d="M40.82,51.347c1.4,1.723.457,4.416-.749,5.605-2.849.1-4.066-1.423-4.5-3.736,1,1.112,2,2.241,4.121,2.244,1.291-.462.548-2.946,1.123-4.113" transform="translate(62.363 90.01)" fill="#ca9e67" fill-rule="evenodd"/>
      <path id="Tracé_178" data-name="Tracé 178" d="M41.633,51.347c1.5.275-1.035,4.867-2.246,2.615,1.087-.531,2.522-.721,2.246-2.615" transform="translate(69.043 90.01)" fill="#ca9e67" fill-rule="evenodd"/>
      <path id="Tracé_179" data-name="Tracé 179" d="M46.745,51.347c1.178.57.625,2.866.749,4.485-.774-.972-.793-2.7-.749-4.485" transform="translate(81.917 90.01)" fill="#ca9e67" fill-rule="evenodd"/>
      <path id="Tracé_180" data-name="Tracé 180" d="M23.283,52.106c-1,1.03-4.5.05-6,0-1.949-.066,4.939-.73,6,0" transform="translate(29.698 90.746)" fill="#ca9e67" fill-rule="evenodd"/>
      <path id="Tracé_181" data-name="Tracé 181" d="M46.621,52.052c.763-.5.438,3.755-.374,4.11C45.2,55.091,47.3,54,46.621,52.052" transform="translate(80.543 91.174)" fill="#ca9e67" fill-rule="evenodd"/>
      <path id="Tracé_182" data-name="Tracé 182" d="M16.483,53.657c-2.015.52-7.328-1.043-7.868-1.12-3.147-.457,1.886-.308,1.123-.374.68.058,5.06,1.415,6.745,1.495" transform="translate(13.268 91.438)" fill="#ca9e67" fill-rule="evenodd"/>
      <path id="Tracé_183" data-name="Tracé 183" d="M49.459,52.885c.113.986-.782.964-1.5,1.12.325-.545.3-1.445,1.5-1.12" transform="translate(84.073 92.585)" fill="#ca9e67" fill-rule="evenodd"/>
      <path id="Tracé_184" data-name="Tracé 184" d="M51.044,52.976c1.068.614-.179,2.029-.374,2.615-1.679-.564.614-1.28.374-2.615" transform="translate(87.735 92.865)" fill="#ca9e67" fill-rule="evenodd"/>
      <path id="Tracé_185" data-name="Tracé 185" d="M55.585,52.976c1.583.473,1.255,3.794,2.624,3.364.749,2.491,1.379,5.1,2.246,7.474-1.657-.752-1.288-2.756-2.246-4.859-.93-2.04-2.712-2.668-2.624-5.979" transform="translate(97.432 92.865)" fill="#ca9e67" fill-rule="evenodd"/>
      <path id="Tracé_186" data-name="Tracé 186" d="M64.087,53.448c.245-1.054.435.862.374,1.12-.173.752-.7.3-.374-1.12" transform="translate(112.157 93.142)" fill="#ca9e67" fill-rule="evenodd"/>
      <path id="Tracé_187" data-name="Tracé 187" d="M7.579,53.515c-.162.834-1.847.151-2.624.374.677-1.156,1.148-.2,2.624-.374" transform="translate(8.686 93.447)" fill="#ca9e67" fill-rule="evenodd"/>
      <path id="Tracé_188" data-name="Tracé 188" d="M47.826,53.251c.113.986-.518,1.225-1.5,1.12.325-.545.562-1.184,1.5-1.12" transform="translate(81.211 93.339)" fill="#ca9e67" fill-rule="evenodd"/>
      <path id="Tracé_189" data-name="Tracé 189" d="M62.525,53.383c.961.413.735,2.007.749,3.364a5.447,5.447,0,0,1-.749-3.364" transform="translate(109.598 93.579)" fill="#ca9e67" fill-rule="evenodd"/>
      <path id="Tracé_190" data-name="Tracé 190" d="M50.211,53.549c1.019-.273.752.743,1.495.749a3.661,3.661,0,0,1-5.242,2.615c1.074-1.3,3.224-1.517,3.747-3.364" transform="translate(81.449 93.788)" fill="#ca9e67" fill-rule="evenodd"/>
      <path id="Tracé_191" data-name="Tracé 191" d="M65.529,53.953c.143-.71.476.24.374.749-.143.71-.476-.24-.374-.749" transform="translate(114.836 94.132)" fill="#ca9e67" fill-rule="evenodd"/>
      <path id="Tracé_192" data-name="Tracé 192" d="M63.067,53.927c.878.121.363,1.63,1.123,1.869-.683,1.134-1.145-1.063-1.123-1.869" transform="translate(110.553 94.532)" fill="#ca9e67" fill-rule="evenodd"/>
      <path id="Tracé_193" data-name="Tracé 193" d="M57.915,54.062c1.8-.039.848,6.725.749,2.241-.215-.779-.928-1.065-.749-2.241" transform="translate(101.472 94.769)" fill="#ca9e67" fill-rule="evenodd"/>
      <path id="Tracé_194" data-name="Tracé 194" d="M42.04,54.877c1.564,1.112,3.012,8.41-.749,8.223,2.58-.724,1.456-6.315.749-8.223" transform="translate(72.381 96.198)" fill="#ca9e67" fill-rule="evenodd"/>
      <path id="Tracé_195" data-name="Tracé 195" d="M38.593,55.341c1.255-.889,1.979,5.159-.374,4.859-1.3-1.487,2.15-2.946.374-4.859" transform="translate(66.465 96.854)" fill="#ca9e67" fill-rule="evenodd"/>
      <path id="Tracé_196" data-name="Tracé 196" d="M9.856,55.63c-.116.507-.939.311-1.5.374.1-.867,1-.859,1.5-.374" transform="translate(14.651 96.94)" fill="#ca9e67" fill-rule="evenodd"/>
      <path id="Tracé_197" data-name="Tracé 197" d="M45.244,55.556c.848,1.228,2.607,3.565,1.872,6.728-.248,1.071-2.037,1.6-1.123,2.615-2.18,1.743-4.592.077-5.244-1.869.666-.881,1.638,1.082,3.372.374C46.857,62.279,45.436,58.6,45.244,55.556Z" transform="translate(71.429 97.388)" fill="#ca9e67" fill-rule="evenodd"/>
      <path id="Tracé_198" data-name="Tracé 198" d="M45.308,55.556c2.549.614,2.359,4.68,1.5,6.728-1.313.694-1.231-.284-2.246-.749,1.889-.8,1.795-4.262.749-5.979" transform="translate(78.11 97.388)" fill="#ca9e67" fill-rule="evenodd"/>
      <path id="Tracé_199" data-name="Tracé 199" d="M33.943,55.9c1.184-.79,1.035,2.943,1.872,3.739,1.074-.052.685-1.561.752-2.618,1.3.782,1.539,3.873,0,4.487-2.48-.27-1.8-3.683-2.624-5.608" transform="translate(59.5 97.794)" fill="#ca9e67" fill-rule="evenodd"/>
      <path id="Tracé_200" data-name="Tracé 200" d="M48.948,55.827A8.765,8.765,0,0,1,51.2,62.555c-2.288.286-2.99-1-3.372-2.618,1.175-.176.988,1.008,1.872,1.123,1.8-1.178-.864-3.356-.749-5.233" transform="translate(83.835 97.863)" fill="#ca9e67" fill-rule="evenodd"/>
      <path id="Tracé_201" data-name="Tracé 201" d="M49.049,56.32c.518-1.082,1.324.628,1.123,1.495-.771-.1-.352-1.393-1.123-1.495" transform="translate(85.98 98.118)" fill="#ca9e67" fill-rule="evenodd"/>
      <path id="Tracé_202" data-name="Tracé 202" d="M11.983,56.1c-2.178.884-7.513.127-2.624,0,.875-.022,1.712.017,2.624,0" transform="translate(12.898 98.335)" fill="#ca9e67" fill-rule="evenodd"/>
      <path id="Tracé_203" data-name="Tracé 203" d="M48.272,56.1c5.085,3.149-2.541,13-4.121,5.233,1.4-.03,1.131,1.61,3,1.12,2.692-.416,1.839-4.377,1.123-6.354" transform="translate(77.395 98.342)" fill="#ca9e67" fill-rule="evenodd"/>
      <path id="Tracé_204" data-name="Tracé 204" d="M5.5,56.645c.765-.856,3.111-.135,4.5-.374-.763.859-3.111.135-4.5.374" transform="translate(9.639 98.539)" fill="#ca9e67" fill-rule="evenodd"/>
      <rect id="Rectangle_26" data-name="Rectangle 26" width="0.749" height="0.749" transform="translate(162.754 155.187)" fill="#ca9e67"/>
      <path id="Tracé_205" data-name="Tracé 205" d="M18.782,56.816c-.217,1.008-1.949.383-3,.374-1.184-.008-2.453-.061-3.747,0-2.191.1-5.043,1.31-5.993-.374,4.127.127,9.806-.182,12.738,0" transform="translate(10.595 99.493)" fill="#ca9e67" fill-rule="evenodd"/>
      <path id="Tracé_206" data-name="Tracé 206" d="M58.037,56.919c.864-.116.416,1.079,1.123,1.12-.418,1.093-1.217-.476-1.123-1.12" transform="translate(101.722 99.763)" fill="#ca9e67" fill-rule="evenodd"/>
      <path id="Tracé_207" data-name="Tracé 207" d="M18.577,58.165c-2.736-.16-6.213.245-7.868,0H6.588c.52-.853,2.607-.14,3.747-.374.807-.548,1.6.055,3,0,1.522-.058,4.19-1.365,5.244.374" transform="translate(11.548 100.384)" fill="#ca9e67" fill-rule="evenodd"/>
      <path id="Tracé_208" data-name="Tracé 208" d="M62.7,57.456c.68.44.295,1.949.749,2.615-1.423.3-.476-1.767-.749-2.615" transform="translate(109.8 100.719)" fill="#ca9e67" fill-rule="evenodd"/>
      <path id="Tracé_209" data-name="Tracé 209" d="M7.478,58.145c.606-.1.644.352,1.123.374.149.724-1.707.545-1.123-.374" transform="translate(12.908 101.899)" fill="#ca9e67" fill-rule="evenodd"/>
      <path id="Tracé_210" data-name="Tracé 210" d="M61.652,58.542c.785,1.313.983,4.856.749,5.979C62.032,62.8,61.211,59.872,61.652,58.542Z" transform="translate(107.85 102.622)" fill="#ca9e67" fill-rule="evenodd"/>
      <path id="Tracé_211" data-name="Tracé 211" d="M12.178,61.531a3.482,3.482,0,0,1-2.624-1.12C9.1,60.3,8.264,61.49,9.18,61.531c-1.792.454-2.161,2.329-4.87,1.869-.27-.765-1.176-1.478-.374-2.244,3.529,3,6.58-6.018,8.242.374" transform="translate(6.333 103.746)" fill="#ca9e67" fill-rule="evenodd"/>
      <path id="Tracé_212" data-name="Tracé 212" d="M54.085,59.7c.8-.529,2.736,1,3,2.244-2.056.306-1.6-1.9-3-2.244" transform="translate(94.808 104.459)" fill="#ca9e67" fill-rule="evenodd"/>
      <path id="Tracé_213" data-name="Tracé 213" d="M11.624,59.629c.625.5,2.384-.135,2.249,1.12-.936-.19-2.263.014-2.249-1.12" transform="translate(20.376 104.528)" fill="#ca9e67" fill-rule="evenodd"/>
      <path id="Tracé_214" data-name="Tracé 214" d="M33.8,59.629c.958.041.743,1.253.749,2.244-1.533-.229-.752-1.027-.749-2.244" transform="translate(58.895 104.528)" fill="#ca9e67" fill-rule="evenodd"/>
      <path id="Tracé_215" data-name="Tracé 215" d="M36.275,65.506c.691,3.012,4.4,3.926,5.619.749A15.3,15.3,0,0,0,40.022,59.9c3.529.73,4.4,8.76.749,9.715a3.577,3.577,0,0,1-4.5-4.11" transform="translate(63.539 105.005)" fill="#ca9e67" fill-rule="evenodd"/>
      <path id="Tracé_216" data-name="Tracé 216" d="M53.678,60.127c1.085-.691,2.728,1.253,3,2.615-1.718-.157-1.792-1.949-3-2.615" transform="translate(94.095 105.148)" fill="#ca9e67" fill-rule="evenodd"/>
      <path id="Tracé_217" data-name="Tracé 217" d="M41.529,60.172c1.594,1.142,2.874,8.275-.374,8.6,1.429-2.307,1.192-5.767.374-8.6" transform="translate(72.143 105.48)" fill="#ca9e67" fill-rule="evenodd"/>
      <path id="Tracé_218" data-name="Tracé 218" d="M15.943,60.839c-1.588,1.247-7.8-.683-2.624-.374.892.055,2.034.7,2.624.374" transform="translate(19.805 105.933)" fill="#ca9e67" fill-rule="evenodd"/>
      <path id="Tracé_219" data-name="Tracé 219" d="M40.612,60.579c1.864.215,1.8,4.966,0,5.608a14.557,14.557,0,0,0,0-5.608" transform="translate(71.191 106.193)" fill="#ca9e67" fill-rule="evenodd"/>
      <path id="Tracé_220" data-name="Tracé 220" d="M52.861,60.85c1.478.146,1.723,1.52,2.624,2.244-.875.727-2.337-1.142-2.624-2.244" transform="translate(92.663 106.668)" fill="#ca9e67" fill-rule="evenodd"/>
      <path id="Tracé_221" data-name="Tracé 221" d="M15.562,61.526c-1.258,1.264-7.37-.746-2.246-.374.818.061,1.7.655,2.246.374" transform="translate(19.808 107.115)" fill="#ca9e67" fill-rule="evenodd"/>
      <path id="Tracé_222" data-name="Tracé 222" d="M56.943,61.394c1.255.118,1.049,1.693,1.123,2.99a4.383,4.383,0,0,1-1.123-2.99" transform="translate(99.818 107.622)" fill="#ca9e67" fill-rule="evenodd"/>
      <rect id="Rectangle_27" data-name="Rectangle 27" width="0.749" height="0.749" transform="translate(93.069 169.386)" fill="#ca9e67"/>
      <path id="Tracé_223" data-name="Tracé 223" d="M52.315,61.891c1.2-1.173,2.37.856,2.624,1.869-1.878.377-1.319-1.677-2.624-1.869" transform="translate(91.706 107.871)" fill="#ca9e67" fill-rule="evenodd"/>
      <path id="Tracé_224" data-name="Tracé 224" d="M10.535,61.976c2.318-.919,4.529.782,7.868.746-2.494,1.112-5.619-.366-7.868-.746" transform="translate(18.467 108.163)" fill="#ca9e67" fill-rule="evenodd"/>
      <path id="Tracé_225" data-name="Tracé 225" d="M51.772,62.416c1.054-1.231,2.874,1.36,1.872,2.241-.71-.661-1.162-1.58-1.872-2.241" transform="translate(90.754 108.843)" fill="#ca9e67" fill-rule="evenodd"/>
      <path id="Tracé_226" data-name="Tracé 226" d="M14.425,62.846c-.193.708-3.593.413-3.747,0-.209-.556,2.7-.4,3.747,0" transform="translate(18.699 109.534)" fill="#ca9e67" fill-rule="evenodd"/>
      <path id="Tracé_227" data-name="Tracé 227" d="M56.7,62.616c1.049.2.691,1.8,1.123,2.615-.964-.284-1.3-1.192-1.123-2.615" transform="translate(99.313 109.764)" fill="#ca9e67" fill-rule="evenodd"/>
      <path id="Tracé_228" data-name="Tracé 228" d="M59.8,62.887a1.029,1.029,0,0,1,.749,1.12,1.03,1.03,0,0,1-.749-1.12" transform="translate(104.828 110.239)" fill="#ca9e67" fill-rule="evenodd"/>
      <path id="Tracé_229" data-name="Tracé 229" d="M52.315,63.574c1.831-.209.895,2.346,1.123,3.736-1.426-.2-1.041-2.2-1.123-3.736" transform="translate(91.706 111.421)" fill="#ca9e67" fill-rule="evenodd"/>
      <path id="Tracé_230" data-name="Tracé 230" d="M70.523,63.979c1.572-.138.267,1.217.377,1.869-.793-.823-1.107.479-2.252.374-.058-.931.589-1.156.754-1.869.35.228,1.382.87,1.12-.374" transform="translate(120.331 112.136)" fill="#ca9e67" fill-rule="evenodd"/>
      <path id="Tracé_231" data-name="Tracé 231" d="M16.115,64.529c.917-1.131,2.439.284,3.747,0-.677.892-2.935.209-3.747,0" transform="translate(28.249 112.336)" fill="#ca9e67" fill-rule="evenodd"/>
      <path id="Tracé_232" data-name="Tracé 232" d="M55.309,64.11c1.668.454,1.4,2.844,1.872,4.485-1.123-1-1.434-2.8-1.872-4.485" transform="translate(96.954 112.383)" fill="#ca9e67" fill-rule="evenodd"/>
      <path id="Tracé_233" data-name="Tracé 233" d="M52.995,64.515h1.123c-.03,3.532,1.032,4.771,1.5,7.1-1.539-1.7-2.222-4.262-2.624-7.1" transform="translate(92.898 113.093)" fill="#ca9e67" fill-rule="evenodd"/>
      <path id="Tracé_234" data-name="Tracé 234" d="M70.414,64.652c.518.182.911,3.37-.374,2.99-.264-1.385.641-1.6.374-2.99" transform="translate(122.689 113.333)" fill="#ca9e67" fill-rule="evenodd"/>
      <path id="Tracé_235" data-name="Tracé 235" d="M63.73,64.8c.435-.061.666.083.749.374.372,2.307-.884,6.043-.749,9.344-.2.575-.391.025-.374-.374-.182-3.422.666-5.814.374-9.344" transform="translate(111.014 113.563)" fill="#ca9e67" fill-rule="evenodd"/>
      <path id="Tracé_236" data-name="Tracé 236" d="M69.723,64.788c.5.281.942,3.653-.377,3.364-.2-1.445.672-1.825.377-3.364" transform="translate(121.508 113.571)" fill="#ca9e67" fill-rule="evenodd"/>
      <path id="Tracé_237" data-name="Tracé 237" d="M61.878,64.923H63c-.157.716-.135,1.61-1.123,1.495-.625-.743.033-.474,0-1.495" transform="translate(107.995 113.808)" fill="#ca9e67" fill-rule="evenodd"/>
      <path id="Tracé_238" data-name="Tracé 238" d="M38.167,65.059c1.641,2.205.35,6.434-1.123,7.849-1.049-.449-2.613-.383-2.249-2.244,3.675,1.539,3.116-2.684,3.372-5.605" transform="translate(60.898 114.046)" fill="#ca9e67" fill-rule="evenodd"/>
      <path id="Tracé_239" data-name="Tracé 239" d="M55.174,65.331c.658.091.853.644.749,1.495a1.646,1.646,0,0,1-.749-1.495" transform="translate(96.717 114.523)" fill="#ca9e67" fill-rule="evenodd"/>
      <path id="Tracé_240" data-name="Tracé 240" d="M68.685,65.331c1.454.094.724,3.772.374,4.485-.859-.763-.135-3.1-.374-4.485" transform="translate(120.297 114.523)" fill="#ca9e67" fill-rule="evenodd"/>
      <path id="Tracé_241" data-name="Tracé 241" d="M56.535,65.467c1.511.735.292,4.193,1.123,5.6-1.255-.986-.793-3.692-1.123-5.6" transform="translate(99.103 114.762)" fill="#ca9e67" fill-rule="evenodd"/>
      <path id="Tracé_242" data-name="Tracé 242" d="M57.091,66.307c.143-.71.476.24.374.749-.143.71-.476-.24-.374-.749" transform="translate(100.045 115.788)" fill="#ca9e67" fill-rule="evenodd"/>
      <path id="Tracé_243" data-name="Tracé 243" d="M12.914,66.145a2.1,2.1,0,0,0,1.5.374c.121.661-2.1.666-1.5-.374" transform="translate(22.456 115.95)" fill="#ca9e67" fill-rule="evenodd"/>
      <path id="Tracé_244" data-name="Tracé 244" d="M61.5,66.282c.284,1.586,1.955,1.787,1.5,4.11-1.09-1.093-2.431-1.971-1.5-4.11" transform="translate(107.254 116.19)" fill="#ca9e67" fill-rule="evenodd"/>
      <path id="Tracé_245" data-name="Tracé 245" d="M70.757,66.824c.581.972.919,4.892-.749,4.859.372-1.869-.223-3.152.749-4.859" transform="translate(122.721 117.14)" fill="#ca9e67" fill-rule="evenodd"/>
      <path id="Tracé_246" data-name="Tracé 246" d="M63.136,66.96c1.374.842.928,5.415-.749,5.605a40.5,40.5,0,0,0,.749-5.605" transform="translate(109.361 117.379)" fill="#ca9e67" fill-rule="evenodd"/>
      <path id="Tracé_247" data-name="Tracé 247" d="M14.21,67.647c.058-.93,1.269-.11,1.5,0-.055.931-1.269.11-1.5,0" transform="translate(24.909 117.812)" fill="#ca9e67" fill-rule="evenodd"/>
      <path id="Tracé_248" data-name="Tracé 248" d="M56.806,67.638c.958.041.743,1.253.749,2.244a3.054,3.054,0,0,1-.749-2.244" transform="translate(99.578 118.567)" fill="#ca9e67" fill-rule="evenodd"/>
      <path id="Tracé_249" data-name="Tracé 249" d="M64.541,67.639c.518.182.908,3.37-.374,2.99.044-1.076-.206-2.447.374-2.99" transform="translate(112.451 118.569)" fill="#ca9e67" fill-rule="evenodd"/>
      <path id="Tracé_250" data-name="Tracé 250" d="M60.282,68.328c.606-.1.644.352,1.123.374.149.724-1.707.545-1.123-.374" transform="translate(105.471 119.749)" fill="#ca9e67" fill-rule="evenodd"/>
      <path id="Tracé_251" data-name="Tracé 251" d="M39.645,68.861c3.138,2.106,2.406,8.936-1.123,8.595-2.238-.215-2.511-3.246-1.5-5.979.449,1.663-.074,4.036,1.875,4.859,2.453-.933.966-4.988.749-7.474" transform="translate(63.915 120.711)" fill="#ca9e67" fill-rule="evenodd"/>
      <path id="Tracé_252" data-name="Tracé 252" d="M63.615,70.781c-.118-.658,2.1-.666,1.5.374-.782.157-.991-.256-1.5-.374" transform="translate(111.506 123.275)" fill="#ca9e67" fill-rule="evenodd"/>
      <path id="Tracé_253" data-name="Tracé 253" d="M151.049,192.411c.33-1.041.468-2.274,1.126-2.99v2.615c1.222-.385.793-.944,1.872,0a4.153,4.153,0,0,1,.749-2.99c-1.974-.73-1.919-1.211-3.747-1.869.025,1.536-1.03,3.937,0,5.233M69,197.644c-.325,1.445.914,1.33,1.123,2.241,8,.741,4.531-8.953,2.624-12.333-2.213-.088-2.827,1.415-3.372,2.99-.369-2.26-1.167-5.109-3.372-5.231-5.024-.278-6.012,13.534.749,11.959,2.205-.512,2.293-3.587,3-6.354.716,2.546-.713,4.485,0,6.728.292.083.741.011.749.374,3.078.2,2.233-3.5,3-5.608.644,1.443,1.85,7-1.5,7.1-1.327-.295-1.864-1.379-3-1.867m9.366-21.305c-2.557,3.284-3.992,11.224.749,13.082,1.063-1.33-1.814-1.233-1.5-2.99,1.153-.278.719,1.027,1.875.746,2.062-.683,1.977-3.507,2.621-5.6a6.7,6.7,0,0,1-1.5,6.725c3.411-.95,3.433-7.582,2.249-10.838-1.44-.432-2.348-1.4-4.5-1.12m65.567,1.12c.11-.76,1.013-.732,1.123-1.495-1.156-.487-2.125,1.063-1.123,1.495M73.87,185.311c1.454-2.3,1.6-7.471,0-9.718-8.972-5-9.484,14.877,0,9.718m-14.236,1.12c2.513.339,5.674-3.854,5.244-7.477-.063-.531-.622-.633-.749-1.12-.652-2.458-.7-3.637-3-4.11a39.327,39.327,0,0,1-4.5,2.244c.391,4.507-.669,9.971,3,10.464m1.872-13.082c1.024-.6-.548-1.253-.749-.372.374,0,.446.3.749.372m65.19-9.344c-.479,1.476,1.093.906,1.123,1.869-.93.487-1.553-1.1-1.872,0,1.55.7,2.519,1.971,4.87,1.869-.19-2.178.581-5.313-1.123-5.979C128.871,163.048,127.993,164.133,126.7,164.006Zm-55.073,4.859c.226,2.538,1.663,5.349,3.744,5.605,7.8.966,4.187-14.673-1.5-12.333-2.227.919-2.461,4.319-2.246,6.728m-9.368-5.979c-.476,4.432-.275,8.84,2.624,11.584,9.7.553,5.082-17.374-2.624-11.584M56.262,174.1c-1.553-1.839-3.609-3.766-1.5-6.354.641.6.146,2.346,1.5,2.241.085-.661-.38-1.872.749-1.495.581,1.181-.454,2.23.749,2.244.537-3.034-1.043-5.927,0-8.223,1.316,2.844.848,7.108,1.123,10.09.091-1.03,1.393-.851,1.875-1.495-.6-.03-.7-.127-.749-.746-.394-4.639,1.247-9.85-6.37-9.344-.006.617-1.041.209-1.123.746.545,1.806-1.374,5.842.749,7.477.058-.44-.063-1.063.374-1.123A4.787,4.787,0,0,0,56.262,174.1Zm27.725-11.587c-1.9-.763-2.423.4-4.121.746.006,2.613,1.093,4.14,1.123,6.728,3.232.421,1.878-2.836,2.624-4.11.129,1.341,1.156,4.575-.377,5.231-1.294.3-1.58-.413-2.246-.746a8.4,8.4,0,0,1-1.123,4.11c8.942,6.145,10.637-12.8,3.747-14.2C82.66,161.181,84.4,161.066,83.987,162.511Zm23.227-3.364c-1.968,2.794-4.116,5.484-4.87,8.969a26.079,26.079,0,0,0-.749,4.862c.118,3.017,2.624,5.266,3,8.595,2.511,1.6,4.05,4.182,6.742,5.6,4.732-1.781,4.8,3.989,8.994,2.992.782-1.338,1.644-2.6,3.37-2.992.372-2.48.652-5.156-.374-7.1,2.648.688.237-1.9.749-2.615,3.568.072,3.265-4.559,6-6.354-.116-.875-.735-1.544,0-2.244-2.26.135-3.072-1.17-4.87-1.495.234,1.151,2.023,2.692.749,4.11a1.032,1.032,0,0,0-.749-1.12c-1.189,3.3-4.352,4.63-5.247,8.223-.127-1.767-1.418-.055-1.872-1.495,1.649-2.274,6.681-6.618,6.368-10.841-.135-1.82-1.225-2.816-2.246-4.11-1.74-2.2-2.128-2.246-4.873-2.615a12.505,12.505,0,0,1-2.246,7.849c-.325-2.315.93-3.059,1.5-4.485-.124-1.371-1.484-1.511-1.123-3.364A12.107,12.107,0,0,0,107.214,159.147Zm-6.742.749c-.589,1.632-7.028,1.822-.749,1.867.427-1.269,2.23-3.149.749-4.11Zm-47.582-.749c-.358-.7,1.12-1.25,0-1.495-.11.228-.933,1.44,0,1.495m57.322-1.495c1.107-.534,2.461-1.228,3.372,0-.212-.911-.322-1.922-1.5-1.869-.741.509-1.745.752-1.875,1.869m-60.694,3.738c-.526.617-2.315,1.9-1.5,2.615.944-1.049,1.349-2.64,3-2.99-1.195-1.7.812-4.281-.752-5.608-.03,2.216-.636,3.851-.749,5.982m22.106-3.738c-.385.864-1.723.774-3,.749a10.65,10.65,0,0,1-3.747-4.113c-1.522,5.649,6.577,7.868,6.745,3.364m20.606-5.233c-.259,3.5.248,6.23,2.246,7.477.085-.292.011-.738.374-.749.482,1.016,1.864,1.134,3.372,1.123,1.646-.454,1.952-3.893,1.123-5.608h1.126a15.572,15.572,0,0,0-2.249-4.859c-2.9-.025-4.253,1.487-5.993,2.615M90.355,159.9c1.911-3.937-.044-9.046-3-10.467-.771,1.225-3,.994-4.5,1.495,1.341,2.9.451,8.022,2.624,10.09a6.853,6.853,0,0,0,4.87-1.118m-46.082-4.113c-.377,0-.446-.3-.752-.374,1.206,1.415.487,4.749,1.5,6.354,4.724.1,3.694-5.533,4.121-9.715.864-.116.416,1.079,1.123,1.12-.05-6.434-8.46-2.651-5.993,2.615m38.588,2.244c-.474-3.59-1.129-7.807-3.37-8.972.262.138-1.266.6-.377,0,.292-.08.438-.311.377-.746-1.264-.237-1.922-1.074-3.747-.746-4.3,4.124-2.131,15.975,5.619,14.2-.68-1.465.953-2.417,1.5-3.739M72,154.662c.223.774-.462,2.456.374,2.618v-2.992c-1.151-1.971-1.434-6.786-3.747-6.354.575.091.055.617-.374.749v-1.869a20.185,20.185,0,0,0-3.372,1.12c-.1,1.649-.6,2.891-.374,4.859,1.759.363,1.44,2.8,2.621,3.738,3.13,1.627,3.7-2.728,3.747-4.113.908.217.834,1.412,1.126,2.244m-11.615,5.979c4.878-1.021,3-12.876-.374-13.828a4.237,4.237,0,0,0-4.873,1.869c-.906,1.5-1.9,2.984-1.5,5.233,1.027,1.2.286,2.376,1.123,4.11C56.862,159.634,58.564,161.025,60.383,160.642ZM52.138,147.56c.1-.644-.7-2.213-1.123-1.12.71.041.262,1.236,1.123,1.12m-12.361-3.736c.471,8.636,10.819,5.33,8.242-1.12.047,6.117-6.544,4.578-8.242,1.12m14.984-1.869c-.608-.889-.842-2.15-1.5-2.99-.2,1.7.752,2.238,1.123,3.364,2.753.881,4.454-2.439,3-3.364-.278,1.591-.245,3.491-2.624,2.99m-6.368,0c.746-.856.149-2.635-.374-3.364.231,1.013-.476,2.965.374,3.364m32.221,2.615a5.28,5.28,0,0,0,2.249-1.495c-.041-2.348-.226-2.249-.374-4.485,1.032.9.853.589,1.5-.374,2.943,2.965.76,12.193-4.5,8.223A4.606,4.606,0,0,0,85.11,149.8c4.118-1.236,2.023-8.611,1.875-12.336-2.282-.815-6.139-.074-8.994,0,1.341,2.891-.641,6.453,1.5,8.972,4.1,1.294,6.77-4.683,4.121-5.979,1.228,1.093-.14,7.306-3,4.11M97.1,136.721c.22,1.542,1.525,2.772,1.872,5.233.259,1.831-.507,4.072,0,5.233,1.522,3.491,5.941.785,6.745-1.495,1.1-3.136-.994-7.4-2.624-9.344-2.439.98-4.16-1.214-5.993.372m-.749,11.962c4.663-5.809-2.546-18.5-8.242-10.467a35.478,35.478,0,0,1,.749,9.344c.953,2.478,5.41,2.844,7.494,1.123M47.643,136.721c-2.959-5.321-10.1.586-7.491,6.354a1.825,1.825,0,0,1,.749-1.869c1.041,7.13,6.613,3.251,6.368-1.867.069-1.118-1.44-2.288,0-2.618,0,.209.306.424.374,0M32.658,139.34c3.014,3.934,8.019-2.593,5.993-4.859-.273,3.18-2.8,6.94-5.993,4.859M63,146.065c2.882.633,3.271-1.222,5.622-1.12-1.569-3.516.432-7.9-1.5-10.464-2.992.19-3.928.267-6.368-.374-.749,5.222-.606,8.779,2.246,11.959m49.082-12.333c-.3,2.263,1.715.251,0,0M70.123,146.065c2.469,1.61,4.889.652,6.745-1.12.54-3.857,1.33-8.468-1.123-10.838-7.9-3.2-7.414,8.65-5.622,11.959M58.509,134.852c.022.229.058.443.377.374-1.008-7.8-8.617-1.308-8.994,2.618-.4,4.2,3.012,9.712,7.494,8.595a7.156,7.156,0,0,0,2.249-4.859c.107-1.756-.028-4.529-1.123-5.233.776,3.094.2,7.2-2.624,7.849-2.42-.336-4.911-5.087-1.875-6.351.077,1.294.314,2.428,1.875,2.241.986-2.555,2.252-2.513,1.872-6.354a1.021,1.021,0,0,1,.749,1.12m-30.72-4.11c-.7,1.707-4.176.022-4.5.374.793,1.69,5.112,1.049,4.5-.374m21.729,1.869c1.118-.008.482-1.765,1.123-2.244h-1.5c-.463,1.209,1.211.286.749,1.495.03.526-1.087.427-.374.749m62.943.746c-.206-2.29-1.266-5.7-2.624-5.605,1.564,1.181.977,4.507,2.624,5.605M34.53,125.883c-2.458,3.257-5.558,7.736-2.621,12.708,4.71.837,4.809-2.926,5.244-6.354-1.478-1.872-1.789-3.681-1.5-6.354Zm73.809-.746c-1.924,0-2.458-.548-4.121,0,1.553,2.866,1.553,6.624.374,10.09.7,2.574,6.167,4.5,7.494,1.12-1.156.113-2.436,2.029-3.747.749,5.627-2.307.317-8.7,0-11.959M55.511,128.5c.79-.708,1.792-4.771,1.126-4.485-1.151,1.467-1.338,3.9-3.372,4.485-2.789-.209-3.631-2.357-5.247-3.736.116.862-1.082.416-1.123,1.12,2.935.875,4.443,4.091,8.617,2.615m37.468-5.231c-2.169.182-4.1.942-5.619.746,1.839,2.684-.564,6.142.374,8.223.886,1.966,3.163,2.679,6.368,2.244,2.929-2.7,2.114-9.536-1.123-11.213m-7.494,5.979c-.058.727-.691.809-.749,1.12-.091.476.663.727.374,1.495-.1.267-.98.171-1.123.374-.468.663.457,1.013,0,1.495-2.106,2.213-5.454,1.894-6-.746,1.126.5,2.866.38,4.5.372,2.233-2.648,1.968-7.394.374-10.464-.834,1.319-3.931,1.412-5.622.749-.374,2.048.608,5.938-1.5,7.849,1.795,1.792,1.894,4.16,4.5,4.485,2.084.259,5.649-2,5.993-3.364.793-3.116.319-3.182-.374-5.608-.46-1.6-.154-3.873-1.5-4.485-.292,1.679,1.341,3.939,1.123,6.728m10.866-5.979c.118,4.829.834,5.693.374,10.09,1.555,1.949,4.226,2.957,6.742,1.12,1.668-3.389.179-6.957.374-10.09-2.153.212-4.548-4.1-7.491-1.12M22.916,130a4.21,4.21,0,0,0,6.37-4.113c-1.7-1.165-2.772-2.965-4.87-3.736-.944,1.982-2.555,5.093-1.5,7.849M94.1,122.147h2.249a23.031,23.031,0,0,1-.374-2.618H94.85C95.731,121,94.146,120.672,94.1,122.147ZM69,131.863c5.233.611,6.753-2.48,6.368-7.474-.295-1.2-1.36-1.632-1.872-2.618-.853-.27.344-2.585-1.123-2.241-3.995,1.789-5.957,8.165-3.372,12.333m-2.624-7.474c.088-1.957-1.308-2.431-1.123-4.485-9.187-6.233-8.969,13.008-2.249,13.454,2.387.16,5.1-2.541,3.372-4.485a9.183,9.183,0,0,0-1.123,2.99c-2.976.474-5.878-1.1-4.87-3.364.845,1.027,1.423,2.318,3.747,1.869,1.811-.93.975-4.509,2.246-5.979m-22.1,8.223c.573-2.417,2.043-5.407,1.872-8.223A9.916,9.916,0,0,0,43.9,118.78c-9.057-2.6-9.737,19.406.374,13.831m24.353-13.456h1.5a1.757,1.757,0,0,0-.374-1.12H69a1.751,1.751,0,0,1-.374,1.12M81.364,114.3c.1-.98-.138-1.61-1.123-1.5-.107.977.138,1.608,1.123,1.5m46.456,0c1.112.328,4.168-.217,4.5-1.872-1.536.586-4.182.066-4.5,1.872m-75.681.372c-7.529-1.035-4.848,14.414,1.5,11.587,1.949-1.294,1.082-5.4,1.872-7.849-.03,1.652-.072,3.312,1.5,3.361.24-3.353-1.977-4.256-2.249-7.1-.732-.763-2.211-.782-2.246-2.244.206,0,.424-.3,0-.372-1.423.727-.8,1.165-.377,2.615m76.807-2.615c1.272,1.118,4.716-.754,3.747-1.869-.9.972-3.438.308-3.747,1.869m-26.227,1.12c1.324,2.563-.24,5.115-1.123,7.477,1.432.688,2.01,2.23,3.372,2.99,2.538-.27,3.884.592,4.5-1.495-1.732.749-5.319,1.016-4.87-.749.721.5,1.506-.275,2.624.374a16.217,16.217,0,0,0,2.621-5.233c1.016,1.382-.3,4.328.374,5.233,3.3-4.892-4.058-16.176-7.494-8.6m-76.056,5.233c-.509,6.968,8.069,7.375,7.868,1.869-.019,3.46-6.37,3.65-6.368,1.12,2.778,1.726,5.646-.46,7.116-2.244-.462-1.321-.173-5.715.374-8.223-3.747-2.2-8.683,3.268-8.991,7.477m54.327-10.092c-9.189-1.575-11.4,15.788,0,14.577,1.162-1.955,2.684-3.554,2.246-7.1-.429-1.209-.421,1-.372,1.495-1.346,1.272-1.652,3.584-3.747,4.11-.708-.542-1.946-.548-2.249-1.495,2.04.289,2.921-.575,4.121-1.12-.2-1.445.669-1.825.374-3.364-1.718.529-.809,3.678-3.372,3.364,1.3-1.61,2.769-4.292,1.123-6.728a1.767,1.767,0,0,1,1.126.374c.575-1.6-2.054-1.905-1.126-2.618,1.941,1.178,3.081,3.158,4.121,5.233.295-3.284-1.032-4.95-2.246-6.728m3,0c-1-.245-1.426-1.071-2.249-1.495.014,1.01,1.445,2.511,2.249,1.495m8.991,0c.014,2.285,2.268,5.418,1.872,9.344,1.341,1.032,2.516,2.227,5.247,1.869,5.231-4.485-1.47-17.737-7.119-11.213m-26.227-3.364c-2.673,2.475-2.921,6.1-2.246,10.467.977,1.142,2.668,1.572,4.5,1.869C72.133,115.9,71.6,110,71.249,107.2c-1.878-.369-2.541-1.952-4.5-2.244m-11.615,7.474c.085,5.679,6.288,5.652,7.868,1.5,1.3-3.43-.226-6.511-.749-9.718-5.4-.575-6.626,4.308-7.119,7.474-.743.19-.856-2.062-1.5-.746.228.019.443.055.374.372-.421.08-.584.416-.749.749.545.2,1.935-.438,1.872.372m9.743-8.22c4.193.6-3.042-1.187-.749-.374.286.1.19.295.749.374m-25.476,0c-3.733,2.513-4.84,16,2.246,14.2,2.984-.757,4.939-7.777,3-10.464-.427,3.4-2.128,9.222-5.244,7.474.146-1.349,1.853-1.142,2.621-1.869.975-2.392,1.555-5.178,3-7.1-.5-4.586-4.063-3.3-5.619-2.244m88.416,2.99c1.341.853.8,2.134.752,3.739a37.575,37.575,0,0,0,5.619-2.618c-.4-1.074-.608-1.776,1.123-1.495.6-1.47-1.616-.129-1.5-1.12.936.063,1.173-.575,1.5-1.12-.581-1.071-1.748.779-2.246-.374.87-.129,1.756-.242,1.5-1.495-.958-.407-1.787,1.134-2.249,0,1.173.171,1.2-.8,1.126-1.869-2.318,1.176-5.542,1.448-7.119,3.364,1.476.961,3.989-1.9,5.622-.749-1.412.834-3.884.614-4.5,2.244.121,1.478,1.159-.275,1.5.749A1.034,1.034,0,0,0,127.82,107.2Zm-16.107-5.605c1.52.171,5.134-.534,5.993-2.244-1.489-.14-5.063.606-5.993,2.244m-19.857,0c2.3-.248,6.654-1.547,9.74-2.244a1.03,1.03,0,0,0-.749-1.12C97.722,99.221,94.173,99.793,91.855,101.591Zm45.707-4.113a3.2,3.2,0,0,0-2.249-.374c-.033,1.379,1.878,1.288,2.249.374M46.145,109.065c2.574,3,5.382,1.255,7.868.372-.5-2.626,2.337-3.884,1.123-5.979.416,4.121-6.858,9.03-7.494,4.11a7.755,7.755,0,0,0,2.249,1.123c2.081-1.288,4-2.742,4.5-5.608.507-.118.716-.531,1.5-.374-.815-1.977.685-3.125,0-5.233C48.185,94.37,45.952,104.041,46.145,109.065Zm86.173-12.708c-.837,1.415-4.047,2.431-5.247,2.241a9.87,9.87,0,0,0,3-1.869c-1.916.418-1.5-1.487-3-1.495-1.03,1.646-1.484,1.883-1.872,3.739.559.063,1.382-.135,1.5.374-1.178-.182-.848,1.145-2.246.746.212-1.258-1.134-2.092-.374-3.736-1.024-.273-.754.741-1.5.746-.11.735.507.741.749,1.12-1.7.8-3.953,1.038-4.87,2.618,1.454,1.049,3.959-1.666,5.244-.749-3.873,2.728-8.845-.215-11.612,3.364.391.641,2.648.008,1.5,1.12,2.106.1,3.986-1.99,5.619-1.12-1.577.669-3.912.584-4.5,2.244,4.187-.556,6.866-2.621,10.866-3.364.292.083.435.314.374.746,2.8-1.693,7.13-1.858,8.991-4.485-2.69-.435-4.438,2.04-5.993,1.495.46-1.61,2.94-1,4.121-1.867.3-.223-.253-1.572.749-1.123,1.5,1-.46-.93-1.5-.746m-6.745-.749c-.374,0-.446-.3-.749-.372-1.024.6.548,1.253.749.372m-44.21,8.223c.958,2.169,3.237,2.819,3.747,4.859.344,1.379-.691,2.97-.749,3.736-.2,2.725.829,5.913,0,8.972.592.655,1.721.774,1.872,1.869,7.854,1.448,9.522-9.644,5.247-14.577-1.434-.529-2.728.975-3.372,0,.24-1.63,1.919-1.822,3-2.618,1.2-4.2-1.365-8.4-3.747-11.21-6.2-1.2-6.3,3.683-6,8.969m58.071-8.595c.931.055,1.82.069,1.875-.749a1.832,1.832,0,0,0-1.875.749M90.355,97.1c.551,1.365,1.181,1.822,1.126,2.99,4.418-1.153,7.136-1.751,11.238-2.99V94.488c-4.889.1-8.116,1.869-12.363,2.615M58.883,99.722a2.811,2.811,0,0,1,2.249,1.869c2.97.4,6.536.292,7.868-2.244.531-1.01,1.142-4.019-.374-4.485,1.25,4.666-7.653,8.84-8.242,3.364,1.349.273,1.891,1.349,3.744,1.12,1.93-1.068,3.705-2.285,3.372-5.608.534.091.633.617,1.123.749-2.15-6.29-12.372-1.253-9.74,5.233m62.569-19.436c.9-.9-1.231-.969-1.123-.374-.005-.025,1.266.231,1.123.374M67.125,86.265c-.33-4.039,1.839-5.553,1.5-8.595-.975,2.687-3.4,6.139-1.5,8.595m51.329-9.718c1.008.259.724-.771,1.123-1.12-1.008-.259-.721.771-1.123,1.12M69,77.3c2.1-.892,3.259-2.728,4.5-4.485-1.145.27-1.365-.383-2.246-.374A11.963,11.963,0,0,1,69,77.3m7.494,14.2a5.23,5.23,0,0,1,4.5,3.736c2.021.025,1.944-2.045,4.5-1.495-2.522-5.341-1.049-12.262-1.5-18.687.757-2.357,4.069-2.169,4.5-4.859-3.6,1.4-8.165,1.822-12.738,2.241-2.445,3.6-8.069,7.251-7.494,13.831.245,2.822,1.057,6.219,3,8.22,1.657-.922,2.907-3.07,5.244-2.987m-5.247,14.574c.87.129,1.756.245,1.5,1.5,3.612.856,5.613-.468,7.494-2.244.955-4.184.881-9.685-1.5-10.838-.787-.859.564-1.721-.749-2.244-7.191.63-8.416,6.984-6.745,13.828M86.234,70.194a1.649,1.649,0,0,0,1.5-.746c-.856-.1-1.41.088-1.5.746m-18.357-.372h.749v-.749h-.749Zm22.852-1.5a2.638,2.638,0,0,0,2.249-1.495c-.884.366-2.379.121-2.249,1.495m6-2.615c.873-.124,1.613-.383,1.872-1.12-1.176-.179-1.531.465-1.872,1.12m-.374-2.99c-6.712,2.72-13.762,5.974-23.978,5.233-4.7-.341-9.019-2.191-13.489-2.618,1.8.077,2.472,1.272,3.372,2.244,4.33.416,7.529,1.957,12.363,1.869,1.487.116-.418,1.3,1.126,1.12.182-1.465,1.905-.608,2.621-.746A62.225,62.225,0,0,0,92.6,65.709c1.517-.708,4.044-1,4.5-2.99Zm-51.7-2.99c1.118,1.811,3.262,1.109,5.244,1.869,2.255.862,4.27,3.736,6.745,2.241-4.077-1.06-7.315-4.881-11.989-4.11m28.474.746c-.014-1.008-1.445-2.511-2.249-1.495.586.663.5,1.993,2.249,1.495m36.342,11.587c-6.015.355-11.265,3.463-16.11,3.739,3.926-2.315,9.429-3.056,14.613-4.113-.471-2.973-3.7-1-4.5-.746a58.75,58.75,0,0,1-10.492,2.241c2.205-.462,4.369-1.566,6.742-2.241,2.324-.661,5.225-.438,6.745-2.244-.969-1.277-3.284-1.209-4.121-2.615,4.5-.377,4.432,3.8,7.868,4.485.526-3.78.11-9.555,1.5-13.456-4.157,4.452-9.853,7.367-15.736,10.092,1.979.217,4.011-1.465,5.244-.749-4.782,1.308-10.335,2.959-13.487,5.982-1.1,1.054-2.783,3.136-3,4.859-.278,2.222,1.429,4.058,1.123,6.725-.242,2.109-1.035,3.959-1.123,6.728a4.271,4.271,0,0,1,2.246,2.615c3.554-.82,9.335-2.965,12.366-1.866a81.373,81.373,0,0,0-11.24,2.615c-.328,1.448,1.635.611,1.123,2.244,4.46-.1,8.719-2.789,14.235-2.992.512.738.358,2.136.749,2.992a6.514,6.514,0,0,1,4.124.746c.639-1.726,2.648-2.089,3-4.11.57-1.955-1.817-2.9-.749-4.11,1.756.24,1.489,2.5,2.624,3.364,3.571.2,6.164-2.569,8.991-1.869-3.405,1.583-8.352,1.632-10.491,4.485,2.274.636,3.218-2,4.873-.749-1.756.741-3.942,1.054-5.247,2.244.98.641-.526,1.935,0,3.364,3.868-1,8.421-1.319,10.492-4.113-.49-.955-1.982.87-2.249,0,.826-.809,2.954-.542,3.372-.746-.683-.322,2.431-1.478.374-2.244,1.145.273,1.365-.38,2.249-.372.173.713-1.154,1.608.374,1.495,1.01-1.054-.663-1.533-.374-2.992-1.261-.474-1.982,1.465-2.624.374a4,4,0,0,0,3-2.241c-.977-4.311-4.058-8.185-8.242-7.1.652-.347,2.01.014,1.872-1.12-1.352-.33-2.5,1.459-3.37.372.955-.041,1.927-.069,1.872-1.12-.84-1.264-2.467.691-2.624,0,1.745-.892-.71-2.158-1.5-2.241-1.316-.14-2.946,1.726-4.5,2.241-2.869.955-7.147.231-10.117,1.869a14.481,14.481,0,0,0-3,2.99,46.316,46.316,0,0,0-3.37,5.608c-1.181-.182-.851,1.145-2.249.746,2.753-3.232,4.614-7.356,7.494-10.464,4.11-1.258,9.272-1.465,12.364-3.739-4.768.6-10.142,2.588-13.861,2.99,4.176-1.831,10.3-3.656,15.359-3.364.322-1.814-.87-2.12-1.872-2.615-5.354,2.134-11.774,3.2-17.233,5.233,4.308-3.174,10.761-4.215,17.233-5.233C110.534,72.74,109.623,72.776,109.463,72.063ZM70.123,58.981c.366-1.148-1.407-2.037-1.5-1.495.661.339.619,1.376,1.5,1.495m5.244-.372c.79-.782-.493-1.407-1.123-1.869-.074,1.068-.047,2.04,1.123,1.869m3-2.618c-1.564.54-1.836-2.123-3-.746.168.856,2.164,1.795,3,.746m-9.74.374c.1-.526.82-.427,1.123-.749.465,1.655,1.842,2.4,3.372,2.992.691-2.629-3.774-3.163-5.622-4.485.292.829.217,2.026,1.126,2.241m-6.37,1.869c4.253-.845,6.494,5.335,8.994,2.615-.713-.7-.942-.041-1.875,0-.223-2.643-3.681-2.059-4.87-3.736,1.239.107,2.863,1.068,3.747.374-1.635-2.109-4.906-2.582-7.868-3.364-.066,2.056,1.371,2.615,1.872,4.11m18.359-4.113c-1.47.1-1.393-1.352-3-1.12-.388,1.688,2.4,2.725,3,1.12m-9.743.374c.485-1.99-2.029-2.94-3-2.241.531,1.211,1.745,1.745,3,2.241M139.812,53c-1.126-.851-3.215-.162-4.5,0-.033-1.019.625-.752,0-1.495-7.193.173-9.839,4.886-15.736,6.354-.35,1.644-2.368,1.621-3.37,2.615-2.775,4.716-2.541,12.443-.752,16.446,3.342-1.277,4.1-5.126,7.119-6.728.358-.7-1.12-1.25,0-1.495,4.9-2.863,12.746-4.028,18.359-5.979.953-.33,2.924-.308,2.621-1.869.063-1.057-2.31.311-2.246-.749.942-.306,2.007-.487,1.872-1.866-9.01,2.1-16.251,5.963-24.353,8.969,4.87-3.708,12.1-5.6,18.359-7.849,2.062-.743,5.132-1.118,5.993-3.364-4.168.319-8.438,2.5-12.738,4.11-2.134.8-4.358,1.415-6.368,2.244-2.051.842-3.945,2.3-6,2.241a83.366,83.366,0,0,1,11.989-5.605c4.328-1.495,9.421-1.957,12.738-4.859-1.773-1.732-3.587.493-5.244,1.12-6.178,2.337-12.79,3.554-17.985,6.354C124.97,57.384,133.392,56.192,139.812,53Zm-62.569,1.12A5.468,5.468,0,0,0,73.5,50.386c.471,2.021,1.068,3.917,3.747,3.736m-7.119-2.615c2.648.875,1.118,4.3,4.87,4.485-.619-2.621-2.624-3.86-3-6.728-.884.008-1.1-.644-2.249-.372.118.875.592,1.4.374,2.615m45.707-1.12c.4-.391,2-1.454,1.126-1.869,0,.782-2.04,1.4-1.126,1.869M86.608,52.627c.162-.71.807-.939.752-1.867-2.048-.7-4.091-1.4-6-2.244.842,2.277,2.869,3.367,5.244,4.11M70.123,48.143h1.123q.1-1.222-1.123-1.12Zm4.87,1.869a4.189,4.189,0,0,0-3.37-3.739c.187,2.18,1.572,3.166,3.37,3.739m39.714.749c-.129,1.748-3.345,2.379-2.246,4.11.1-.581.82-.259,1.123,0,1.47-2.147,3.631-3.6,5.244-5.608V47.022c.512-.069,1.82-1.776.374-1.495-1.88,1.616-.862,6.131-4.5,5.233M87.734,47.4c.413-2.282-1.627-2.117-3-2.618a2.8,2.8,0,0,0,3,2.618M98.6,47.022h1.875c-.278-1.467-1.481-2.01-2.624-2.618-.245,1.368.809,1.434.749,2.618m-10.489,2.99c-.022-2.4-2.943-2.629-4.5-3.364-1.9-.9-3.5-1.944-5.247-2.615,1.542,3.7,6.136,4.344,9.743,5.979m9.366-4.11c-.7-1.176-.592-3.149-2.624-2.992.044,2.4-.732-.292-1.872,0a4.187,4.187,0,0,0,4.5,2.992m-13.487-.749c-.017-1.371-1.828-2.891-3-1.869,1.032.589,1.1,2.136,3,1.869m17.982.374c.162-1.641-1.148-1.228-.374-2.618-.93.061-1.159-.586-1.872-.746.228,2.012-.047,2.976,2.246,3.364M88.483,42.909h.749V42.16h-.749Zm-2.624.749c.135-1.88-1.231-2.26-2.624-2.615.542,1.2.809,2.681,2.624,2.615m-5.244,0c-.38-1.745-2.714-3.51-4.5-2.615a5.515,5.515,0,0,0,4.5,2.615m22.852-.374c.179-2.045-1.134-2.6-2.621-2.99-.044,1.911,1.209,2.533,2.621,2.99M82.861,41.789c-.892-1.109-2.312-3.661-4.121-2.615,1.035.969,2.219,3.755,4.121,2.615m17.611-.374c-.421-1.572-.917-3.072-3-2.99.3,1.693,1.109,2.882,3,2.99m-20.98,8.6c-.658.44.864,1.853.749,2.99,1.192-.319,1.421.325,1.872.749.055-.818.944-.8,1.875-.749-.5-1.99-2.9-2.087-4.5-2.99m-1.5-4.859c-.595-2.023-2.946-2.293-4.121-3.739.71-.083.829.421,1.5.374-.206-1.426-1.555-3.664-2.624-2.99.889.234-.058,2.3.749,2.615-1.2-.325-1.17.575-1.5,1.123.228.518,1.44.055,1.5.746-.518.228-.055,1.44-.749,1.495.179-1.173-.468-1.525-1.123-1.869-.217.782-.928,1.068-.749,2.244,3.978,1.842,6.549,2.827,10.114,4.859.1-2.439-4.173-5.6-4.5-2.99-.006-.5-.655-.341-.749-.749,1.456-1.247-2.227-1.792-1.123-2.615a5.666,5.666,0,0,0,3.37,1.495m-3,3.364c.685,1.693,2.351,4.372,4.5,3.364-.776-1.528-3.108-4.873-4.5-3.364m0-11.213c.259,1.5,2.472,3,3.747,2.244-.776-1.093-1.875-3.438-3.747-2.244m32.972,2.99c-1.148.273-1.1-.644-2.249-.374.27,1.1.427,2.315,1.123,2.99,1.833.085,2.357-1.137,4.121-1.12a2.438,2.438,0,0,1,.374-1.869c-2.546-.823-4.2-2.538-6.742-3.361-.006,2.37,2.365,2.373,3.372,3.736m-51.7-2.99a13.907,13.907,0,0,0,3.747,2.99c1.264.8,3.452,1.137,3.744,2.99-3.174-.942-4.763-3.469-8.242-4.11-1.321,2.078-.584,5.641-.374,7.1.394,2.739.138,6.75,3,7.1.619-.006.209-1.035.749-1.12,2.158.719,6.318,2.984,7.868,1.869-2.409-2.83-9.132-3.348-10.489-5.982,3.816.807,7.331,3.9,10.863,3.739-.774-.79-.537-1.451-1.872-2.241,1.357-1.473,2.53,1.765,3.747.374-.253-2.626.019-7.953,2.624-8.972-.633-2.191-.036-2.94,1.123-4.11-1.781-.074-4.713-.6-6,.746,1.167-.176,1.407,1,.374,1.12-1.008-.955-2.921-2.957-4.5-1.12,0,1.635,2.874,2.351,2.249,3.364-2.968-1.525-4.892-4.091-8.242-5.233.083.708-.424.826-.374,1.495M96.725,38.8A6.7,6.7,0,0,0,92.6,35.435c.187,2.062,2.714,3.761,4.121,3.364M98.6,43.284a5.281,5.281,0,0,0-3.747-4.11c.413,2.2,1.5,3.739,3.747,4.11m-8.991-5.605c-.041-1.583-.7-.008,0,.372-1.71.2-1.454-3.513-3-2.241,1.065,2.145,1,3.182,2.624,4.859a3.578,3.578,0,0,1-3-1.12c.628-1.25-1.8-4.333-3.37-3.364,1.06,1.806,2.414,3.32,3.37,5.231,1.96-.5,2.907.248,4.121-.746A1.2,1.2,0,0,1,89.98,38.8c1.561.694,3.868,2.61,5.247,2.244-1.178-1.817-2.3-3.683-5.622-3.364M80.615,37.3c1.03,1.465,2.089,2.9,4.121,3.364-.476-1.776-2.346-4.127-4.121-3.364m5.619-.746a1.035,1.035,0,0,0-.749-1.123,1.035,1.035,0,0,0,.749,1.123m-11.24-1.123c-.229-.11-1.44-.93-1.5,0,.228.11,1.443.931,1.5,0m-4.121-.746h.749V33.94h-.749Zm-5.244,1.12c.93.055,1.82.069,1.872-.749-.79-.33-1.107-1.137-2.246-1.12a2.435,2.435,0,0,0,.374,1.869m37.842,1.12c-.251-2.615-2.882-2.858-4.5-4.11.366,2.5,2.31,3.427,4.5,4.11m7.868,1.495c-1.013-3.849-4.911-4.818-8.619-5.979,1.137,3.727,5.33,4.4,8.619,5.979M84.362,34.689A11.8,11.8,0,0,0,79.114,31.7c-.27,1.974-2.2,2.29-2.621,4.113.65,1.22,2.161,1.58,3.747,1.869-.047-1.451-1.107-1.889-1.875-2.618,1.809-.418,2.557,2.161,3.747,1.123-.38-1.379-3.427-2.048-3-2.99,1.657.319,4.292,2.877,5.247,1.495m-14.987,0c.245-2.362-1.06-3.18-3-3.364.551,1.569.919,3.317,3,3.364m-12.738,0c2.131.24,2.764,1.977,4.5,2.615.344-.652,1.17-.826,2.246-.746-3.309-3.3-7.832-5.393-12.363-7.477.636,2.968,6.654,2.178,5.622,5.608M73.87,33.94c.262-1.382-.592-1.652-1.872-1.495-.314-2.3-2.26-2.979-4.121-3.739A6.9,6.9,0,0,0,73.87,33.94m3-3.364c-2.7-.674-4.014-2.725-6.745-3.364.708,2.255,5.206,6.676,6.745,3.364m28.474,10.838c-.182-2.557-1.773-3.714-3.747-4.485.553,2.189,1.31,4.173,3.747,4.485M97.1,35.435c-1.671-.867-1.935-2.946-3.372-1.495-2.624-3.736-7.854-4.873-11.989-7.1-.215.782-.928,1.068-.749,2.244,4.8,1.44,8.341,4.135,12.738,5.979.9.149-.206-1.7,1.123-1.12.749,3.488,4.617,3.868,7.119,5.605-.358-2.885-2.651-2.957-4.87-4.11m-16.11-5.979c-.741.259-1,1-1.123,1.869,4.157,1.707,7.9,3.827,11.989,5.605-1.437-4.672-7.441-4.787-10.866-7.474m12.363-.749c-.292-.083-.435-.311-.374-.746,3.5,1.118,4.8,4.435,8.617,5.233.069-1.933-2.48-3.524-4.121-4.487s-4.322-2.45-5.619-1.495c.683.1.881,2.563,1.5,1.495m-3-1.495c-.262.93,1.6,1.583,1.875.749-.716-.16-.68-1.068-1.875-.749m20.609,7.477c-2.687-4.672-8.688-6.034-13.489-8.6h-.749c3.414,4.193,8.708,6.513,14.238,8.6M95.976,27.212c.394-.944-1.264-1.655-1.5-.746.556.2.944.553,1.5.746M94.1,31.7c1.539.919,2.406,2.918,4.5,2.618.077-2.224-2.836-3.24-4.5-4.11a59.785,59.785,0,0,0-10.866-4.487c2.822,3.045,7.345,3.876,10.866,5.979M85.11,25.717h.749c.584-.919-1.272-1.1-1.123-.372.228.019.443.055.374.372m5.993.374c.264-1.382-1.313-.933-1.872-1.495.069,1.052.652,1.591,1.872,1.495m7.119-.374c1.985.14,2.929,1.316,4.873,1.495-.14-1.853-1.536-2.456-3.747-2.241.446-1.112-1.58-1.6-1.875-.749.661.091.853.644.749,1.495m10.492,2.99c.27-1.14-.383-1.36-.374-2.241,1.71.785,1.671,3.317,4.121,3.364-.154-.9.683-.815.374-1.869-3.51-1.233-7-4.476-10.866-4.113,1,.625,1.222,2.021,2.624,2.244a2.641,2.641,0,0,1,.749-1.12c.831,1.536,1.61,3.127,3.372,3.736m-4.5-2.241c-.35.625.54,2.145,1.5,2.99.881.774,5.867,3.752,5.993,1.495-2.312-1.677-5.1-2.888-7.494-4.485m-7.491-1.495c-.091-1.655-1.1-2.4-2.624-2.618-.005,1.751,1.231,2.263,2.624,2.618m-7.868,1.12a5.9,5.9,0,0,0-4.121-4.11c.754,1.985,1.561,3.926,4.121,4.11m17.982-2.241c-.063-1.445-2.282-2.69-3.37-1.869.815.928,1.382,2.109,3.37,1.869m-25.1-.749c.292.083.435.314.374.749,1.145-.308.9-1.052,2.249-.374-.1-1.148-.812-1.682-1.126-2.615h-1.5c.212,1.481,1.853,1.547,0,2.241m-6.37-.374h1.875c-.055-1.564-1.679-1.564-2.624-2.241-.1,1.093.848,1.148.749,2.241m-25.1,2.99c.347,3.485,4.35,3.967,6.745,5.233,2.775,1.47,4.9,3.615,7.494,4.859.069-5.429-7.763-4.961-8.617-8.223C59.31,29.406,62.255,31.7,66,33.194c-.052-1.319-1.071-1.671-1.123-2.99-2.822-1.478-5.7-3.182-8.617-4.859s-5.71-3.876-8.617-4.485c-.732,4.008,6.048,3.653,7.494,6.725-1.608-.493-3.045-2.8-4.873-1.869M98.6,23.1a3.86,3.86,0,0,0-3.37-2.99c.429,1.688,1.016,3.221,3.37,2.99m4.121-.749c.107-1.723-1.228-2.012-2.246-2.615.215,1.4.325,2.913,2.246,2.615m-3.37-.746c-.694,1.057.507,2.808,2.246,2.615.1-1.6-1.368-1.624-1.872-2.615,1.049-1.231-1.459-3.639-3-2.244a6.2,6.2,0,0,0,2.624,2.244M46.894,18.989c3.158,2.114,6.99,3.686,10.491,5.608,3.48,1.908,6.679,4.479,10.117,5.233a6.912,6.912,0,0,1-1.875-2.992c-6.781-2.83-11.926-7.29-18.734-10.09Zm60.32,38.872c.168-1.079,1.613-.884,1.875-1.869-.98.047-2.86,1.1-1.875,1.869m26.6-39.618c-.663,1.831-1.357,3.628-3,4.485-.088,3.458-4.339,6.533-5.619,9.344-.451.988-.16,2.3-.749,3.364-.666,1.2-2.026,1.531-3,2.618a19.175,19.175,0,0,0-4.5,7.849c-6.731,5.12-11.752,11.948-19.108,16.446a55.329,55.329,0,0,0,6.368-2.244.379.379,0,0,1,0-.749c2.362-1.008,2.7-4.039,4.873-5.231,1.145.27,1.365-.383,2.249-.374,5.547-5.583,8.644-13.77,14.236-18.315-.052-3.287,2.563-5.159,4.873-7.1.892-3.471,2.844-5.883,4.5-8.6a9.094,9.094,0,0,0,3.747-2.99c-1.792-.765-2.907,1.3-4.873,1.495m8.991-.746c1.1.633,3.857.262,4.121-1.123-2.134.476-2.7-.1-1.123-1.12-2.194-.446-2.307,1.187-3,2.244M79.866,15.253c-.069-1.22.881-1.8-.752-1.869-.055.928-.069,1.814.752,1.869m-32.972-.374c1.3,1.759,3.436,2.348,5.247,3.364,5.8,3.248,11.16,6.984,17.233,9.718.231-1.85-.851-2.392-1.123-3.739,3.023,1.968,5.916,4.066,8.991,5.982a1.022,1.022,0,0,1,1.123-.749c.311-1.054-.526-.969-.374-1.869.507.118.716.534,1.5.374-1.448-1.974,3.408-3.758.374-4.859-.226.666,1.1,1.553,0,1.869a4.817,4.817,0,0,0-3.372-1.12c-.917.5.41,1.39-.374,1.495C74.894,24.968,72.871,23.03,72,24.6c-2.362-1.756-5.7-2.533-7.868-4.485.259-1.644-1.778-2.937-3-1.869.322.462,2.412,1.035,1.5,1.5-.936-.311-1.47-1.027-2.621-1.123,1.616,2.624,5.533,2.951,7.491,5.233C59.918,21.2,54.982,15.908,47.268,13.387,47.354,14.091,46.847,14.21,46.894,14.879Zm28.1,2.99c-.058,2.31,2.368,4.107,4.121,3.364-1.115-1.376-1.847-3.141-4.121-3.364m-4.87-5.605a26.658,26.658,0,0,0,1.123,2.99c-.479-.019-.518-.479-1.123-.374,1,1.867,1.542,4.193,4.121,4.485.317-1.809-1.809-1.184-1.123-3.364.443.11,1.415,1.506,1.872.374-.066-.884,1.594,2.524,3.372,2.244.374-3-2.932-4.292-4.5-4.11.3.041,1.137,1.233.374,1.12a7.3,7.3,0,0,0-4.121-3.364m37.09,2.615c-2.434-.939-5.341-3.386-8.242-2.615,3.18.2,6.125,2.6,8.242,2.615M90.729,24.222c.41-2.651-2.5-1.99-3-3.736.471.08.765.581.749-.374-.523-1.721-3.265-1.228-3.747-2.99,1.338.534,2.414,1.327,4.121,1.495.917,1.949,1.721,4.014,3.747,4.859-.457.041-.889.11-.749.746.82.435,1.432,2.2,2.621,1.123-.14-1.729-1.608-2.136-1.872-3.739,1.294-.3,1.58.7,2.246,0-.028-1.966-1.445-2.541-2.621-3.364,2.051-.3,1.825,1.668,3.744,1.495-.823-3.037-5.531-2.205-7.494-4.11,4.336.413,8.176,3.306,11.992,2.99-2.968-1.9-7.061-2.673-10.491-4.11-1.382.727-3.571-.237-3-1.12,6,1.864,13.456,2.274,16.11,7.474,1.233.017,1.864.63,3.372.374.826,3.163,3.408,4.573,6.368,5.605-.4-1.674-1.555-1.5-2.621-2.615.1.107.628-.518.374-.749-.479-.435-2.8-.691-2.249-2.244-1.624-.641-4.1-.3-3.747-1.866,1.052.2,1.949.548,3,.746.275-1.343,2.3-.944,1.875-2.99-5.729-2.051-15.083-6.808-22.481-5.979-.113.735.507.741.749,1.12-1.25.63-1.28-.24-2.624-.374-.592,1.462.975.774,1.123,1.495-2.073-.449-2.175,1.068-3.747,1.12a9,9,0,0,1,0,3.739C87,18.48,86.553,23.655,90.729,24.222Zm-8.617-5.233c.295,1.1,2.255,2.467,3.372,1.5-1.164-.46-1.506-1.74-3.372-1.5m15.361-7.1c-.961-1.415-4.655-2.076-6.37-1.495,2.045.575,4.325.919,6.37,1.495M67.877,17.5c-2.75-2.222-6.745-3.664-10.117-5.608-2.618-1.509-5.1-4.6-7.868-3.364,1.575,2.794,7.444,3.287,8.242,5.608-3.367-1.126-5.9-3.089-9.74-3.739.151.9-.685.812-.374,1.869,4.7,1.517,8.677,6.811,14.236,4.11a4.461,4.461,0,0,1,3.372,3.739c2.513,1.481,6.379,1.61,8.991,2.99C73.8,19.806,71.53,17.962,67.877,17.5ZM55.888,9.274A79.905,79.905,0,0,1,66.377,16c1.594-.325,2.844,1.627,3.747.749-2.106-5.126-9.682-4.793-13.112-8.6,4,1.368,8.474,4.253,12.364,4.485a7.155,7.155,0,0,1-1.5-2.241,45.255,45.255,0,0,1-5.619-1.869c-1.831-.716-3.92-1.294-5.247-2.615,8.044,1.817,13.883,5.836,20.606,8.969.273-1.142-.647-1.1-.374-2.244C73.446,10.958,70.01,7.908,66,6.281c-1.462-.592-3.392,0-4.5-1.495A36.3,36.3,0,0,1,74.245,9.645c1.164.691,1.905,2.6,3.747,2.244-.226-1.4-1.41-1.833-1.5-3.364-4.322-.911-8.052-3.736-12.363-4.859-1.473-.383-3.419.562-4.5-1.12-2.244.691-5.784,2.139-4.87,3.736-.385-.831-2.508-.295-2.246.749-.256,2.021,2.346,1.715,3.372,2.244M75.368,7.03c-3.378-2.486-8.08-5.641-13.861-4.485,4.972.895,9.715,4.011,13.861,4.485m69.688,56.435a1.757,1.757,0,0,0-.374-1.12c-2.387.983-5.619,1.123-7.119,2.99C141.017,65.668,142.614,64.145,145.056,63.465Zm2.246,2.992c-.749.873-2.621.622-3.37,1.495.818,1.236,4.515.077,3.37-1.495m3.747,8.22c.154-.9-.683-.812-.374-1.866H148.8C148.918,74.064,150.055,74.3,151.049,74.678Zm-17.608,7.1c-.578-.867-2.084-2.134-1.123-3.364,1.754.779,3.573,2.067,5.993,1.12,1-.661-.958.961-1.872.749,1.429,1.6,5.242.622,5.619-1.869a1.759,1.759,0,0,1-1.123.374c.317-.807,1.644-.6,2.246-1.12-.79-1.407.193-1.324.752-2.244-3.2-.7-6.068,2.169-9.743,2.244,3.237-2.626,10.489-1.957,11.24-5.982,1.487-.234,1.074,1.423,2.624,1.123.939.063,1.173-.575,1.5-1.123-.856-.589-1.4.284-.749-1.495-1.448-.2-1.828.666-3.372.374.267-.98,2.139-.358,2.249-1.495-3.65-1.115-7.524.647-10.866,1.869-.289-2.04,6.175-.564,6-3.739,2.282.16,3.386-.859,4.87-1.495-.991-.823-2.354.143-1.5-1.869-2.312.187-3.827,1.167-5.622,1.869.162.834,1.847.151,2.624.372-1.3,2.648-5.313,1.638-6.745-.372a8.327,8.327,0,0,0-4.5.746,35.475,35.475,0,0,0-13.112,11.213c6.423,2.029,10.268-3.686,15.359-2.99-3.37,1.993-6.657,4.072-11.612,4.485.892,2.847,3.127,4.355,4.121,7.1a22.333,22.333,0,0,1,7.491-2.244c-1.977,1.641-5.445,1.792-7.868,2.99,1.726,2.557.369,7.419,4.124,8.6,1.247,0,1.277-1.217,2.621-1.123-1.61,2.648,4.807.958,6.37,2.99.746-.374,1.6-.644,1.872-1.495-1.542-.292-1.922.575-3.372.374-.006-.545,1.583-1.184,0-1.12.325-1.547,3.108-.639,3.372-2.244-2.436-.8-4.633,1.853-7.868,1.495,2.12-1.872,6.2-1.789,8.242-3.736-3.948-.325-7.783,2.7-11.989,3.364,2.778-2.714,8.251-2.734,11.615-4.859-1.61-1.4-4.815,1.528-7.494,1.495,2-1.745,6.1-1.4,7.119-4.11,2.893,2.015.98,8.537.749,11.959-1.109.443-2.544-.242-4.5,0-3.8,2.643.363,6.114-.749,10.092-.779.818-1.211-.328-1.875.374-.765,3.97-2.106,7.364-6.745,7.474A11.812,11.812,0,0,1,125.2,114.3c-.427.072-.209.377,0,.374-3.389-.234-9.195-1.291-9.743-5.605a9.576,9.576,0,0,1,3-.749c-.1,1.434-1.247-.372-1.5.749-.278,1.244,1.814.6,1.872.746.2.493-1.129.289-1.123.374.069,1.156,2.48,1.261,2.249,2.615,2.522-.421,5.655,1.4,8.242-1.12-1.021-1.261-.289-2.651-.749-3.736-.694-1.63-2.268-2.29-3-4.487-3.315.432-5.054,2.434-8.617,2.615.041,1.913,1.239.509,2.621.749-6.067,2.756-8.039-4.553-8.242-10.092-1.867,1.795-3.491,1.349-6.368.749-1.509.738-1.6,2.893-2.624,4.113a11.106,11.106,0,0,0-9.366,1.867c.295,1.6-.055,1.525.374,2.992,4.377-2.109,8.892-.322,9.74,4.11,7.582-6.07,14.3,9.349,7.494,13.454,3.631,3.471,7.912,12.364,1.123,15.326-1.533.363-2.4-.925-3.37,0,.708,3.507.2,9.126-3,10.838,1.4,1.968,4.424,2.312,6.745,3.364,1.58-3.246.372-7.637,1.5-12.333,2.266-2.976,8.308-2.178,10.492-5.233,5.481.886,11.728-3.056,15.736,0,.35,1.41.019,1.754.374,2.615,2.833,1.908,6.513,2.97,9.366,4.859a2.423,2.423,0,0,0,.374,1.869c-.245,1.374-1.382,1.861-2.249,2.618-.017,1.723-.273,3.215-1.5,3.736.553-2.907-1-4.895-.374-6.728.771.1.352,1.393,1.123,1.5.939.063,1.173-.575,1.5-1.123-.754-1.861-3.449-1.787-3.744-4.11-2.566,1.093-4.264-1.66-6.37-2.244-.672-1.767.919-2.1-.749-3.361-6.123,1.817-14.615.95-18.734,4.485,1,1.748,1.558,3.931,2.624,5.608,1.949-1.974-.639-3.493-.749-5.608,3.678,3.411,1.035,9.093,3.372,14.2-2.147-2.483-1.6-9.178-4.873-9.344-.074-1.17.253-2.745-.374-3.364-1.415-.54-.719,1.027-1.872.749.149-.972,1.118-1.129,1.123-2.244-1.872.014-3.689,2.384-4.121,4.485-.248,1.211.628,3.733.749,5.608.11,1.7-.776,3.8,1.5,4.485.292-2.161-.545-3.2-.374-5.233a21.564,21.564,0,0,1,1.872,8.223c2.921,1.2,6.274,1.963,7.494,4.859,7.3,1.043,7.986-7.386,10.492-12.333,2.9,1.908-2.593,5.082-.374,6.354-1.522.975-2.078,2.913-3.372,4.11a19.536,19.536,0,0,1,.749,6.728c1.63.149,2.081-.3,1.5-1.495,2.64,1.789,3.956-2.94,8.242-1.869-1.666,1.7-4.507,2.233-6.745,3.364,2.555,2.183,7.284,2.2,8.617,5.605q1.226.1,1.123-1.12c.077,2.387,1.407,3.469,2.249,4.859,2.257-.165,1.517-.793,3.372,0,.862-1.255.394-3.843,1.123-5.233-.05-.49-.058-2.7.374-1.495a18.879,18.879,0,0,1-1.123,7.477c-2,.173-2.981.457-4.873-.374-.617,1.178.785,4.19,2.249,3.364.047.669-.46.787-.374,1.495.652-.107,2.012,1.192,1.875-.374.149,2.593,1.655,3.829,3.747,4.485a3.348,3.348,0,0,0,.749-2.615c.752.416.429,2.891,0,3.364,1.6,1.514,3.579,2.659,4.5,4.859-1.795.171-1.338-1.905-3-1.869-.4,2.767,2.83,1.911,4.5,2.615.531-1.093-.939-2.91-1.5-4.11-.066-4.066.752-7.328,0-10.467-.617-2.56-3.034-3.482-4.5-5.605-1.288-1.872-1.057-3.934-2.624-5.233-.509,1.412-1.473.7-3,1.495a5.37,5.37,0,0,1-.374,4.113c-1.137-.462.407-1.286,0-2.244-1.076.085-.44,1.112-1.123,2.244-1.151-.421-1.4-1.743-2.249-1.5.2-1.418,1.6-1.646,3-1.867,1.275-.848,1.784-2.456,3-3.364-1.093-3.394-5.231-3.752-8.242-5.233-1.63.118-2.373,1.123-3.747,1.495-.52-.229-.058-1.437-.749-1.495-1.74.256-.518,1.3-.374,2.615-1.335-.41-.983-2.508-1.5-3.736,4.218-1.357,6.814-3.838,7.494-7.849a2.117,2.117,0,0,0,1.5.374c.33,1.214-1.822,2.811-1.872,4.856-1.3,1.313-3.491,1.751-4.121,3.738,1.129.661,2.332-1.258,3.372-1.869,1.971,2.778,5.173,1.855,7.494,3.738,1.949,1.58,3.816,6.524,5.619,8.969a16.378,16.378,0,0,0,4.121,4.11c-.107,2.951,1,8.8.374,12.333a11.309,11.309,0,0,1,1.875,5.608c-2.783.377-5.459-1.5-7.119,0-1.28.281-.476-1.52-1.872-1.12-1.087.534-.93,2.313-1.875,2.99-3.705,1.06-5.69-3.232-9.366-2.244-.518-.482-.372-1.622-.374-2.615,2.5,1.082,5.352,1.233,7.116,3.736,2.858-.851,1.28-4.947,2.624-7.849-.562-.87-.917-.57-1.872-.372.3-1.82-.669-2.1-1.875-1.495,1.1-2.4-1.324-3.692-2.624-4.859-.493.914-.127,1.828,0,3.361-.672.05-.79-.457-1.5-.372-.584,2.684.2,5.41,0,7.849-1.181.058-.73-1.517-1.5-1.869.041-4.727.639-5.437.749-10.092-1.69,1.536-1.575-.575-1.123-2.241a1.433,1.433,0,0,0,2.249.372c-.039-1.209-1.7-.8-1.123-2.615-.336.165-.672.328-.749.749-.884-.1-.231-1.657.374-1.5-2.244-1.674-5.283-4.229-7.871-3.736-1.476.281-1.7,1.583-3,3.364-2.106,2.888-6.04,7.733-6,11.959a4.928,4.928,0,0,0,2.624.746c1.454-.041,1.159-1.831,2.624-1.867,3.017.352,2.464,4.267,4.87,5.231-2.425,1.167-3.1-2.629-4.5-3.736-2.191.416-3.615.652-5.247,1.869-1.313.98-1.572,2.629-2.621,3.364-2.753,1.927-5.3.212-8.619-1.5-1.517-.143-1.723,1.021-2.621,1.5-2.571-.3-3.7-2.043-4.873-3.739,1.971-1.085,2.224,2.758,4.5,2.615.16-2.153-2.654-1.341-2.624-3.361-1.151-.1-1.685-.812-2.624-1.123-.765-1.478-2.134-2.354-2.246-4.485-5.377-5.77-1.861-19.551,3.37-22.8a3.477,3.477,0,0,0,2.624-1.12,22.751,22.751,0,0,0-8.991-5.6c2.753,4.57,3.612,13.11-4.5,12.333a39.518,39.518,0,0,1-3.372-3.739c-1.7.919-2.381,2.858-4.5,3.364.958,4.763,2.153,13.382-3.747,13.456.35,5.594,1.06,12.1-3.372,14.577-3.2-.542-4.82-2.668-6.745-4.487.471,2.775,2.742,5.61,2.624,8.972a8.32,8.32,0,0,1-4.5,7.1c-2.161-.71-3.16-2.58-4.873-3.739-5.817.906-8.132-5.17-6.368-11.21-.964-1.715-3.535.162-4.5-1.123-.743-3.26-2.07-7.235-.752-10.464-2.3-3.191-4.809-6.167-4.87-11.587a5.7,5.7,0,0,0-3.372,1.495c-4.584-2.257-7.639-9.927-4.5-14.577-1.96-3.026-5.539-4.441-5.244-9.715-1.9-.933-.986,1.922-2.624,1.869.837-1.566-1.214-.834-3-1.5a23.419,23.419,0,0,1-3-8.969c-2.624,1.613-4.551.966-7.491,0,.151-2.007-1.035-3.956-.752-6.354a10.211,10.211,0,0,1,3.747-6.354c.512-4.721,2.791-7.681,4.873-10.838a37.168,37.168,0,0,1,5.244-1.12c1.737-3.482,6.979-9.982,10.866-4.859.077-3.009,2.508-6.31,5.244-7.851a6.376,6.376,0,0,1,6.37,2.244c.278-4.886,3.507-8.2,8.242-7.474-.366-2.9-1.225-5.341-.752-8.223.589-3.565,3.59-5.781,4.5-8.6-3.741-1.784-10.219-3.642-13.864-6.725-5.01-1.855-9.368-4.361-16.485-4.113-.972.317.721,1.641-.374,2.244-3.174.019-1.225-3-.374-4.113-.562-3.739.611-8.116,0-11.21,2.943,1.313.964,4.3,2.621,5.979-1.47-1.836-1.2,1.2-1.872,2.244,3.224.782,6.04-.771,9.366.372.374.129.853.831,1.5,1.123.611.275,1.5.146,1.872.372.46.275.647,1.277,1.126,1.495.507.234,1.379-.256,1.872,0,1.275.666,2.167,2.065,3.372,2.618,3.992,1.828,9.919,2.257,16.11,2.615,1.985.116,4.107.724,6.368.374a40.844,40.844,0,0,0,6-1.869,108.762,108.762,0,0,0,15.736-6.728c3.155-4.08,6.536-7.928,11.24-10.464-.154-.9.683-.815.374-1.869,3.408-2.7,4.493-7.728,8.242-10.092,2.53-6.943,8.292-12.237,10.114-18.687C125.945,11.2,115.93,4.841,104.59,2.92c-7.141-1.211-16.942.625-19.483,7.474,4.6-1.952,9.985-1.316,16.487.749,1,.317,1.787,1.239,2.621,1.495.545.168,1.363-.237,1.875,0,3.268,1.506,5.787,4.633,3.747,8.595.8,2.315,3.554,2.684,4.5,4.862.507,3.125-1.663,4.465-2.249,6.351-1.134,3.664,2.054,8.438-1.5,10.841-5.795-.424-6.569,4.162-10.866,5.231-3.125-.994-6.335-1.9-7.494-4.856-1.1.267-2.321.424-3,1.12v6.728c-1.2.787-2.588,2.99-4.5,1.867-2.593,1.277-3.97,3.766-7.119,4.487-2.359,2.043-2.827,5.41-5.993,5.605-2.156.132-3.639-2.186-6-3.364-1.935-.969-3.964-.606-5.244-1.869a8.579,8.579,0,0,0-1.872-3.364c-1.145.273-1.365-.38-2.249-.374-3.07-3.518-3.174-10.987-2.621-16.069.961-.036.534-1.459,1.5-1.495-.724-1.324.008-2.158,0-3.739-3.116-.848-6.745-2.858-5.619-6.728-.961-1.487-2.651-1.591-3.372-3.364-1.3-3.191.35-7.664-.374-10.838,1.6-1.514,1.864-4.369,4.5-4.859,3.937-9.382,25.591-7.981,28.1,2.99.581.542,1,1.242,1.872,1.495,1.142-.457-.548-1.426.374-1.867,1.327.652.922-.251,2.249-.374C87.6,3.159,95.539-.395,107.588,1.8c4.259.774,8.936,2.959,13.112,5.233C125.76,9.786,130,12.621,132.69,16c4.482.132,7.934-2.293,11.615-2.244,3.824.055,6.717,2.321,10.491,2.244-4.542,2.571-11.114,3.114-16.859,4.485-.8.953-.881,2.61-2.624,2.615a4.513,4.513,0,0,1-2.249,4.113c-.873,2.714-2.863,5.8-4.5,8.595-4.006,6.866-8.732,14.979-14.613,20.185-1.682,5.96-2.888,9.842-1.872,16.818.917-2.417.058-5.079.374-7.1,1.561-10,13.118-10.252,19.108-16.072,6,.886,10.483,1.176,13.487,5.231-1.555,4.094-.025,7.463,3.747,8.223a32.48,32.48,0,0,1,0,4.859c1.36,2.1,4.421,5.327,2.249,8.595-1.608-.515-2.279-1.963-3.372-2.99-1.153-.278-.721,1.027-1.875.749.955,4.606-2.791,6.973-6.742,7.849.16,1.459,2.216,1.027,1.872,2.99-.867.677-2-.768-2.246-1.869-1.685.118-2.233-.68-3.747-1.495-1.525.529-6.662,2.7-7.868,1.869,2-.752,4.429-1.065,6.37-1.869" transform="translate(36.807 2.017)" fill="#ca9e67" fill-rule="evenodd"/>
      <path id="Tracé_254" data-name="Tracé 254" d="M48.369,6.1c1.767-.823,7.125,1.754,9.368,2.99-2.885.256-6.1-2.39-9.368-2.99" transform="translate(84.788 10.421)" fill="#ca9e67" fill-rule="evenodd"/>
      <path id="Tracé_255" data-name="Tracé 255" d="M39.795,9.828c1.222-.336,3.372,1.61,4.87,2.244-1.275.388-3.24-1.745-4.87-2.244" transform="translate(69.759 17.161)" fill="#ca9e67" fill-rule="evenodd"/>
      <path id="Tracé_256" data-name="Tracé 256" d="M40.151,158.316c-2.535.039-1.828,1.844-4.121,1.495,2.219,3.667,6.37.76,7.119-1.12.3.862,1.759-.193,1.872-.746a10.02,10.02,0,0,0-4.87-.749Zm9.743-2.99c-.055-.5,1.258-1.39.374-1.495.055.5-1.525,1.129-.374,1.495m-8.619-.749c.154.9-.683.812-.374,1.869,2.439.1,4.452,1.2,6.745.374.138-2.478,1.8-3.433,3.747-4.11.121-1.74-.746-2.494-.749-4.113a5.487,5.487,0,0,0-3.372.749c.35.4,1.382.116,1.123,1.12-3.389-.19-2.544-2.346-5.619-2.615-.011,1.814-.154,4.52-1.126,6.354.231.518,1.443.055,1.5.746C42.089,155.26,42.178,154.426,41.275,154.577Zm-1.872-7.1c.507.118.716.531,1.5.372v-1.12c-.853-.1-1.407.091-1.5.749m10.866-.374c-.278-2.216-4.341-.652-6.37-1.12.135,1.938,5.167,2.709,6.37,1.12m-4.87-5.979c.586-.036,1.3.05,1.123-.749h-.749c0,.374-.306.446-.374.749M36.4,136.639c.479,1.283,3.323,3.284,4.5,1.495-1.324-.548-3.1-2.219-4.5-1.495m22.855-8.6c-.077-1.17.253-2.745-.374-3.364-3.694-.424-8.143-.1-10.866-1.495,3.807-.347,9.682,2.078,11.615,0-4.807-2.191-10.915-.994-16.485-1.495-2.222-.2-4.633-1.277-6.745-1.12.655,1.74-1.156,2.4-.749,4.11,3.059.355,9.836.083,13.861,1.495,1.638-1.013,4.652-.829,6.37,0-2.31.212-4.218-1.052-5.247.749,2.216,1.03,5.792.7,8.619,1.12M37.9,126.547c5.462,2.15,13.514,1.718,19.105,3.739-3.031.118-6.343-1.107-9.366-1.5-1.988-.256-4.768-.716-5.247.374,2.624,2.032,7.116.845,10.491,2.615-1.412.085-3.389-.391-3.747.749-5.445-1.825-10.91-5.517-16.485-5.979-.281,2.646.418,4.317.749,6.354,4.754,2.065,9.253,6.483,14.613,7.474.509.094,1.588-1.118,1.872.374-1.522,1.275-5.365,1.363-7.116.374h1.872c-.782-2.808-4.619-2.175-6-.749.4.724,1.726.52,2.249,1.12-.672-.047-.875.372-.749,1.12,1.847.8.812,2.161,2.624,2.99,2.279-1.087,7.075.333,9.366-.746.391-3.13-1.968-3.518-2.624-5.605-4.628.008-6.271-2.962-7.119-6.728,4.091.154,5.363,3.122,9.743,2.99.73-.889-.377-1.784.749-2.615,2.087,1.145,2.976-.961,4.873-1.123-.19-1.737,1.349-1.253,1.5-3.361-8.336.424-13.977-3.849-21.355-1.869m4.121-10.092c.589.036,1.3-.05,1.123.749-1.173.077-2.75-.253-3.372.374-.5,1.054,1.985.936.749,1.495-1.211.16-3.24-.493-3.372.746,5.321,1.321,13.977,1.308,19.108,1.495,1.112.041,2.7,1.957,3-.372-6.076-.666-12.2-1.291-17.985-2.244,6.07-.306,11.923,1.539,16.862,1.12.028-1.4-1.616-1.129-1.123-2.99-4.361-.3-11.323-3-14.987-.374m3.372-1.867a17.941,17.941,0,0,0,5.993.746c-.091-2.756-4.765-2-5.993-.746M24.416,88.8v.746c.922.581,1.1-1.269.374-1.12-.019.228-.055.443-.374.374m1.875-3.364c-1.14,1.258,1.385,1.134,0,0m20.98,8.595c0,.011,1.123.006,1.123,0,.322-2.161-3.967-5.751-5.619-6.354a1.022,1.022,0,0,1,.749,1.123c-.856-1.767-4.171-3.059-4.121-4.487,1.107.242,1.517,2.412,2.624,1.495-.275-1.294-1.151-1.988-.374-3.364-2.915-1.514-5.734-3.873-9.743-2.241-.942,1.677-1.641,3.6-3.372,4.485a6.873,6.873,0,0,0,4.121,6.728c2.932,1.222,5.112,1.1,7.119,2.615,2.563,1.938,2.676,4.986,5.619,6.728-.182-6.544-5.745-7.722-8.242-11.962,4.006,1.489,4.79,6.186,8.994,7.477.325-1.109-1.6-1.844-.752-2.244.424,1.074,1.608,1.387,3,1.495.875-.98-1.035-.944-1.123-1.495m-16.11-15.7a1.033,1.033,0,0,0-1.123.749c1.866.471,3.827-.471,5.993-.749-.994-2.78,2.6-5.754,1.5-8.595C35.4,72.592,32,74.186,31.16,78.331M51.392,35.724c-1.754.418-1.129,3.67-3.747,4.113.187,1.079,1.354,3.108,2.624,1.867-.518-.036-1.462-1.459-.752-1.495,1.153,2.271,3.783,3.133,6.37,2.992.2-1.817-1.594-1.652-1.5-3.364.534.146.63.449,1.123,0a11.279,11.279,0,0,0-4.5-5.982c-.917.881.559.7.374,1.869M40.151,57.029c.085,1.03,1.4,3.747,1.123,6.354.5.374,1.4.352,1.5,1.12,1.261-.237,1.922-1.074,3.747-.749.124-.87.383-1.608,1.123-1.867A12.739,12.739,0,0,1,51.017,66h2.624c.083.708-.424.826-.374,1.495,2.3-.074,3.6-1.145,5.993-1.12.636-3.144,3.067-3.686,6.745-2.99.11-.763,1.013-.732,1.123-1.495-2.18-3.964-6.26-8.262-7.119-11.962,2.279,3.46,4.03,7.444,7.119,10.092,1.079-3.017-1.759-5.17-2.624-7.474.661-.091.856-.644.752-1.5-1.39-.98-2.987-1.754-3.747-3.364-1.867.281-2.208-.231-3.372.749.052-1.176-.961-1.283-1.875-1.495-1.451.669-1.379,2.858-2.621,3.739.173-1.924,1.368-4.474,1.123-5.608-4.256-.179-1.96,3.9-3,6.728.746,1.233,1.6-.928,1.872,0-.129,1.679-1.12,1.082-1.872,1.495a2.438,2.438,0,0,0,.374,1.869c-1.649.223-2.136,1.6-2.624,2.99a1.035,1.035,0,0,1-1.123-.749c3.18-3.854,2.464-9.946-.749-12.708.7-.355,1.253,1.12,1.5,0-.8-.842-2.023-3.29-2.246-1.495a13,13,0,0,1-2.246-2.99c-.636-1.514-1.555-1.977-1.875-3.364-.063-.275.146-.886,0-1.12-3.981-6.376-7.675,3.78-12.738,1.495,4.11-.636,5.517-3.967,9.74-4.485-1.781-1.712-3.3-3.689-5.619-4.859-.041.454-.113.884-.749.746-.237-1.382-1.159-2.084-3-1.869-.151,1.663,3.081,1.891,2.249,2.992-2.1-1.773-4.121-4.939-7.494-3.364,1.371,2.123,4.815,4.162,5.244,5.979-2.428-.944-3.353-5.371-5.993-4.859,1.283,1.159.011,1.429,0,2.99,1.093,1.283,4.3,2.431,3.747,4.113-1.434-.815-2.048-2.445-3.747-2.992-.017,1.14.79,1.454,1.123,2.244-1.63.069-.683.65-.749,1.869,1.4.724,3.788.454,4.121,2.241-3.6,3.774,4.975,3.609,6.368,5.982-.641,1.613-1.88,4.237.377,4.856.036-.586-.052-1.294.749-1.12.308,2.439,3.1,4.377,3,5.982-.65-.848-2.453-4.113-3-2.618-.028.295,1.657,2.07,1.872,3.364-.919-.451-1-1.743-2.246-1.869.05,1.319,1.071,1.671,1.123,2.992-.867,0-2-2.9-2.249-1.123,1.478.972,3.378,3.251,5.244,2.618M51.766,26.755c.46-.972-2.216-3.664-3.372-2.99,1.451.672,1.878,2.362,3.372,2.99M29.285,23.391c-.859-2.42-2.582.421-4.118-1.12-.432,1.1,1.795,1.387.749,1.869-.65-.474-.983-1.264-2.249-1.123.41,1.17.383,1.195-1.123,1.123a2.431,2.431,0,0,0,.374,1.866,9.978,9.978,0,0,1,11.24.749c.5-.006.341-.655.749-.749,4.463,3.9,7.94,8.776,12.366,12.708,2.69-3.326,3.158-5.795,2.621-11.21a1.758,1.758,0,0,1,1.123.372c.151-1.666-1.594-1.176-1.872-1.495.179-1.173-.468-1.528-1.123-1.869-.545.7-.551,1.944-1.5,2.244-.655-.889-1.872-2.624-3-1.869.176,1.456,3.147,2.076,2.621,2.99-1.833-.286-2.023-2.216-4.121-2.241.35,1.77,2.2,2.045,2.624,3.736-1.616-.006-1.379-1.861-3-1.866.493,1.107.333,1.842-.749,2.241-4.025-1.533-5.756-9.123-11.617-6.354m13.489.374c-1.426-2-4.322-3.67-7.119-2.244.537,1.955,2.524,2.464,3.372,4.113-1.855-.774-3.16-4.069-5.244-3.364,2.051,2.065,3.7,4.529,6.368,5.979,1.153-2.186-.11-3.953.374-5.233.052.732,1.674,1.776,2.249.749m9.366,4.11c-.325,1.448.917,1.33,1.123,2.244-.87-.165-1-1.652-1.872-.749.143,1.228,1.1,1.649,1.5,2.618-.507-.118-.713-.534-1.5-.374,1.222,2.268,2.222,4.76,4.5,5.979a9.344,9.344,0,0,1,.749-4.859C54.932,31.322,54.687,28.451,52.14,27.875ZM67.876,20.4c.46-1.465-3.185-2.045-4.5-2.99.628,3.111,3.937,3.546,4.87,6.354-2.968-1.434-3.926-4.823-6.368-6.354-.853-.534-2.131-.295-3-1.12.9,2.6,4.823,5.4,6.745,8.22-2.651-.462-5.514-7-7.868-7.849.63.226-2.489.44-1.875,0-.055.039-.674,2.343-.749,1.869.33,2.106,4.823,4.562,5.619,6.354-2.128.124-2.984-4.245-5.619-4.859-.055,1.432,2.3,3.675,3.747,4.859-.132.523-.661.033-.749-.374-.873-.253-1-1.242-1.875-1.495-.245-1-1.074-1.421-1.5-2.244-1.883-.743-2.739.091-4.5.374.028,1.1.856,1.387,1.5,1.869-.983,1.195-1.288-1.429-2.624-1.12,1.063,1.806,2.2,3.535,4.5,4.11-.964,2.266,1.357,3.659,2.624,4.859,1.514-.234,1.5-1.993,1.875-3.364,2.615-.622,3.978-2.332,7.116-1.495-.752,1.594-2.778,1.079-4.121,1.869-1.308.768-1.652,2.07-3,2.615-.179,1.616.083,3.006-.374,4.485-.008.025-1.087,1.861-1.126,1.495.187,1.787,2.172,1.608,2.624,3.739-.892-.361-1.652-1.979-2.624-1.12,1.3,1.448,2.871,2.618,3.372,4.859-1.228-.644-1.77-1.974-3-2.618-.284.8.823,3.4,2.246,3.739,1.531-1.941,1.966,1.682,3.747.374-2.4-3.086-2.643-6.048-4.87-9.344,1.88-.129,3.05,3.675,4.87,4.856-.369,1.148-1-.429-1.5-.372a6.236,6.236,0,0,0,3,4.485c.253-1.594-1.184-2.877-1.5-4.485,1.275-.636,2.026,2.453,2.624,3.736,1.206-.165,2.029-.716,3.37-.746.388-2.131-1.555-1.938-1.5-3.739.493.132.589.658,1.123.749C66.772,36.451,64.4,32.833,62.258,29c2.208.215,3.1,3.978,4.5,6.354a62.3,62.3,0,0,0,4.5,6.728c1.327-.87-.27-2.844-.749-3.739C68.755,35.094,65.451,31.3,64.13,27.5c1.517.694,1.822,2.4,2.624,3.736a96.8,96.8,0,0,1,6.368,11.587,29.1,29.1,0,0,1-5.244,2.244c-1.61.548-4.245.578-4.5,2.241.369,1.049,1-.542,1.5.374.763,1.924,2.522,4.617,1.875,6.728,2.37,2.373,1.745,5.173,1.5,8.969a9.463,9.463,0,0,1-5.993,1.495c-2.866,4.666-11.882,4.454-14.238-.372-1.4.975-3.934.809-5.619,1.495-2.571,3.166-3.469,8-4.5,12.708,2.962,1.528,5.737,3.243,5.993,7.474,2.855,2.136,4.548,5.429,6.37,8.6-.548,1.572-1.905,2.335-3.747,2.615.011,2.607,1.107,6.136-.374,10.092-4.485.622-7.328.2-10.117-2.244-1.03,2.354.807,7.166.377,10.464.069.3.374.374.374.749,4.435.366,6.948-4.4,11.238-4.485,4.008-.074,4.768,4.022,10.117,4.11,1.06,2.533,2.447,4.295,2.624,7.1.055.906-.669,1.065-.752,1.869-.22,2.191.652,4.628,0,7.1-1.966.779-3.565,2.483-5.993,2.241-.669.578-.248,2.244-1.123,2.618-3.758.135-5.489-1.754-8.617-2.244,3.094,3.89,9.839,4.138,9.366,11.587a1.846,1.846,0,0,1-2.249,0c.7,3.832,1.759,7.606-.374,10.838-4.834.273-7.871,4.267-11.615,6.728-.658-.091-.853-.644-.749-1.5H36.033c-3.455-5.4-6.665-11.042-10.491-16.069A17.005,17.005,0,0,1,25.916,140c-1.644.352-2.593,1.4-3.747,2.241-1.024-.347-1.6-1.145-2.624-1.495,3,.421,7.46-1.982,6.37-5.605a9.369,9.369,0,0,1,3.747-.374c-.017,1.151-1.988,1.338-2.624.749v2.99c.116.507.939.308,1.5.372-.209.776-.586.793-1.123.374a14.627,14.627,0,0,0,.749,9.344h1.872c-1.509,1.275.859,2.238.374,4.11a2.338,2.338,0,0,1,1.875,0c-.061.44-.683.317-1.123.374.336.661.9,1.09,1.123,1.869.8-.8,7.226.727,5.244,1.12-.914-.708-2.442-.8-4.121-.746.24,1.754,2,1.988,2.249,3.736.994.212,1.913-1.17,1.872-1.12.8-.958,1.63-.8,1.875-1.12.146-.193-.716-.831-.752-.749.033-.08,1.564-1.046,1.875-1.867.663-1.743-.116-3.51.374-5.233-1.035-.608-2.7-.994-3.372,0-.113.986.782.964,1.5,1.12a38.415,38.415,0,0,1-7.494-.746c.641-.856,2.86-.138,4.121-.374a1.019,1.019,0,0,0-.749-1.12c.028-.567,2.447.6,3-.374.129-.752-.074-1.17-.749-1.12.157-.84,1.988-.011,2.249-.749-1.657-3.455-2.932-7.29-5.247-10.09-2.172,1.195-2.632,4.1-5.244,4.859,2.032-3.1,5.019-7.46,1.872-11.587-.308-1.057.529-.969.377-1.869-1.707-1.162-4.047-1.7-5.622-2.99-1.4.165-4.743,2.056-4.87,2.99-.176,1.313,1.462-.275,1.123,1.12-2.7-.694-6.257.6-8.617,0,1.762-1.313,4.369.206,6-1.495-1.187-1.308-5.789.79-6.37-1.12,3.8-.2,8.884.886,10.117-1.869-.314-1.06-2.3-.446-3-1.12,2.739-.955,5.3.752,8.991.746-.061.438-.683.317-1.123.374.768,2.659,4.218,1.134,6.37.374.171-2.09.429-2.882,0-4.859-5.277-.094-8.43-2.3-12.738-3.364-1.514,1.418-3.843-.732-6,.374-1.291.457-.958,2.533-2.246,2.99.041.955,1.253.741,2.246.746-.526.925-1.291.661-2.246.374C10.458,121.459,9,124,6.436,125.423c-.385,5.99,4.182,7.039,7.868,8.969-2.246.738-3.81-2.423-6.745-2.244-.589-2.648-3.042-3.441-2.621-7.1a33.133,33.133,0,0,0,10.489-10.464c7.059-1.1,12.672,2.246,18.734,3.361,1.528-.677.986-3.871.374-7.1-.033-.171-.741-1.261-.749-1.495-.11-3.215,1.778-5.25-1.123-6.728-2.58.79-3.323,3.414-6,4.11.317,1.561-.727,1.767-.749,2.99a1.656,1.656,0,0,0-1.5.749c-5.718-.719-9.041-.449-13.861,1.495C3.5,109.032,3.8,95.961,8.308,91.785c-1.566-3.05-4.383-4.848-5.993-7.851-1.12.449-1.275.1-2.249-.372-.143-2.1.911-3.843,0-5.608C2.59,75.367,3.438,71.1,5.684,68.236c.881-.118,1.407-.589,2.624-.372.966-.44,3.675-2.858,4.121-.374-2.948-.575-2.489,3.16-6.745,2.241-1.71,1.054-.793,2.866-1.5,4.485C2.9,77.175.121,78.249,1.563,82.067c.586,1.547,2.582,2.092,3.747,3.364,1.432,1.558,2.067,3.381,3.372,4.859,1.079.044,2.453-.206,3,.372A13.6,13.6,0,0,0,6.059,101.5c.022,3.565,1.955,5.955,3.372,8.595,3.306,1.187,5.784-.7,7.868-1.869,2.475.743,5.905,1.564,8.242.374.975-4.138,3.783-6.445,7.494-7.849,2.029,1.217,2.91,3.579,5.247,4.485.917-.041.08-1.236-.374-1.12,1.4.394,4.441,4.5,7.494,2.244,0-1.247-1.22-1.277-1.126-2.618.95.953.955-.944,1.5-1.495-5.013-3.6-6.541-10.668-15.736-10.092a13.605,13.605,0,0,0-3-2.99c-2.915,1.327-1.021,7.452-3,9.718.432,1.065,1.77,1.225,2.249,2.244-.752,1.082-1.387-1.079-2.624-.749-.884.851.468,1.118,1.126,1.5-.058.691-1.269.229-1.5.746.515.856,1.544,1.2,2.249,1.869-.5.941-1.231-.98-2.249-.749.749,2.321-.157,2.31,1.123,4.487-1.988.49-1.657-1.335-3-1.495-.2-.829.716-.534.752-1.123-1.407-1.627,1.06-2.86,0-4.859.061-1.057-2.31.311-2.249-.746-.845.209.454.584-.374,1.12-1.14.559-1.456-.124-2.246.374-2.139,2.48-6.973,4.253-6.745,7.849-.339,1.013-.84-.853-1.5-.746.859-2.629,3.727-3.978,3.747-6.354,2.524.2,4.138-2.871,7.119-3.364C18,97.814,15.243,97.575,12.8,97.019c-.556.162.149.479,0,1.12-1-1.407-2.233-.71-3.747-1.12,4.647-3.846,15.7,4.234,14.987-4.113-.143-1.693-1.847-1.944-2.621-3.736.6-1.167,1.187.768,1.872.746.8-.234.352-2.3,0-2.615-2.241.008-3.251,1.242-5.993.746-.429,1.553.787,1.459.749,2.618-1.142-.606-1.6-1.9-2.249-2.99-1.36.253-2.037-.9-3.372-1.12-1.737-.289-4.229,1.052-5.619-.749,4.864-1.31,8.848.6,12.363,1.12-.6-1.644-3.482-4.245-5.619-5.605C14.794,79.5,17.511,86,20.3,84.311c-.757.768.154.746.752,1.12.895-.556,2.076-.036,3-.374,2.3-.845,3.6-3.1,4.873-5.231-.5-2.425.083-2.662.749-4.487-1.682-4.176-5.286-6.436-8.617-8.969.262,1.864,3.268,4.7,1.123,2.615a17.578,17.578,0,0,1-2.624-2.615c-.157-.264-1.074-2.489-3-2.241-1.258.611-.834,3.617-3,2.241.308-1.608,1.321-1.682,1.123-2.99,2.257-1.093,2.78-.019,4.87,1.12,4.418,2.412,9.666,5.649,11.615,10.838,2.392-4.091,6.365-6.6,8.991-10.464.372-2.326-1.195-3.56-.374-5.233-2.3-2.335-8.237-4.1-5.244-9.344-.52-.851-1.3-1.448-1.875-2.244.369-1.126.765-2.224,1.126-3.364C27.639,41.712,21.5,37.643,22.921,28.247a9.179,9.179,0,0,1-2.249-4.11c1.192-1.06,2.084-3.059,3.747-3.364,1.743-.322,2.91.708,4.87.746,3.083.063,6.172-2.167,9.368-1.869,3.835.361,5.231,3.359,7.868,5.233.57-.98,1.027-3.824,3-4.485.149-.895-1.707.206-1.126-1.12,1.365-.347,2.6.688,4.873,0,.815-1.539.493-3.579,2.246-4.859,4.138.234,6.469,2.268,10.866,2.241,2.277,1.949,2.739,3.452,4.87,5.608.16.782-.256.988-.374,1.495.429,1.814,3.838.655,3.372,3.364-5.382.262-4.556-5.671-8.242-7.1C66.158,19.2,68.058,19.669,67.876,20.4Z" transform="translate(0.091 25.277)" fill="#ca9e67" fill-rule="evenodd"/>
      <path id="Tracé_257" data-name="Tracé 257" d="M21.286,16.592c1.558,1.437,3.2,2.786,4.121,4.859a13.133,13.133,0,0,1-4.121-4.859" transform="translate(37.313 29.086)" fill="#ca9e67" fill-rule="evenodd"/>
      <path id="Tracé_258" data-name="Tracé 258" d="M18.837,17.134c1.354.151,2.99,3.24,4.493,4.485-1.236-.264-3.039-3.188-4.493-4.485" transform="translate(33.02 30.036)" fill="#ca9e67" fill-rule="evenodd"/>
      <path id="Tracé_259" data-name="Tracé 259" d="M19.789,17.493c.928-.779,1.473,2,2.624,2.244-.853.7-1.66-1.82-2.624-2.244" transform="translate(34.689 30.426)" fill="#ca9e67" fill-rule="evenodd"/>
      <path id="Tracé_260" data-name="Tracé 260" d="M10.807,19.714a11.887,11.887,0,0,1,2.624,2.241c-.669.523-2.467-1.01-2.624-2.241" transform="translate(18.944 34.559)" fill="#ca9e67" fill-rule="evenodd"/>
      <path id="Tracé_261" data-name="Tracé 261" d="M74.431,22.856c1.641-.2-1.533.674-2.624,1.12-3.653,1.5-8.68,3.766-12.738,4.485-1.963.35,1.784-.782,2.624-1.12C65.467,25.813,70,23.41,74.431,22.856" transform="translate(102.562 40.014)" fill="#ca9e67" fill-rule="evenodd"/>
      <path id="Tracé_262" data-name="Tracé 262" d="M19.109,23.092c.231-.683,1.566.647,1.5,1.495-.961-.036-.534-1.459-1.5-1.495" transform="translate(33.497 40.15)" fill="#ca9e67" fill-rule="evenodd"/>
      <path id="Tracé_263" data-name="Tracé 263" d="M57.363,25.416c1.228.4-2.992,1.421-4.5,1.869a57.637,57.637,0,0,0-6,1.869C49.468,27.007,53.6,26.4,57.363,25.416Z" transform="translate(82.164 44.554)" fill="#ca9e67" fill-rule="evenodd"/>
      <path id="Tracé_264" data-name="Tracé 264" d="M16.253,25.552c.947.3.955,1.539,1.5,2.241.647.8-1.588-1.187-1.5-2.241" transform="translate(28.485 44.792)" fill="#ca9e67" fill-rule="evenodd"/>
      <path id="Tracé_265" data-name="Tracé 265" d="M66.985,25.552c-1.47.774-2.577,1.916-4.87,1.869a9.875,9.875,0,0,1,4.87-1.869" transform="translate(108.885 44.792)" fill="#ca9e67" fill-rule="evenodd"/>
      <path id="Tracé_266" data-name="Tracé 266" d="M14.89,26.366c.741.259,1,1,1.123,1.869-.438-.562-1.082-.914-1.123-1.869" transform="translate(26.101 46.219)" fill="#ca9e67" fill-rule="evenodd"/>
      <path id="Tracé_267" data-name="Tracé 267" d="M26.84,37.34C25.252,33.2,21.852,30.854,20.47,26.5c3.246,3.491,5.423,8.044,8.242,11.959-.284.823-2.425-2.211-1.5.374-1.544-.7-1.539-2.954-3-3.736.928-.779,1.476,2,2.624,2.241" transform="translate(35.883 46.458)" fill="#ca9e67" fill-rule="evenodd"/>
      <path id="Tracé_268" data-name="Tracé 268" d="M70.117,26.5a14.662,14.662,0,0,1-6.37,1.869c1.679-1.068,4.2-1.294,6.37-1.869" transform="translate(111.745 46.46)" fill="#ca9e67" fill-rule="evenodd"/>
      <path id="Tracé_269" data-name="Tracé 269" d="M66.371,26.637a21.83,21.83,0,0,1-4.121,1.869c.84-1.156,2.478-1.514,4.121-1.869" transform="translate(109.121 46.694)" fill="#ca9e67" fill-rule="evenodd"/>
      <path id="Tracé_270" data-name="Tracé 270" d="M22.511,27.725a4.148,4.148,0,0,1,1.872,2.615,5.4,5.4,0,0,1-1.872-2.615" transform="translate(39.461 48.602)" fill="#ca9e67" fill-rule="evenodd"/>
      <path id="Tracé_271" data-name="Tracé 271" d="M20.062,28.674c2.45,2.164,4.116,5.115,6,7.849a25.819,25.819,0,0,1-6-7.849" transform="translate(35.168 50.265)" fill="#ca9e67" fill-rule="evenodd"/>
      <path id="Tracé_272" data-name="Tracé 272" d="M23.48,29.281c-.284-.669,1.908,2.208,2.246,3.364-1.12-.749-1.577-2.164-2.246-3.364" transform="translate(41.115 51.155)" fill="#ca9e67" fill-rule="evenodd"/>
      <path id="Tracé_273" data-name="Tracé 273" d="M14.754,29.589c.209-1.082.584.573,1.123.374-.363,1.239-.741-.418-1.123-.374" transform="translate(25.863 51.22)" fill="#ca9e67" fill-rule="evenodd"/>
      <path id="Tracé_274" data-name="Tracé 274" d="M60.388,31.39c-2.618.969-5.016,3.411-8.617,2.244,2.423-1.2,5.55-1.69,8.617-2.244" transform="translate(90.752 55.026)" fill="#ca9e67" fill-rule="evenodd"/>
      <path id="Tracé_275" data-name="Tracé 275" d="M60.208,34.38c2.249-1.619,5.767-1.971,8.617-2.99-2.175,1.693-5.44,2.3-8.617,2.99" transform="translate(105.542 55.026)" fill="#ca9e67" fill-rule="evenodd"/>
      <path id="Tracé_276" data-name="Tracé 276" d="M60.389,33.167c-.38.619-1.591.407-2.249.749-.785-.333,1.341-.873,2.249-.749" transform="translate(101.617 58.109)" fill="#ca9e67" fill-rule="evenodd"/>
      <path id="Tracé_277" data-name="Tracé 277" d="M64.375,33.7c-.666.955-2.406.837-3.372,1.495-.669.1-.768-.352-.374-.374,1.393-.231,2.354-.889,3.747-1.12" transform="translate(105.873 59.072)" fill="#ca9e67" fill-rule="evenodd"/>
      <path id="Tracé_278" data-name="Tracé 278" d="M53.954,34.5c-1.6.361-5.586,2.032-5.993,1.12.933-.234,2.615-.418,4.121-.746.71-.157,3.326-1.4,1.872-.374" transform="translate(84.073 59.768)" fill="#ca9e67" fill-rule="evenodd"/>
      <path id="Tracé_279" data-name="Tracé 279" d="M6.044,34.382c1.632-.129,1.572,1.368,2.246,2.241,2.348,3.042,4.842,6.241,7.119,9.346-1.506-.1-2.34-2.348-3.372-3.739-1.5-2.026-4.7-5.09-5.993-7.849" transform="translate(10.595 60.257)" fill="#ca9e67" fill-rule="evenodd"/>
      <path id="Tracé_280" data-name="Tracé 280" d="M57.71,34.379a2.667,2.667,0,0,1-1.123.749c-.941-.162.622-.807,1.123-.749" transform="translate(98.676 60.26)" fill="#ca9e67" fill-rule="evenodd"/>
      <path id="Tracé_281" data-name="Tracé 281" d="M8.493,34.92c2.081-.072,3.493,5.41.752,1.12-.289-.446-.052-1.112-.752-1.12" transform="translate(14.888 61.214)" fill="#ca9e67" fill-rule="evenodd"/>
      <path id="Tracé_282" data-name="Tracé 282" d="M48.95,34.785c-.24.757-1.751.245-1.875,1.12-1.137-.683,1.065-1.145,1.875-1.12" transform="translate(81.961 60.975)" fill="#ca9e67" fill-rule="evenodd"/>
      <path id="Tracé_283" data-name="Tracé 283" d="M41.086,35.47c.446-.361,3.978,7.507-.746,7.474,1.627-1.368,1.955-5.418.746-7.474" transform="translate(70.714 62.157)" fill="#ca9e67" fill-rule="evenodd"/>
      <path id="Tracé_284" data-name="Tracé 284" d="M5.094,35.87c3.386,1.977,4.922,5.8,7.494,8.595C11,44.407,9.848,41.94,8.466,40.355,7.148,38.84,4.978,37.381,5.094,35.87" transform="translate(8.921 62.879)" fill="#ca9e67" fill-rule="evenodd"/>
      <path id="Tracé_285" data-name="Tracé 285" d="M51,36.006c-.771,1.1-2.99.754-4.121,1.495-.256-.647,2.535-1.445,4.121-1.495" transform="translate(82.156 63.118)" fill="#ca9e67" fill-rule="evenodd"/>
      <path id="Tracé_286" data-name="Tracé 286" d="M5.227,37.092c1.591,1.528,2.745,3.491,4.5,4.859-1.679.05-3.681-2.8-4.5-4.859" transform="translate(9.163 65.022)" fill="#ca9e67" fill-rule="evenodd"/>
      <path id="Tracé_287" data-name="Tracé 287" d="M39.387,39.368c.834.176,2.246,2.984,4.5,2.99,1.451-1.291,2.962-2.527,3.372-4.859,2.913,4.68-7.43,8.355-7.868,1.869" transform="translate(69.043 65.735)" fill="#ca9e67" fill-rule="evenodd"/>
      <path id="Tracé_288" data-name="Tracé 288" d="M63.718,38.722c-.531,1.087-2.219,1.027-3.372,1.495a6.752,6.752,0,0,1,3.372-1.495" transform="translate(105.784 67.879)" fill="#ca9e67" fill-rule="evenodd"/>
      <path id="Tracé_289" data-name="Tracé 289" d="M59.159,39.13c-.5.749-1.663.829-2.624,1.12.5-.752,1.663-.831,2.624-1.12" transform="translate(99.103 68.594)" fill="#ca9e67" fill-rule="evenodd"/>
      <path id="Tracé_290" data-name="Tracé 290" d="M58.526,39.673a2.668,2.668,0,0,1-1.123.749c-.941-.162.622-.807,1.123-.749" transform="translate(100.107 69.54)" fill="#ca9e67" fill-rule="evenodd"/>
      <path id="Tracé_291" data-name="Tracé 291" d="M56.807,41.841a10.553,10.553,0,0,1,4.87-1.869c1.982-.226-.432.451-1.123.749-1.054.451-2.4,1.3-3.747,1.12" transform="translate(99.58 69.99)" fill="#ca9e67" fill-rule="evenodd"/>
      <path id="Tracé_292" data-name="Tracé 292" d="M63.45,40.349c-1.52,1.349-3.843,1.9-6.37,2.241.719-.658,4.218-1.765,6.37-2.241" transform="translate(100.058 70.731)" fill="#ca9e67" fill-rule="evenodd"/>
      <path id="Tracé_293" data-name="Tracé 293" d="M13.8,40.486c1.847.4,2.252,2.238,3.372,3.364.457.162-3.2-1.693-3.372-3.364" transform="translate(24.192 70.971)" fill="#ca9e67" fill-rule="evenodd"/>
      <path id="Tracé_294" data-name="Tracé 294" d="M15.5,42.23c-.482-.7.939.851,1.123,1.12.259.377-.493-.2-1.123-1.12" transform="translate(26.992 73.712)" fill="#ca9e67" fill-rule="evenodd"/>
      <path id="Tracé_295" data-name="Tracé 295" d="M13.121,44.151c1.905.716,2.924,2.315,4.5,3.364-1.211.077-3.637-1.844-4.5-3.364" transform="translate(23 77.396)" fill="#ca9e67" fill-rule="evenodd"/>
      <path id="Tracé_296" data-name="Tracé 296" d="M12.712,44.977c1.4-.22,3.571,1.644,4.87,2.99a20.981,20.981,0,0,1,3,4.485C18.064,49.853,15.371,47.433,12.712,44.977Z" transform="translate(22.284 78.813)" fill="#ca9e67" fill-rule="evenodd"/>
      <path id="Tracé_297" data-name="Tracé 297" d="M61.135,50.668c.179,2.805,1.985,4.275,1.872,6.354-1.25-.242-1.093-2.37-1.5-3.739-.267-.9-1.8-2.648-.374-2.615" transform="translate(106.118 88.819)" fill="#ca9e67" fill-rule="evenodd"/>
      <path id="Tracé_298" data-name="Tracé 298" d="M59.394,50.8c1.371,1.371,1.594,3.89,2.624,5.605-1.019-.24-1.864-3.865-2.624-5.605" transform="translate(104.115 89.06)" fill="#ca9e67" fill-rule="evenodd"/>
      <path id="Tracé_299" data-name="Tracé 299" d="M61.434,51.076c1.079,1.041.966,3.273,1.872,4.485-1.233.595-1.385-3.092-1.872-4.485" transform="translate(107.691 89.535)" fill="#ca9e67" fill-rule="evenodd"/>
      <path id="Tracé_300" data-name="Tracé 300" d="M61.611,58.686a25.7,25.7,0,0,0,.374,5.608c-1.872-3.989-2.285-9.432-4.5-13.082,1.869,1.327,2.615,3.769,3.747,5.605,1.142,1.853,2.648,3.612,3,5.982-1.365-.878-1.107-3.378-2.621-4.113" transform="translate(100.772 89.773)" fill="#ca9e67" fill-rule="evenodd"/>
      <path id="Tracé_301" data-name="Tracé 301" d="M63.339,52.569c1.4,1.093.672,4.311,1.5,5.979-.983-1.509-1.22-3.766-1.5-5.979" transform="translate(111.03 92.152)" fill="#ca9e67" fill-rule="evenodd"/>
      <path id="Tracé_302" data-name="Tracé 302" d="M55.054,53.519c1.456.672,1.049,5.173,2.621,4.485,1.31,1.935,1.013,5.47,2.624,7.1-.462,1.134-1.288-.4-2.246,0,1.773-4.215-3.433-7.32-3-11.587" transform="translate(96.462 93.817)" fill="#ca9e67" fill-rule="evenodd"/>
      <path id="Tracé_303" data-name="Tracé 303" d="M37.962,62.387c-.462-1.652.476-4.983-.374-7.1,2.211,2.334,1.522,7.237-.749,8.972-1.087-.413-2.535-.462-2.624-1.869C35.115,63.639,36.888,62.984,37.962,62.387Z" transform="translate(59.977 96.911)" fill="#ca9e67" fill-rule="evenodd"/>
      <path id="Tracé_304" data-name="Tracé 304" d="M60.179,60.176c-1.946-.606-1.36-3.345-1.875-4.485.743,1.244,2.359,3.224,1.875,4.485" transform="translate(102.204 97.625)" fill="#ca9e67" fill-rule="evenodd"/>
      <path id="Tracé_305" data-name="Tracé 305" d="M57.351,57.049c.84.407.658,1.833,1.5,2.244-.187,1.633-1.31-1.47-1.5-2.244" transform="translate(100.533 100.005)" fill="#ca9e67" fill-rule="evenodd"/>
      <path id="Tracé_306" data-name="Tracé 306" d="M4.412,59.087c.011,1.982,2.323,1.668,3.372,2.615-.606.939-1.8-.663-2.624-.746C4.86,62.751,6.6,62.509,7.41,63.2c-.914,1.126-2.326-.4-3-.749.427-2.544-1.437-2.8-1.5-4.859,2.734.388,3.86,2.379,6.368,2.99-1.44.8-2.808-1.674-4.87-1.495" transform="translate(5.108 100.957)" fill="#ca9e67" fill-rule="evenodd"/>
      <path id="Tracé_307" data-name="Tracé 307" d="M45.444,60.035c3.127,2.018,2.335,11.623-2.246,10.092,4.964-.683,2.794-6.153,2.246-10.092" transform="translate(75.724 105.239)" fill="#ca9e67" fill-rule="evenodd"/>
      <path id="Tracé_308" data-name="Tracé 308" d="M53.268,60.312c1.891-.143,1.536,1.955,2.624,2.615-.752.482-1.982-1.745-2.624-2.615" transform="translate(93.376 105.714)" fill="#ca9e67" fill-rule="evenodd"/>
      <path id="Tracé_309" data-name="Tracé 309" d="M37.586,60.579c.763.644,1.641,4.886-.377,4.859.358-1.751,1.14-2.932.377-4.859" transform="translate(65.226 106.193)" fill="#ca9e67" fill-rule="evenodd"/>
      <path id="Tracé_310" data-name="Tracé 310" d="M57.488,60.851c.556.317.542,1.2.749,1.869-.292.856-.787-1.165-.749-1.869" transform="translate(100.771 106.67)" fill="#ca9e67" fill-rule="evenodd"/>
      <path id="Tracé_311" data-name="Tracé 311" d="M11.215,64.367c1.437-1.043,3.739.245,5.244.374.669-.107.771.352.377.372-1.96-.162-3.284-.961-5.622-.746" transform="translate(19.659 112.123)" fill="#ca9e67" fill-rule="evenodd"/>
      <path id="Tracé_312" data-name="Tracé 312" d="M53.684,64.38c1.476.284.867,1.8,1.123,2.615a42.006,42.006,0,0,0,4.5,9.344c.639.138.708-.289.749-.746.82.055.807.941.752,1.869-1.944.083-2.541-2.1-3.372-3.364-1.866-2.838-3.923-6.359-3.747-9.718" transform="translate(94.086 112.856)" fill="#ca9e67" fill-rule="evenodd"/>
      <path id="Tracé_313" data-name="Tracé 313" d="M43.27,65.738c2.147.542.754,6.153-2.624,6.354-1.1-.892-2.354-1.638-2.621-3.364,1.261.11,1.085,1.657,2.246,1.869,1.3.3,1.44-.556,2.624-.374-.165-1.553,1.063-3.65.374-4.485" transform="translate(66.658 115.237)" fill="#ca9e67" fill-rule="evenodd"/>
      <path id="Tracé_314" data-name="Tracé 314" d="M56.287,66.317c0-.088.253-.562.374,0,.242,1.17-.6,3.681-.374,0" transform="translate(98.602 115.778)" fill="#ca9e67" fill-rule="evenodd"/>
      <path id="Tracé_315" data-name="Tracé 315" d="M54.9,66.145a7.173,7.173,0,0,1,1.875,3.739c.451.5-2.015-2.1-1.875-3.739" transform="translate(96.235 115.95)" fill="#ca9e67" fill-rule="evenodd"/>
      <path id="Tracé_316" data-name="Tracé 316" d="M55.582,66.724c.033-.708,1.6.091,1.123,1.12-.862.116-.416-1.079-1.123-1.12" transform="translate(97.432 116.494)" fill="#ca9e67" fill-rule="evenodd"/>
      <path id="Tracé_317" data-name="Tracé 317" d="M14.346,24.466c.641.482,1.473.774,1.5,1.869.8.173.716-.534.752-1.12.955.094,1.748,1.979.374,2.241.523.6,1.85.4,2.246,1.12.275,1.021-.743.754-.749,1.5.672.047.79-.46,1.5-.374-.209.84-2.205,1.525-.374,2.241-1.343.5-2.095-2.056-3-3.364S14.563,26.575,14.346,24.466Z" transform="translate(25.148 42.889)" fill="#ca9e67" fill-rule="evenodd"/>
      <path id="Tracé_318" data-name="Tracé 318" d="M48.17,49.319c.641-.479,1.473-.771,1.5-1.869-1.253-.38-1.883,3.014-1.5,1.869m1.123-8.969c1.462,1.032,2.142,2.847,2.249,5.233-1.365,1.5-1.784,3.953-3,5.605H45.921c.983,1.933,4.308.184,4.5-1.12,1.134,3.207-3.975,4.82-5.993,2.244V49.694c3.615-.132,3.945-3.538,3.747-7.474.5.848,1.451,2.475.749,3.364,2.131-.793-.427-4.529.374-5.233" transform="translate(77.871 70.733)" fill="#ca9e67" fill-rule="evenodd"/>
      <path id="Tracé_319" data-name="Tracé 319" d="M43.951,50.533c2.5,1.635,1.542,6.574.374,8.6-3.7,1.173-5.054-1.159-5.619-4.113,1.671.972,1.294,2.277,3,2.244,2.593-.052,2.97-3.832,2.249-6.728" transform="translate(67.851 88.583)" fill="#ca9e67" fill-rule="evenodd"/>
    </g>
  </g>
</svg>
