<svg xmlns="http://www.w3.org/2000/svg" width="68.417" height="84.206" viewBox="0 0 68.417 84.206">
  <g id="_297393" data-name="297393" transform="translate(0.595 1278.75)">
    <path id="Tracé_819" data-name="Tracé 819" d="M222.86-1276.367c-.4.9-3.131,7.078-6.08,13.728s-5.373,12.134-5.386,12.186a10.864,10.864,0,0,0,2.132,1.342c1.193.687,2.191,1.251,2.223,1.251s.953-1.219,2.048-2.709c9.651-13.19,15.8-21.616,15.8-21.655,0-.058-9.865-5.775-9.962-5.775C223.612-1278,223.262-1277.261,222.86-1276.367Z" transform="translate(-197.574)" fill="none" stroke="#fff" stroke-width="1.5"/>
    <path id="Tracé_820" data-name="Tracé 820" d="M321.734-1092.627c-7.985,5.652-14.525,10.3-14.538,10.332-.032.084,2.47,4.407,2.547,4.407.039-.006,7.331-3.37,16.2-7.486,11.434-5.3,16.139-7.512,16.133-7.584-.013-.149-5.691-9.949-5.762-9.943C336.285-1102.9,329.719-1098.272,321.734-1092.627Z" transform="translate(-287.167 -163.75)" fill="none" stroke="#fff" stroke-width="1.5"/>
    <path id="Tracé_821" data-name="Tracé 821" d="M7.824-772.618A8.667,8.667,0,0,0,1.05-767.8a9.022,9.022,0,0,0-.8,2.632,5,5,0,0,0,0,2.191,9.081,9.081,0,0,0,1.439,3.746,10.568,10.568,0,0,0,2.048,2.113,8.594,8.594,0,0,0,7.953,1.134,9.929,9.929,0,0,0,2.191-1.173,8.658,8.658,0,0,0,3.267-4.907,10.128,10.128,0,0,0,.123-3.409A8.631,8.631,0,0,0,7.824-772.618Z" transform="translate(0 -472.578)" fill="none" stroke="#fff" stroke-width="1.5"/>
    <path id="Tracé_822" data-name="Tracé 822" d="M387.825-729c-6.579.493-12.425.927-13,.966s-1.387.1-1.815.136l-1.718.13-1.75.13c-.447.039-3.636.272-7.1.525s-6.326.467-6.365.48a11.487,11.487,0,0,0-.084,2.56,11.487,11.487,0,0,0,.084,2.56c.039.013,2.91.227,6.365.48s6.65.486,7.1.525l1.75.13c1.108.084,2.217.162,3.468.259.5.039,6.242.46,12.769.94s11.972.881,12.108.9l.24.026v-5.827c0-3.2-.019-5.821-.045-5.821S394.4-729.492,387.825-729Z" transform="translate(-332.808 -512.574)" fill="none" stroke="#fff" stroke-width="1.5"/>
    <path id="Tracé_823" data-name="Tracé 823" d="M308.428-560.822c-.687,1.193-1.245,2.2-1.232,2.23.026.071,29.07,20.612,29.142,20.612s5.73-9.826,5.743-9.949c.006-.071-4.7-2.282-16.133-7.584-8.873-4.116-16.165-7.48-16.2-7.486S309.115-562.021,308.428-560.822Z" transform="translate(-287.168 -668.656)" fill="none" stroke="#fff" stroke-width="1.5"/>
    <path id="Tracé_824" data-name="Tracé 824" d="M213.52-465.749a10.905,10.905,0,0,0-2.126,1.342c.013.052,2.437,5.535,5.386,12.186s5.684,12.827,6.08,13.728.752,1.633.778,1.633c.1,0,9.962-5.717,9.962-5.775,0-.039-6.151-8.465-15.8-21.662-1.1-1.484-2.016-2.7-2.055-2.7S214.706-466.436,213.52-465.749Z" transform="translate(-197.574 -758.434)" fill="none" stroke="#fff" stroke-width="1.5"/>
  </g>
</svg>
